<svg id="Layer_1" data-name="Layer 1" xmlns="http://www.w3.org/2000/svg" width="264.3" height="45" viewBox="0 0 264.3 45"><defs><style>.cls-1{fill:#333;}</style></defs><title>logo-dlg</title><path class="cls-1" d="M146.19,29.65v-.4h.59a1.61,1.61,0,0,0,1.42-.59,3.17,3.17,0,0,0,.26-1.6V17.6a2.85,2.85,0,0,0-.33-1.72,1.78,1.78,0,0,0-1.35-.48h-.59V15h6.41a15,15,0,0,1,5.37.75,6.26,6.26,0,0,1,3,2.48,7.25,7.25,0,0,1,1.12,4,7,7,0,0,1-2,5.11q-2.24,2.29-6.83,2.29Zm4.5-1.06a12.71,12.71,0,0,0,2.47.3,6.09,6.09,0,0,0,4.47-1.76,6.42,6.42,0,0,0,1.78-4.77,6.41,6.41,0,0,0-1.78-4.79,6.23,6.23,0,0,0-4.57-1.75,10.55,10.55,0,0,0-2.38.31Z" transform="translate(-73.91 -14.67)"/><path class="cls-1" d="M173,29.25v.4h-6.75v-.4h.56a1.75,1.75,0,0,0,1.42-.53,3.09,3.09,0,0,0,.28-1.66V17.6a4.53,4.53,0,0,0-.15-1.47,1,1,0,0,0-.48-.46,2.34,2.34,0,0,0-1.07-.26h-.56V15H173v.4h-.57a1.73,1.73,0,0,0-1.41.53,3,3,0,0,0-.29,1.66v9.46a4.52,4.52,0,0,0,.15,1.47,1,1,0,0,0,.49.46,2.27,2.27,0,0,0,1.06.26Z" transform="translate(-73.91 -14.67)"/><path class="cls-1" d="M191,14.67l.41,4.62H191a6.24,6.24,0,0,0-1.59-2.6,5.2,5.2,0,0,0-3.61-1.26,5.25,5.25,0,0,0-4.58,2.21,7.54,7.54,0,0,0-1.31,4.45,8.38,8.38,0,0,0,.87,3.82,5.74,5.74,0,0,0,5.18,3.34A6.86,6.86,0,0,0,187.6,29a7,7,0,0,0,1.57-.61V24.21a3.66,3.66,0,0,0-.18-1.44,1.18,1.18,0,0,0-.56-.52,3.45,3.45,0,0,0-1.33-.18v-.41h6.1v.41h-.29a1.33,1.33,0,0,0-1.24.56,3.56,3.56,0,0,0-.23,1.58v4.48A11.52,11.52,0,0,1,185.9,30q-4.57,0-6.94-2.72a7,7,0,0,1-1.78-4.71,7.44,7.44,0,0,1,1-3.71,8.2,8.2,0,0,1,3.25-3.24,8.44,8.44,0,0,1,4.09-.94,8.63,8.63,0,0,1,1.56.13,15.13,15.13,0,0,1,2,.57,3.4,3.4,0,0,0,.87.23.48.48,0,0,0,.38-.19,1.37,1.37,0,0,0,.19-.74Z" transform="translate(-73.91 -14.67)"/><path class="cls-1" d="M203.61,29.25v.4h-6.75v-.4h.56a1.75,1.75,0,0,0,1.42-.53,3.09,3.09,0,0,0,.28-1.66V17.6a4.53,4.53,0,0,0-.15-1.47,1,1,0,0,0-.48-.46,2.34,2.34,0,0,0-1.07-.26h-.56V15h6.75v.4H203a1.73,1.73,0,0,0-1.41.53,3,3,0,0,0-.29,1.66v9.46a4.52,4.52,0,0,0,.15,1.47A1,1,0,0,0,202,29a2.27,2.27,0,0,0,1.06.26Z" transform="translate(-73.91 -14.67)"/><path class="cls-1" d="M220.69,15l.17,3.44h-.44a3.92,3.92,0,0,0-.35-1.3,2.25,2.25,0,0,0-1-.92,3.56,3.56,0,0,0-1.57-.3h-2.22V27.11a2.82,2.82,0,0,0,.31,1.69,1.82,1.82,0,0,0,1.36.45h.55v.4h-6.68v-.4h.56a1.65,1.65,0,0,0,1.42-.56,3.08,3.08,0,0,0,.26-1.58V15.92H211.2a5.66,5.66,0,0,0-1.57.15,2.13,2.13,0,0,0-1,.79,3,3,0,0,0-.51,1.58h-.44l.19-3.44Z" transform="translate(-73.91 -14.67)"/><path class="cls-1" d="M233.18,24.75h-6.1L226,27.06a3.47,3.47,0,0,0-.4,1.28.73.73,0,0,0,.34.59,3.18,3.18,0,0,0,1.48.33v.4h-5v-.4a2.79,2.79,0,0,0,1.28-.42,6.53,6.53,0,0,0,1.31-2.11l5.54-12.06H231l5.48,12.19a5.49,5.49,0,0,0,1.2,1.91,2.57,2.57,0,0,0,1.5.49v.4H233v-.4a2.46,2.46,0,0,0,1.27-.29.74.74,0,0,0,.33-.6,4.26,4.26,0,0,0-.46-1.5Zm-.33-.8L230.18,18l-2.74,5.92Z" transform="translate(-73.91 -14.67)"/><path class="cls-1" d="M255.84,25.6l.38.08-1.35,4h-12.2v-.4h.59a1.63,1.63,0,0,0,1.43-.6,3.26,3.26,0,0,0,.24-1.6V17.6a2.85,2.85,0,0,0-.32-1.72,1.78,1.78,0,0,0-1.35-.48h-.59V15h7.13v.4a4.65,4.65,0,0,0-1.76.22,1.39,1.39,0,0,0-.69.57,4.4,4.4,0,0,0-.19,1.65V27a2.8,2.8,0,0,0,.19,1.23.82.82,0,0,0,.43.33,8.08,8.08,0,0,0,1.81.11h1.15a8.93,8.93,0,0,0,2.54-.25,3.32,3.32,0,0,0,1.34-.88A7.11,7.11,0,0,0,255.84,25.6Z" transform="translate(-73.91 -14.67)"/><path class="cls-1" d="M87.07,43.44l.38.08-1.35,4H73.91v-.4h.59a1.63,1.63,0,0,0,1.43-.61,3.26,3.26,0,0,0,.24-1.6V35.44a2.85,2.85,0,0,0-.33-1.72,1.78,1.78,0,0,0-1.35-.48h-.59v-.4H81v.4a4.65,4.65,0,0,0-1.76.22,1.39,1.39,0,0,0-.69.57,4.4,4.4,0,0,0-.19,1.65v9.2a2.8,2.8,0,0,0,.19,1.23.82.82,0,0,0,.43.33,8,8,0,0,0,1.81.11H82a9,9,0,0,0,2.54-.25,3.32,3.32,0,0,0,1.34-.88A7.09,7.09,0,0,0,87.07,43.44Z" transform="translate(-73.91 -14.67)"/><path class="cls-1" d="M98,47.1v.4H91.3v-.4h.56a1.75,1.75,0,0,0,1.42-.53,3.09,3.09,0,0,0,.28-1.66V35.44A4.53,4.53,0,0,0,93.4,34a1,1,0,0,0-.48-.46,2.34,2.34,0,0,0-1.07-.26H91.3v-.4H98v.4h-.57a1.73,1.73,0,0,0-1.41.53,3,3,0,0,0-.29,1.66V44.9a4.53,4.53,0,0,0,.15,1.47,1,1,0,0,0,.49.46,2.26,2.26,0,0,0,1.06.26Z" transform="translate(-73.91 -14.67)"/><path class="cls-1" d="M112.35,40a5.23,5.23,0,0,1,2.45,1,3.12,3.12,0,0,1,1.13,2.43,3.45,3.45,0,0,1-.74,2.09,4.22,4.22,0,0,1-2,1.46,12.64,12.64,0,0,1-4,.46h-7.43v-.4h.59a1.64,1.64,0,0,0,1.42-.58A3.16,3.16,0,0,0,104,44.9V35.44a2.79,2.79,0,0,0-.34-1.72,1.78,1.78,0,0,0-1.35-.48h-.59v-.4h6.81a14.41,14.41,0,0,1,3.06.26,5,5,0,0,1,2.66,1.38,3.24,3.24,0,0,1,.92,2.27,3,3,0,0,1-.72,2A4.26,4.26,0,0,1,112.35,40Zm-6.09-.58a9.33,9.33,0,0,0,1,.11q.55,0,1.21,0a7.26,7.26,0,0,0,2.55-.34,2.69,2.69,0,0,0,1.31-1,2.77,2.77,0,0,0,.45-1.53,2.73,2.73,0,0,0-1.13-2.19,5.14,5.14,0,0,0-3.29-.91,8.45,8.45,0,0,0-2.09.24Zm0,7a12.59,12.59,0,0,0,2.66.29,5,5,0,0,0,3.21-.88,2.69,2.69,0,0,0,1.1-2.18,3,3,0,0,0-.5-1.64,3.3,3.3,0,0,0-1.63-1.24,7.5,7.5,0,0,0-2.79-.45l-1.23,0a6.73,6.73,0,0,0-.82.08Z" transform="translate(-73.91 -14.67)"/><path class="cls-1" d="M136,47.5h-4.2l-5.33-6.85-1,0h-.33l-.36,0V44.9a2.82,2.82,0,0,0,.33,1.72,1.72,1.72,0,0,0,1.32.48h.62v.4h-6.75v-.4H121a1.63,1.63,0,0,0,1.43-.61,3.19,3.19,0,0,0,.24-1.59V35.44a2.82,2.82,0,0,0-.33-1.72,1.78,1.78,0,0,0-1.35-.48h-.59v-.4h5.74a14.64,14.64,0,0,1,3.7.34,4.27,4.27,0,0,1,2,1.25,3.12,3.12,0,0,1,.83,2.18,3.29,3.29,0,0,1-.95,2.34,5.49,5.49,0,0,1-2.93,1.4l3.25,4.2A7.76,7.76,0,0,0,134,46.49a5.08,5.08,0,0,0,2.09.61ZM124.86,40h.65a5.39,5.39,0,0,0,3.4-.91A2.83,2.83,0,0,0,130,36.76a2.91,2.91,0,0,0-.92-2.23,3.45,3.45,0,0,0-2.44-.86,11,11,0,0,0-1.82.21Z" transform="translate(-73.91 -14.67)"/><path class="cls-1" d="M149.45,42.59h-6.1l-1.07,2.31a3.46,3.46,0,0,0-.39,1.27.73.73,0,0,0,.34.59,3.18,3.18,0,0,0,1.48.33v.4h-5v-.4a2.79,2.79,0,0,0,1.28-.42,6.53,6.53,0,0,0,1.31-2.11l5.54-12.06h.41l5.48,12.19A5.51,5.51,0,0,0,154,46.6a2.57,2.57,0,0,0,1.5.49v.4h-6.21v-.4a2.47,2.47,0,0,0,1.27-.29.73.73,0,0,0,.33-.6,4.24,4.24,0,0,0-.46-1.5Zm-.33-.8-2.67-5.92-2.74,5.92Z" transform="translate(-73.91 -14.67)"/><path class="cls-1" d="M174.56,47.5h-4.2L165,40.65l-1,0h-.33l-.36,0V44.9a2.82,2.82,0,0,0,.33,1.72,1.72,1.72,0,0,0,1.32.48h.62v.4h-6.75v-.4h.59a1.63,1.63,0,0,0,1.43-.61,3.19,3.19,0,0,0,.24-1.59V35.44a2.82,2.82,0,0,0-.33-1.72,1.78,1.78,0,0,0-1.35-.48h-.59v-.4h5.74a14.64,14.64,0,0,1,3.7.34,4.27,4.27,0,0,1,2,1.25,3.12,3.12,0,0,1,.83,2.18,3.29,3.29,0,0,1-.95,2.34,5.49,5.49,0,0,1-2.93,1.4l3.25,4.2a7.76,7.76,0,0,0,1.92,1.92,5.08,5.08,0,0,0,2.09.61ZM163.38,40H164a5.39,5.39,0,0,0,3.4-.91,2.83,2.83,0,0,0,1.14-2.31,2.91,2.91,0,0,0-.92-2.23,3.45,3.45,0,0,0-2.44-.86,11,11,0,0,0-1.82.21Z" transform="translate(-73.91 -14.67)"/><path class="cls-1" d="M187.11,32.85h5.49v.4h-.3a2.52,2.52,0,0,0-.88.25,3.46,3.46,0,0,0-1.06.71,9.8,9.8,0,0,0-1.17,1.51l-3.8,5.56V45a2.74,2.74,0,0,0,.33,1.68,1.87,1.87,0,0,0,1.39.45h.51v.4h-6.69v-.4h.56a1.65,1.65,0,0,0,1.42-.56,3.08,3.08,0,0,0,.26-1.58V41.49l-4.32-6.14a13,13,0,0,0-1-1.35,4.14,4.14,0,0,0-1.13-.65,1.66,1.66,0,0,0-.67-.11v-.4h6.74v.4h-.35a2.15,2.15,0,0,0-1,.24.76.76,0,0,0-.46.71,3.3,3.3,0,0,0,.71,1.4l3.29,4.72L188,35.81a3.22,3.22,0,0,0,.7-1.51.91.91,0,0,0-.17-.54,1.11,1.11,0,0,0-.48-.37,2.5,2.5,0,0,0-.94-.14Z" transform="translate(-73.91 -14.67)"/><path class="cls-1" d="M201.88,42.34a6.83,6.83,0,0,1-.52,2.59,4.92,4.92,0,0,1-1.45,2,2.9,2.9,0,0,1-1.8.75,1.74,1.74,0,0,1-1.46-.76,3.22,3.22,0,0,1-.57-2,6.48,6.48,0,0,1,.55-2.57,5.19,5.19,0,0,1,1.48-2,2.88,2.88,0,0,1,1.79-.75,1.7,1.7,0,0,1,1.42.76A3.23,3.23,0,0,1,201.88,42.34Zm-1.08-.6a2.18,2.18,0,0,0-.3-1.24.9.9,0,0,0-.77-.43q-1,0-1.77,1.83a9,9,0,0,0-.81,3.65,2.21,2.21,0,0,0,.31,1.28.93.93,0,0,0,.79.45q.92,0,1.73-1.83A9.09,9.09,0,0,0,200.8,41.74Z" transform="translate(-73.91 -14.67)"/><path class="cls-1" d="M207.69,39.82l-.12.58h-1l-.72,3.81a28.25,28.25,0,0,1-1,3.89,6.89,6.89,0,0,1-1.48,2.68,1.78,1.78,0,0,1-1.2.57.86.86,0,0,1-.67-.31.8.8,0,0,1-.2-.57.74.74,0,0,1,.17-.48.51.51,0,0,1,.41-.2.37.37,0,0,1,.3.15.52.52,0,0,1,.12.34.55.55,0,0,1-.14.36.35.35,0,0,0-.1.18.16.16,0,0,0,0,.12.25.25,0,0,0,.18.06,1,1,0,0,0,.59-.24,2,2,0,0,0,.55-.7,6.28,6.28,0,0,0,.46-1.35q.09-.37.49-2.41l1.14-5.9h-1.14l.09-.58a2,2,0,0,0,.76-.1,1,1,0,0,0,.4-.38,6.41,6.41,0,0,0,.47-1.06,9.46,9.46,0,0,1,.74-1.62,4.09,4.09,0,0,1,1-1.16,1.73,1.73,0,0,1,1-.39,1,1,0,0,1,.8.34,1.07,1.07,0,0,1,.3.73.86.86,0,0,1-.15.51.46.46,0,0,1-.39.21.41.41,0,0,1-.33-.16.58.58,0,0,1-.13-.37.93.93,0,0,1,.09-.34.93.93,0,0,0,.08-.27.26.26,0,0,0-.06-.18.33.33,0,0,0-.25-.09,1,1,0,0,0-.74.35,4.09,4.09,0,0,0-.78,1.45q-.18.51-.65,2.55Z" transform="translate(-73.91 -14.67)"/><path class="cls-1" d="M229.63,32.51l.41,4.62h-.41a6.24,6.24,0,0,0-1.59-2.6,5.2,5.2,0,0,0-3.61-1.26,5.25,5.25,0,0,0-4.58,2.21,7.54,7.54,0,0,0-1.31,4.45,8.37,8.37,0,0,0,.87,3.82,5.74,5.74,0,0,0,5.18,3.34,6.85,6.85,0,0,0,1.68-.21,7,7,0,0,0,1.57-.6V42.05a3.66,3.66,0,0,0-.18-1.44,1.18,1.18,0,0,0-.56-.52,3.46,3.46,0,0,0-1.33-.18V39.5h6.1v.41h-.29a1.33,1.33,0,0,0-1.24.56,3.58,3.58,0,0,0-.23,1.58v4.48a12.26,12.26,0,0,1-2.64,1,12.4,12.4,0,0,1-2.89.31q-4.56,0-6.93-2.72a7,7,0,0,1-1.78-4.71,7.44,7.44,0,0,1,1-3.71,8.2,8.2,0,0,1,3.25-3.24,8.44,8.44,0,0,1,4.09-.94,8.63,8.63,0,0,1,1.56.13,15.07,15.07,0,0,1,2,.57,3.41,3.41,0,0,0,.87.23.47.47,0,0,0,.38-.19,1.37,1.37,0,0,0,.19-.74Z" transform="translate(-73.91 -14.67)"/><path class="cls-1" d="M239.91,33.65v5.79h3.46a3,3,0,0,0,1.8-.38,2.34,2.34,0,0,0,.67-1.75h.43v5.1h-.43a5.3,5.3,0,0,0-.33-1.37,1.42,1.42,0,0,0-.69-.59,3.75,3.75,0,0,0-1.46-.22h-3.46v4.83a4.16,4.16,0,0,0,.09,1.18.7.7,0,0,0,.32.34,2.12,2.12,0,0,0,.88.12h2.67a7.72,7.72,0,0,0,1.94-.17,2.92,2.92,0,0,0,1.16-.68,8.32,8.32,0,0,0,1.48-2h.47l-1.36,3.67H235.43v-.4H236a2.35,2.35,0,0,0,1.06-.25.94.94,0,0,0,.51-.52,4.77,4.77,0,0,0,.13-1.42V35.4a3,3,0,0,0-.3-1.72,1.88,1.88,0,0,0-1.39-.43h-.56v-.4h12.14l.17,3.21h-.45a4.81,4.81,0,0,0-.54-1.59,1.83,1.83,0,0,0-.88-.66,5.63,5.63,0,0,0-1.64-.16Z" transform="translate(-73.91 -14.67)"/><path class="cls-1" d="M260.91,32.51a7.4,7.4,0,0,1,5.31,2.17,7.2,7.2,0,0,1,2.25,5.41,7.41,7.41,0,0,1-2.27,5.54,8,8,0,0,1-10.95.05A7.42,7.42,0,0,1,253,40.12a7.17,7.17,0,0,1,2.56-5.69A7.86,7.86,0,0,1,260.91,32.51Zm-.22.79a4.29,4.29,0,0,0-3.39,1.46,7.84,7.84,0,0,0-1.59,5.31,8.27,8.27,0,0,0,1.65,5.52,4.2,4.2,0,0,0,3.35,1.47,4.71,4.71,0,0,0,3.66-1.61q1.45-1.61,1.45-5.08,0-3.76-1.59-5.61A4.44,4.44,0,0,0,260.69,33.3Z" transform="translate(-73.91 -14.67)"/><path class="cls-1" d="M288.2,47.5H284l-5.33-6.85-1,0h-.32l-.36,0V44.9a2.82,2.82,0,0,0,.32,1.72,1.72,1.72,0,0,0,1.32.48h.62v.4h-6.75v-.4h.59a1.63,1.63,0,0,0,1.43-.61,3.2,3.2,0,0,0,.24-1.59V35.44a2.82,2.82,0,0,0-.33-1.72,1.78,1.78,0,0,0-1.35-.48h-.59v-.4h5.74a14.64,14.64,0,0,1,3.7.34,4.27,4.27,0,0,1,2,1.25,3.12,3.12,0,0,1,.83,2.18,3.29,3.29,0,0,1-.95,2.34,5.49,5.49,0,0,1-2.93,1.4l3.25,4.2a7.75,7.75,0,0,0,1.92,1.92,5.08,5.08,0,0,0,2.09.61ZM277,40h.65a5.39,5.39,0,0,0,3.4-.91,2.83,2.83,0,0,0,1.14-2.31,2.91,2.91,0,0,0-.92-2.23,3.45,3.45,0,0,0-2.44-.86,11,11,0,0,0-1.82.21Z" transform="translate(-73.91 -14.67)"/><path class="cls-1" d="M305.33,32.51l.41,4.62h-.41a6.25,6.25,0,0,0-1.59-2.6,5.2,5.2,0,0,0-3.61-1.26,5.25,5.25,0,0,0-4.58,2.21,7.54,7.54,0,0,0-1.31,4.45,8.37,8.37,0,0,0,.87,3.82,5.74,5.74,0,0,0,5.18,3.34,6.86,6.86,0,0,0,1.68-.21,7,7,0,0,0,1.57-.6V42.05a3.66,3.66,0,0,0-.18-1.44,1.18,1.18,0,0,0-.56-.52,3.46,3.46,0,0,0-1.33-.18V39.5h6.1v.41h-.29a1.33,1.33,0,0,0-1.24.56,3.56,3.56,0,0,0-.23,1.58v4.48a11.52,11.52,0,0,1-5.53,1.3q-4.57,0-6.93-2.72a7,7,0,0,1-1.78-4.71,7.44,7.44,0,0,1,1-3.71,8.2,8.2,0,0,1,3.25-3.24,8.44,8.44,0,0,1,4.09-.94,8.63,8.63,0,0,1,1.56.13,15.11,15.11,0,0,1,2,.57,3.4,3.4,0,0,0,.87.23.48.48,0,0,0,.38-.19,1.37,1.37,0,0,0,.19-.74Z" transform="translate(-73.91 -14.67)"/><path class="cls-1" d="M318,47.1v.4h-6.75v-.4h.56a1.74,1.74,0,0,0,1.42-.53,3.09,3.09,0,0,0,.28-1.66V35.44a4.54,4.54,0,0,0-.15-1.47,1,1,0,0,0-.48-.46,2.34,2.34,0,0,0-1.07-.26h-.56v-.4H318v.4h-.57a1.73,1.73,0,0,0-1.41.53,3,3,0,0,0-.29,1.66V44.9a4.54,4.54,0,0,0,.15,1.47,1,1,0,0,0,.49.46,2.26,2.26,0,0,0,1.06.26Z" transform="translate(-73.91 -14.67)"/><path class="cls-1" d="M332.19,42.59h-6.1L325,44.9a3.46,3.46,0,0,0-.4,1.27.73.73,0,0,0,.34.59,3.19,3.19,0,0,0,1.48.33v.4h-5v-.4a2.8,2.8,0,0,0,1.28-.42,6.52,6.52,0,0,0,1.31-2.11l5.54-12.06H330l5.48,12.19a5.49,5.49,0,0,0,1.2,1.91,2.57,2.57,0,0,0,1.5.49v.4H332v-.4a2.46,2.46,0,0,0,1.27-.29.73.73,0,0,0,.33-.6,4.26,4.26,0,0,0-.46-1.5Zm-.33-.8-2.67-5.92-2.74,5.92Z" transform="translate(-73.91 -14.67)"/><path class="cls-1" d="M81.8,53.81l-.62,1.12-.12-.06a1.06,1.06,0,0,0,.07-.24q0-.13-.32-.28A4.32,4.32,0,0,0,79,53.94a3.08,3.08,0,0,0-1.4.3,1.24,1.24,0,0,0-.46.38.84.84,0,0,0-.17.49.72.72,0,0,0,.13.41.81.81,0,0,0,.34.29A1.9,1.9,0,0,0,78,56q.32,0,1,.06a14,14,0,0,1,1.43.09,2,2,0,0,1,.71.22,1.35,1.35,0,0,1,.74,1.26,1.59,1.59,0,0,1-.67,1.32,3.28,3.28,0,0,1-2.05.57,5,5,0,0,1-1.32-.15,6.87,6.87,0,0,1-1.34-.56,1.17,1.17,0,0,0-.26-.1s-.11.05-.2.16l-.12-.07.65-1.09.12.07a.72.72,0,0,0-.08.24q0,.14.56.43a4.38,4.38,0,0,0,1,.38,4.18,4.18,0,0,0,1,.12,2.52,2.52,0,0,0,1.67-.48,1,1,0,0,0,.38-.77.82.82,0,0,0-.65-.81,1.74,1.74,0,0,0-.43-.09l-1.27-.06a8.29,8.29,0,0,1-1.17-.11,2.49,2.49,0,0,1-.76-.27,1.28,1.28,0,0,1-.49-.49,1.35,1.35,0,0,1-.18-.68A1.45,1.45,0,0,1,76.71,54a2.39,2.39,0,0,1,1-.52A4.53,4.53,0,0,1,79,53.34a4.93,4.93,0,0,1,1.11.12,6.47,6.47,0,0,1,1.16.41l.18.06c.05,0,.12-.06.21-.18Z" transform="translate(-73.91 -14.67)"/><path class="cls-1" d="M87.93,56.62H83.86v2.26a.45.45,0,0,0,.05.26.4.4,0,0,0,.22.12v.14H82.89v-.14a.4.4,0,0,0,.22-.12.45.45,0,0,0,.05-.26V54a.45.45,0,0,0-.06-.26.38.38,0,0,0-.22-.12v-.14h1.24v.14a.4.4,0,0,0-.22.12.44.44,0,0,0-.06.26V56h4.07V54a.45.45,0,0,0-.06-.26.38.38,0,0,0-.22-.12v-.14h1.24v.14a.4.4,0,0,0-.22.12.44.44,0,0,0-.06.26v4.92a.44.44,0,0,0,.06.25.39.39,0,0,0,.22.12v.14H87.65v-.14a.4.4,0,0,0,.22-.12.44.44,0,0,0,.06-.26Z" transform="translate(-73.91 -14.67)"/><path class="cls-1" d="M94.42,57.72H91.24l-.52,1.13a.66.66,0,0,0-.07.23q0,.13.26.17v.14H89.57v-.14a.46.46,0,0,0,.27-.13,1.82,1.82,0,0,0,.25-.44L92.27,54a.7.7,0,0,0,.08-.23c0-.08-.07-.13-.21-.17v-.14h1.45v.14c-.14,0-.21.11-.21.18a.76.76,0,0,0,.08.22l2.09,4.53a3.87,3.87,0,0,0,.3.59.64.64,0,0,0,.32.15v.14H94.75v-.14q.25,0,.25-.19a.82.82,0,0,0-.1-.27Zm-.25-.57-1.34-2.94-1.34,2.94Z" transform="translate(-73.91 -14.67)"/><path class="cls-1" d="M97.74,56.72v2.16a.44.44,0,0,0,.06.25.4.4,0,0,0,.22.12v.14H96.78v-.14a.4.4,0,0,0,.22-.12.44.44,0,0,0,.06-.26V54A.45.45,0,0,0,97,53.7a.38.38,0,0,0-.22-.12v-.14H100a6.21,6.21,0,0,1,1.06.07,2,2,0,0,1,.68.25,1.41,1.41,0,0,1,.48.5,1.61,1.61,0,0,1,.21.82,1.47,1.47,0,0,1-.45,1.11,2,2,0,0,1-1.24.49L102.29,59a.43.43,0,0,0,.39.22v.14H101.3v-.14c.14,0,.21-.06.21-.12a1.08,1.08,0,0,0-.15-.28L100,56.72Zm0-.57h2.41a4.93,4.93,0,0,0,.74,0,1.32,1.32,0,0,0,.44-.15,1.07,1.07,0,0,0,0-1.76,1.35,1.35,0,0,0-.46-.15,5.46,5.46,0,0,0-.78,0H97.74Z" transform="translate(-73.91 -14.67)"/><path class="cls-1" d="M103.91,58.88V54a.45.45,0,0,0-.06-.26.38.38,0,0,0-.22-.12v-.14h1.24v.14a.4.4,0,0,0-.22.12.44.44,0,0,0-.06.26v4.92a.45.45,0,0,0,.05.26.4.4,0,0,0,.22.12v.14h-1.24v-.14a.4.4,0,0,0,.22-.12A.45.45,0,0,0,103.91,58.88Z" transform="translate(-73.91 -14.67)"/><path class="cls-1" d="M107.09,54.2v4.68a.43.43,0,0,0,.06.25.39.39,0,0,0,.22.12v.14h-1.18v-.14a.4.4,0,0,0,.22-.12.45.45,0,0,0,.05-.26V54a.45.45,0,0,0-.06-.26.38.38,0,0,0-.22-.12v-.14h1.71v.14c-.14,0-.21.11-.21.2s.07.17.21.33l3.58,4.19V54a.45.45,0,0,0-.06-.26.38.38,0,0,0-.22-.12v-.14h1.18v.14a.38.38,0,0,0-.22.12.45.45,0,0,0-.06.26v4.92a.44.44,0,0,0,.06.26.4.4,0,0,0,.22.12v.14H111v-.14c.13,0,.2-.09.2-.18a.65.65,0,0,0-.18-.31Z" transform="translate(-73.91 -14.67)"/><path class="cls-1" d="M119.93,54l-.67,1.06-.11-.08a.45.45,0,0,0,.08-.2q0-.13-.47-.38a3.81,3.81,0,0,0-1.84-.49,2.81,2.81,0,0,0-1.84.61,2.29,2.29,0,0,0-.86,1.88,2.27,2.27,0,0,0,.82,1.84,2.89,2.89,0,0,0,1.93.63,3.56,3.56,0,0,0,1.18-.19,2.69,2.69,0,0,0,.94-.54v-1.1h-1.41a.45.45,0,0,0-.26.06.38.38,0,0,0-.12.22h-.14V56.22h.14a.37.37,0,0,0,.12.22.44.44,0,0,0,.26.06H120v.14a.4.4,0,0,0-.22.12.44.44,0,0,0-.06.26v.77a.43.43,0,0,0,.06.26.41.41,0,0,0,.22.12v.12a5.35,5.35,0,0,1-.93.68,4.33,4.33,0,0,1-2.16.53,3.52,3.52,0,0,1-2.41-.81,2.94,2.94,0,0,1-.72-1,3.06,3.06,0,0,1-.3-1.33,2.89,2.89,0,0,1,.59-1.79,3.11,3.11,0,0,1,1.46-1,4.12,4.12,0,0,1,1.39-.23,4.47,4.47,0,0,1,1.21.16,5.62,5.62,0,0,1,1.2.52.8.8,0,0,0,.23.11s.12-.06.21-.18Z" transform="translate(-73.91 -14.67)"/><path class="cls-1" d="M129.65,54,129,55.08l-.11-.08a.45.45,0,0,0,.08-.2q0-.13-.47-.38a3.81,3.81,0,0,0-1.84-.49,2.81,2.81,0,0,0-1.84.61,2.29,2.29,0,0,0-.86,1.88,2.27,2.27,0,0,0,.82,1.84,2.89,2.89,0,0,0,1.93.63,3.56,3.56,0,0,0,1.18-.19,2.69,2.69,0,0,0,.94-.54v-1.1h-1.41a.45.45,0,0,0-.26.06.38.38,0,0,0-.12.22h-.14V56.22H127a.37.37,0,0,0,.12.22.44.44,0,0,0,.26.06h2.34v.14a.4.4,0,0,0-.22.12.44.44,0,0,0-.06.26v.77a.43.43,0,0,0,.06.26.41.41,0,0,0,.22.12v.12a5.35,5.35,0,0,1-.93.68,4.33,4.33,0,0,1-2.16.53,3.52,3.52,0,0,1-2.41-.81,2.94,2.94,0,0,1-.72-1,3.06,3.06,0,0,1-.3-1.33,2.89,2.89,0,0,1,.59-1.79,3.11,3.11,0,0,1,1.46-1,4.12,4.12,0,0,1,1.39-.23,4.47,4.47,0,0,1,1.21.16,5.62,5.62,0,0,1,1.2.52.8.8,0,0,0,.23.11s.12-.06.21-.18Z" transform="translate(-73.91 -14.67)"/><path class="cls-1" d="M131.84,56.62v2.21h3.81a.45.45,0,0,0,.26-.06.38.38,0,0,0,.12-.22h.14v1.12H136a.39.39,0,0,0-.12-.22.44.44,0,0,0-.26-.06h-4.77v-.14a.4.4,0,0,0,.22-.12.45.45,0,0,0,.05-.26V54a.44.44,0,0,0-.06-.26.4.4,0,0,0-.22-.12v-.14h4.72a.44.44,0,0,0,.26-.06.4.4,0,0,0,.12-.22h.14v1.12H136a.38.38,0,0,0-.12-.22.44.44,0,0,0-.26-.06h-3.75v2h2.46a.44.44,0,0,0,.26-.06.38.38,0,0,0,.12-.22h.14v1.12h-.14a.38.38,0,0,0-.12-.22.45.45,0,0,0-.26-.06Z" transform="translate(-73.91 -14.67)"/><path class="cls-1" d="M140.69,53.34a3.77,3.77,0,0,1,2.54.82,2.86,2.86,0,0,1,.81,1.12,3.08,3.08,0,0,1,.22,1.17,2.85,2.85,0,0,1-.48,1.59,3,3,0,0,1-1.48,1.18,4.45,4.45,0,0,1-1.6.27,3.74,3.74,0,0,1-2.52-.82,3,3,0,0,1-.55-3.89,3,3,0,0,1,1.48-1.18A4.62,4.62,0,0,1,140.69,53.34Zm0,.6a2.93,2.93,0,0,0-2.12.75,2.46,2.46,0,0,0,0,3.46,3.4,3.4,0,0,0,4.26,0,2.28,2.28,0,0,0,.71-1.7,2.32,2.32,0,0,0-.71-1.76,2.47,2.47,0,0,0-.92-.56A3.9,3.9,0,0,0,140.69,53.94Z" transform="translate(-73.91 -14.67)"/><path class="cls-1" d="M146.38,56.72v2.16a.44.44,0,0,0,.06.25.4.4,0,0,0,.22.12v.14h-1.24v-.14a.4.4,0,0,0,.22-.12.44.44,0,0,0,.06-.26V54a.45.45,0,0,0-.06-.26.38.38,0,0,0-.22-.12v-.14h3.26a6.21,6.21,0,0,1,1.06.07,2,2,0,0,1,.68.25,1.41,1.41,0,0,1,.48.5,1.61,1.61,0,0,1,.21.82,1.47,1.47,0,0,1-.45,1.11,2,2,0,0,1-1.24.49L150.93,59a.43.43,0,0,0,.39.22v.14h-1.38v-.14c.14,0,.21-.06.21-.12a1.08,1.08,0,0,0-.15-.28l-1.35-2.13Zm0-.57h2.41a4.93,4.93,0,0,0,.74,0A1.32,1.32,0,0,0,150,56a1.07,1.07,0,0,0,0-1.76,1.35,1.35,0,0,0-.46-.15,5.46,5.46,0,0,0-.78,0h-2.35Z" transform="translate(-73.91 -14.67)"/><path class="cls-1" d="M158.47,54l-.67,1.06-.11-.08a.45.45,0,0,0,.08-.2q0-.13-.47-.38a3.81,3.81,0,0,0-1.84-.49,2.81,2.81,0,0,0-1.84.61,2.29,2.29,0,0,0-.86,1.88,2.27,2.27,0,0,0,.82,1.84,2.89,2.89,0,0,0,1.93.63,3.56,3.56,0,0,0,1.18-.19,2.69,2.69,0,0,0,.94-.54v-1.1h-1.41a.45.45,0,0,0-.26.06.38.38,0,0,0-.12.22h-.14V56.22h.14a.37.37,0,0,0,.12.22.44.44,0,0,0,.26.06h2.34v.14a.4.4,0,0,0-.22.12.44.44,0,0,0-.06.26v.77a.43.43,0,0,0,.06.26.41.41,0,0,0,.22.12v.12a5.35,5.35,0,0,1-.93.68,4.33,4.33,0,0,1-2.16.53,3.52,3.52,0,0,1-2.41-.81,2.94,2.94,0,0,1-.72-1,3.06,3.06,0,0,1-.3-1.33,2.89,2.89,0,0,1,.59-1.79,3.11,3.11,0,0,1,1.46-1,4.12,4.12,0,0,1,1.39-.23,4.47,4.47,0,0,1,1.21.16,5.62,5.62,0,0,1,1.2.52.8.8,0,0,0,.23.11s.12-.06.21-.18Z" transform="translate(-73.91 -14.67)"/><path class="cls-1" d="M160,58.88V54a.45.45,0,0,0-.06-.26.38.38,0,0,0-.22-.12v-.14h1.24v.14a.4.4,0,0,0-.22.12.44.44,0,0,0-.06.26v4.92a.45.45,0,0,0,.05.26.4.4,0,0,0,.22.12v.14h-1.24v-.14a.4.4,0,0,0,.22-.12A.45.45,0,0,0,160,58.88Z" transform="translate(-73.91 -14.67)"/><path class="cls-1" d="M166.46,57.72h-3.18l-.52,1.13a.66.66,0,0,0-.07.23q0,.13.26.17v.14h-1.33v-.14a.46.46,0,0,0,.27-.13,1.82,1.82,0,0,0,.25-.44l2.18-4.7a.7.7,0,0,0,.08-.23c0-.08-.07-.13-.21-.17v-.14h1.45v.14c-.14,0-.21.11-.21.18a.76.76,0,0,0,.08.22l2.09,4.53a3.87,3.87,0,0,0,.3.59.64.64,0,0,0,.32.15v.14h-1.41v-.14q.25,0,.25-.19a.82.82,0,0,0-.1-.27Zm-.25-.57-1.34-2.94-1.34,2.94Z" transform="translate(-73.91 -14.67)"/><path class="cls-1" d="M169.71,55.72H169V55.6H169c.11,0,.17,0,.17-.09v0L169,53.73c0-.07,0-.12,0-.13a.66.66,0,0,0-.21,0v-.12H170v.12h-.07a.28.28,0,0,0-.14,0,.21.21,0,0,0,0,.13l-.22,1.73c0,.05,0,.08,0,.09l.21,0Z" transform="translate(-73.91 -14.67)"/><path class="cls-1" d="M176.73,53.81l-.62,1.12-.12-.06a1.06,1.06,0,0,0,.07-.24q0-.13-.32-.28a4.32,4.32,0,0,0-1.86-.41,3.08,3.08,0,0,0-1.4.3,1.24,1.24,0,0,0-.46.38.84.84,0,0,0-.17.49.72.72,0,0,0,.13.41.81.81,0,0,0,.34.29,1.9,1.9,0,0,0,.56.15q.32,0,1,.06a14,14,0,0,1,1.43.09,2,2,0,0,1,.71.22,1.35,1.35,0,0,1,.74,1.26,1.59,1.59,0,0,1-.67,1.32,3.28,3.28,0,0,1-2.05.57,5,5,0,0,1-1.32-.15,6.87,6.87,0,0,1-1.34-.56,1.17,1.17,0,0,0-.26-.1s-.11.05-.2.16l-.12-.07.65-1.09.12.07a.72.72,0,0,0-.08.24q0,.14.56.43a4.38,4.38,0,0,0,1,.38,4.18,4.18,0,0,0,1,.12,2.52,2.52,0,0,0,1.67-.48,1,1,0,0,0,.38-.77.82.82,0,0,0-.65-.81,1.74,1.74,0,0,0-.43-.09l-1.27-.06a8.29,8.29,0,0,1-1.17-.11,2.49,2.49,0,0,1-.76-.27,1.28,1.28,0,0,1-.49-.49,1.35,1.35,0,0,1-.18-.68,1.45,1.45,0,0,1,.47-1.08,2.39,2.39,0,0,1,1-.52,4.53,4.53,0,0,1,1.35-.19,4.93,4.93,0,0,1,1.11.12,6.47,6.47,0,0,1,1.16.41l.18.06c.05,0,.12-.06.21-.18Z" transform="translate(-73.91 -14.67)"/><path class="cls-1" d="M185.09,56.62H181v2.26a.45.45,0,0,0,.05.26.4.4,0,0,0,.22.12v.14h-1.24v-.14a.4.4,0,0,0,.22-.12.45.45,0,0,0,.05-.26V54a.45.45,0,0,0-.06-.26.38.38,0,0,0-.22-.12v-.14h1.24v.14a.4.4,0,0,0-.22.12A.44.44,0,0,0,181,54V56h4.07V54a.45.45,0,0,0-.06-.26.38.38,0,0,0-.22-.12v-.14h1.24v.14a.4.4,0,0,0-.22.12.44.44,0,0,0-.06.26v4.92a.44.44,0,0,0,.06.25.39.39,0,0,0,.22.12v.14h-1.24v-.14a.4.4,0,0,0,.22-.12.44.44,0,0,0,.06-.26Z" transform="translate(-73.91 -14.67)"/><path class="cls-1" d="M187.64,58.88V54a.45.45,0,0,0-.06-.26.38.38,0,0,0-.22-.12v-.14h1.24v.14a.4.4,0,0,0-.22.12.44.44,0,0,0-.06.26v4.92a.45.45,0,0,0,.05.26.4.4,0,0,0,.22.12v.14h-1.24v-.14a.4.4,0,0,0,.22-.12A.45.45,0,0,0,187.64,58.88Z" transform="translate(-73.91 -14.67)"/><path class="cls-1" d="M195.49,53.81l-.62,1.12-.12-.06a1.06,1.06,0,0,0,.07-.24q0-.13-.32-.28a4.32,4.32,0,0,0-1.86-.41,3.08,3.08,0,0,0-1.4.3,1.24,1.24,0,0,0-.46.38.84.84,0,0,0-.17.49.72.72,0,0,0,.13.41.81.81,0,0,0,.34.29,1.9,1.9,0,0,0,.56.15q.32,0,1,.06a14,14,0,0,1,1.43.09,2,2,0,0,1,.71.22,1.35,1.35,0,0,1,.74,1.26,1.59,1.59,0,0,1-.67,1.32,3.28,3.28,0,0,1-2.05.57,5,5,0,0,1-1.32-.15,6.87,6.87,0,0,1-1.34-.56,1.17,1.17,0,0,0-.26-.1s-.11.05-.2.16l-.12-.07.65-1.09.12.07a.72.72,0,0,0-.08.24q0,.14.56.43a4.38,4.38,0,0,0,1,.38,4.18,4.18,0,0,0,1,.12,2.52,2.52,0,0,0,1.67-.48,1,1,0,0,0,.38-.77.82.82,0,0,0-.65-.81,1.74,1.74,0,0,0-.43-.09l-1.27-.06a8.29,8.29,0,0,1-1.17-.11,2.49,2.49,0,0,1-.76-.27,1.28,1.28,0,0,1-.49-.49,1.35,1.35,0,0,1-.18-.68A1.45,1.45,0,0,1,190.4,54a2.39,2.39,0,0,1,1-.52,4.53,4.53,0,0,1,1.35-.19,4.93,4.93,0,0,1,1.11.12,6.47,6.47,0,0,1,1.16.41l.18.06c.05,0,.12-.06.21-.18Z" transform="translate(-73.91 -14.67)"/><path class="cls-1" d="M199.46,54v4.87a.44.44,0,0,0,.06.25.39.39,0,0,0,.22.12v.14H198.5v-.14a.4.4,0,0,0,.22-.12.44.44,0,0,0,.06-.26V54h-2a.46.46,0,0,0-.26.06.38.38,0,0,0-.12.22h-.14V53.17h.14a.37.37,0,0,0,.12.22.45.45,0,0,0,.26.06h4.71a.45.45,0,0,0,.26-.06.37.37,0,0,0,.12-.22H202v1.12h-.14a.37.37,0,0,0-.12-.22.46.46,0,0,0-.26-.06Z" transform="translate(-73.91 -14.67)"/><path class="cls-1" d="M206,53.34a3.77,3.77,0,0,1,2.54.82,2.86,2.86,0,0,1,.81,1.12,3.08,3.08,0,0,1,.22,1.17A2.85,2.85,0,0,1,209,58a3,3,0,0,1-1.48,1.18,4.45,4.45,0,0,1-1.6.27,3.74,3.74,0,0,1-2.52-.82,3,3,0,0,1-.55-3.89,3,3,0,0,1,1.48-1.18A4.62,4.62,0,0,1,206,53.34Zm0,.6a2.93,2.93,0,0,0-2.12.75,2.46,2.46,0,0,0,0,3.46,3.4,3.4,0,0,0,4.26,0,2.28,2.28,0,0,0,.71-1.7,2.32,2.32,0,0,0-.71-1.76,2.47,2.47,0,0,0-.92-.56A3.9,3.9,0,0,0,206,53.94Z" transform="translate(-73.91 -14.67)"/><path class="cls-1" d="M211.65,56.72v2.16a.44.44,0,0,0,.06.25.4.4,0,0,0,.22.12v.14h-1.24v-.14a.4.4,0,0,0,.22-.12.44.44,0,0,0,.06-.26V54a.45.45,0,0,0-.06-.26.38.38,0,0,0-.22-.12v-.14H214a6.21,6.21,0,0,1,1.06.07,2,2,0,0,1,.68.25,1.41,1.41,0,0,1,.48.5,1.61,1.61,0,0,1,.21.82,1.47,1.47,0,0,1-.45,1.11,2,2,0,0,1-1.24.49L216.2,59a.43.43,0,0,0,.39.22v.14h-1.38v-.14c.14,0,.21-.06.21-.12a1.08,1.08,0,0,0-.15-.28l-1.35-2.13Zm0-.57h2.41a4.93,4.93,0,0,0,.74,0,1.32,1.32,0,0,0,.44-.15,1.07,1.07,0,0,0,0-1.76,1.35,1.35,0,0,0-.46-.15,5.46,5.46,0,0,0-.78,0h-2.35Z" transform="translate(-73.91 -14.67)"/><path class="cls-1" d="M220.08,56.76v2.12a.44.44,0,0,0,.06.25.39.39,0,0,0,.22.12v.14h-1.24v-.14a.4.4,0,0,0,.22-.12.44.44,0,0,0,.06-.26V56.76l-1.92-2.52a4.77,4.77,0,0,0-.43-.52.58.58,0,0,0-.3-.14v-.14h1.51v.14c-.14,0-.21.09-.21.17a.85.85,0,0,0,.21.42l1.51,2.06,1.51-2.13a.89.89,0,0,0,.19-.37c0-.07-.06-.12-.19-.16v-.14h1.4v.14a.67.67,0,0,0-.37.19,4.66,4.66,0,0,0-.41.47Z" transform="translate(-73.91 -14.67)"/><path class="cls-1" d="M229.72,57.72h-3.18L226,58.85a.67.67,0,0,0-.07.23c0,.09.09.15.26.17v.14h-1.33v-.14a.46.46,0,0,0,.27-.13,1.83,1.83,0,0,0,.25-.44l2.18-4.7a.72.72,0,0,0,.08-.23c0-.08-.07-.13-.21-.17v-.14h1.45v.14c-.14,0-.21.11-.21.18a.76.76,0,0,0,.08.22l2.09,4.53a3.72,3.72,0,0,0,.3.59.63.63,0,0,0,.32.15v.14H230v-.14q.25,0,.25-.19a.82.82,0,0,0-.1-.27Zm-.25-.57-1.34-2.94-1.34,2.94Z" transform="translate(-73.91 -14.67)"/><path class="cls-1" d="M233,54.2v4.68a.43.43,0,0,0,.06.25.39.39,0,0,0,.22.12v.14h-1.18v-.14a.39.39,0,0,0,.22-.12.45.45,0,0,0,.06-.26V54a.44.44,0,0,0-.06-.26.38.38,0,0,0-.22-.12v-.14h1.71v.14c-.14,0-.2.11-.2.2s.07.17.2.33l3.58,4.19V54a.44.44,0,0,0-.06-.26.38.38,0,0,0-.22-.12v-.14h1.18v.14a.38.38,0,0,0-.22.12A.44.44,0,0,0,238,54v4.92a.43.43,0,0,0,.06.26.4.4,0,0,0,.22.12v.14H236.9v-.14c.13,0,.2-.09.2-.18a.64.64,0,0,0-.18-.31Z" transform="translate(-73.91 -14.67)"/><path class="cls-1" d="M239.86,58.94v-5a.3.3,0,0,0-.06-.2.45.45,0,0,0-.22-.11v-.14h3.14a3.61,3.61,0,0,1,1.63.3,2.44,2.44,0,0,1,1.09,1.14,3.48,3.48,0,0,1,.33,1.53,3.34,3.34,0,0,1-.44,1.75,2.33,2.33,0,0,1-1,.94,3.82,3.82,0,0,1-1.61.29h-3.14v-.14a.45.45,0,0,0,.22-.11A.3.3,0,0,0,239.86,58.94Zm.68-.11h2.15a2.66,2.66,0,0,0,1.4-.29,2,2,0,0,0,.79-1.07,3.2,3.2,0,0,0,.17-1,2.72,2.72,0,0,0-.53-1.72,1.61,1.61,0,0,0-.71-.53,3.3,3.3,0,0,0-1.12-.16h-2.15Z" transform="translate(-73.91 -14.67)"/><path class="cls-1" d="M255.42,54,254.78,55l-.12-.07a.79.79,0,0,0,0-.2q0-.18-.56-.45a3.76,3.76,0,0,0-1.67-.37,2.86,2.86,0,0,0-2,.67,2.27,2.27,0,0,0-.77,1.78,2.32,2.32,0,0,0,.8,1.81,2.75,2.75,0,0,0,1.91.7,3.15,3.15,0,0,0,2-.65q.38-.29.38-.41a.52.52,0,0,0-.07-.2l.1-.08.78.94-.11.09a.34.34,0,0,0-.2-.11.37.37,0,0,0-.17.09,6.84,6.84,0,0,1-.66.45,3.25,3.25,0,0,1-.58.26,4.38,4.38,0,0,1-1.43.22,3.54,3.54,0,0,1-2.44-.84,2.85,2.85,0,0,1-1-2.23,2.9,2.9,0,0,1,.62-1.86,3.46,3.46,0,0,1,2.9-1.23A5,5,0,0,1,255,54l.11,0s.11-.06.2-.17Z" transform="translate(-73.91 -14.67)"/><path class="cls-1" d="M257.56,54v3.29a3.72,3.72,0,0,0,.06.82.82.82,0,0,0,.25.41,2.66,2.66,0,0,0,1.74.42,2.43,2.43,0,0,0,1.82-.49.87.87,0,0,0,.19-.39,4.27,4.27,0,0,0,0-.76V54a.44.44,0,0,0-.06-.25.39.39,0,0,0-.22-.12v-.14h1.18v.14a.38.38,0,0,0-.22.12.45.45,0,0,0-.06.26v3.42a2.94,2.94,0,0,1-.12,1,1.54,1.54,0,0,1-.85.87,4.36,4.36,0,0,1-1.73.28,3.1,3.1,0,0,1-2.26-.64,1.41,1.41,0,0,1-.35-.59,3.18,3.18,0,0,1-.1-.89V54a.45.45,0,0,0-.06-.26.38.38,0,0,0-.22-.12v-.14h1.24v.14a.39.39,0,0,0-.22.12A.44.44,0,0,0,257.56,54Z" transform="translate(-73.91 -14.67)"/><path class="cls-1" d="M264.72,58.82h3.8a.45.45,0,0,0,.26-.06.38.38,0,0,0,.12-.22H269v1.12h-.14a.37.37,0,0,0-.12-.22.44.44,0,0,0-.26-.06h-4.76v-.14a.39.39,0,0,0,.22-.12.45.45,0,0,0,.06-.26V54a.44.44,0,0,0-.06-.26.4.4,0,0,0-.22-.12v-.14H265v.14a.4.4,0,0,0-.22.12.44.44,0,0,0-.06.26Z" transform="translate(-73.91 -14.67)"/><path class="cls-1" d="M271.72,54v4.87a.44.44,0,0,0,.06.25.39.39,0,0,0,.22.12v.14h-1.24v-.14a.4.4,0,0,0,.22-.12.44.44,0,0,0,.06-.26V54h-2a.46.46,0,0,0-.26.06.38.38,0,0,0-.12.22h-.14V53.17h.14a.37.37,0,0,0,.12.22.45.45,0,0,0,.26.06h4.71a.45.45,0,0,0,.26-.06.37.37,0,0,0,.12-.22h.14v1.12h-.14a.38.38,0,0,0-.12-.22.46.46,0,0,0-.26-.06Z" transform="translate(-73.91 -14.67)"/><path class="cls-1" d="M275.83,54v3.29a3.72,3.72,0,0,0,.06.82.82.82,0,0,0,.25.41,2.66,2.66,0,0,0,1.74.42,2.43,2.43,0,0,0,1.82-.49.87.87,0,0,0,.19-.39,4.27,4.27,0,0,0,0-.76V54a.44.44,0,0,0-.06-.25.39.39,0,0,0-.22-.12v-.14h1.18v.14a.38.38,0,0,0-.22.12.45.45,0,0,0-.06.26v3.42a2.94,2.94,0,0,1-.12,1,1.54,1.54,0,0,1-.85.87,4.36,4.36,0,0,1-1.73.28,3.1,3.1,0,0,1-2.26-.64,1.41,1.41,0,0,1-.35-.59,3.18,3.18,0,0,1-.1-.89V54a.45.45,0,0,0-.06-.26.38.38,0,0,0-.22-.12v-.14h1.24v.14a.39.39,0,0,0-.22.12A.44.44,0,0,0,275.83,54Z" transform="translate(-73.91 -14.67)"/><path class="cls-1" d="M283,56.72v2.16a.43.43,0,0,0,.06.25.39.39,0,0,0,.22.12v.14H282v-.14a.4.4,0,0,0,.22-.12.43.43,0,0,0,.06-.26V54a.44.44,0,0,0-.06-.26.38.38,0,0,0-.22-.12v-.14h3.26a6.2,6.2,0,0,1,1.06.07,1.94,1.94,0,0,1,.68.25,1.4,1.4,0,0,1,.48.5,1.6,1.6,0,0,1,.21.82,1.47,1.47,0,0,1-.45,1.11,2,2,0,0,1-1.24.49L287.54,59a.43.43,0,0,0,.39.22v.14h-1.38v-.14c.14,0,.21-.06.21-.12a1.06,1.06,0,0,0-.15-.28l-1.35-2.13Zm0-.57h2.41a4.94,4.94,0,0,0,.74,0,1.32,1.32,0,0,0,.44-.15,1.07,1.07,0,0,0,0-1.76,1.35,1.35,0,0,0-.46-.15,5.47,5.47,0,0,0-.78,0H283Z" transform="translate(-73.91 -14.67)"/><path class="cls-1" d="M289.85,56.62v2.21h3.81a.45.45,0,0,0,.26-.06.38.38,0,0,0,.12-.22h.14v1.12H294a.39.39,0,0,0-.12-.22.44.44,0,0,0-.26-.06h-4.77v-.14a.39.39,0,0,0,.22-.12.45.45,0,0,0,.06-.26V54a.44.44,0,0,0-.06-.26.4.4,0,0,0-.22-.12v-.14h4.72a.44.44,0,0,0,.26-.06.4.4,0,0,0,.12-.22h.14v1.12H294a.38.38,0,0,0-.12-.22.44.44,0,0,0-.26-.06h-3.75v2h2.46a.44.44,0,0,0,.26-.06.38.38,0,0,0,.12-.22h.14v1.12h-.14a.38.38,0,0,0-.12-.22.45.45,0,0,0-.26-.06Z" transform="translate(-73.91 -14.67)"/><path class="cls-1" d="M300.94,53.34a3.77,3.77,0,0,1,2.54.82,2.86,2.86,0,0,1,.81,1.12,3.09,3.09,0,0,1,.22,1.17A2.85,2.85,0,0,1,304,58a3,3,0,0,1-1.48,1.18,4.46,4.46,0,0,1-1.6.27,3.73,3.73,0,0,1-2.52-.82,3,3,0,0,1-.55-3.89,3,3,0,0,1,1.48-1.18A4.62,4.62,0,0,1,300.94,53.34Zm0,.6a2.93,2.93,0,0,0-2.12.75,2.46,2.46,0,0,0,0,3.46,3.4,3.4,0,0,0,4.26,0,2.27,2.27,0,0,0,.71-1.7,2.31,2.31,0,0,0-.71-1.76,2.47,2.47,0,0,0-.91-.56A3.9,3.9,0,0,0,300.94,53.94Z" transform="translate(-73.91 -14.67)"/><path class="cls-1" d="M306.57,54.2v4.68a.43.43,0,0,0,.06.25.39.39,0,0,0,.22.12v.14h-1.18v-.14a.39.39,0,0,0,.22-.12.45.45,0,0,0,.06-.26V54a.44.44,0,0,0-.06-.26.38.38,0,0,0-.22-.12v-.14h1.71v.14c-.14,0-.2.11-.2.2s.07.17.2.33L311,58.3V54a.44.44,0,0,0-.06-.26.38.38,0,0,0-.22-.12v-.14h1.18v.14a.38.38,0,0,0-.22.12.44.44,0,0,0-.06.26v4.92a.43.43,0,0,0,.06.26.4.4,0,0,0,.22.12v.14h-1.37v-.14c.13,0,.2-.09.2-.18a.64.64,0,0,0-.18-.31Z" transform="translate(-73.91 -14.67)"/><path class="cls-1" d="M314.13,58.82h3.8a.45.45,0,0,0,.26-.06.38.38,0,0,0,.12-.22h.14v1.12h-.14a.37.37,0,0,0-.12-.22.44.44,0,0,0-.26-.06h-4.76v-.14a.39.39,0,0,0,.22-.12.45.45,0,0,0,.06-.26V54a.44.44,0,0,0-.06-.26.4.4,0,0,0-.22-.12v-.14h1.24v.14a.4.4,0,0,0-.22.12.44.44,0,0,0-.06.26Z" transform="translate(-73.91 -14.67)"/><path class="cls-1" d="M319.5,58.88V54a.44.44,0,0,0-.06-.26.38.38,0,0,0-.22-.12v-.14h1.24v.14a.4.4,0,0,0-.22.12.44.44,0,0,0-.06.26v4.92a.45.45,0,0,0,.06.26.39.39,0,0,0,.22.12v.14h-1.24v-.14a.39.39,0,0,0,.22-.12A.45.45,0,0,0,319.5,58.88Z" transform="translate(-73.91 -14.67)"/><path class="cls-1" d="M322.67,54.2v4.68a.43.43,0,0,0,.06.25.39.39,0,0,0,.22.12v.14h-1.18v-.14a.39.39,0,0,0,.22-.12.45.45,0,0,0,.06-.26V54a.44.44,0,0,0-.06-.26.38.38,0,0,0-.22-.12v-.14h1.71v.14c-.14,0-.2.11-.2.2s.07.17.2.33l3.58,4.19V54a.44.44,0,0,0-.06-.26.38.38,0,0,0-.22-.12v-.14H328v.14a.38.38,0,0,0-.22.12.44.44,0,0,0-.06.26v4.92a.43.43,0,0,0,.06.26.4.4,0,0,0,.22.12v.14h-1.37v-.14c.13,0,.2-.09.2-.18a.64.64,0,0,0-.18-.31Z" transform="translate(-73.91 -14.67)"/><path class="cls-1" d="M330.23,56.62v2.21H334a.45.45,0,0,0,.26-.06.38.38,0,0,0,.12-.22h.14v1.12h-.14a.39.39,0,0,0-.12-.22.44.44,0,0,0-.26-.06h-4.77v-.14a.39.39,0,0,0,.22-.12.45.45,0,0,0,.06-.26V54a.44.44,0,0,0-.06-.26.4.4,0,0,0-.22-.12v-.14H334a.44.44,0,0,0,.26-.06.4.4,0,0,0,.12-.22h.14v1.12h-.14a.38.38,0,0,0-.12-.22A.44.44,0,0,0,334,54h-3.75v2h2.46A.44.44,0,0,0,333,56a.38.38,0,0,0,.12-.22h.14v1.12h-.14a.38.38,0,0,0-.12-.22.45.45,0,0,0-.26-.06Z" transform="translate(-73.91 -14.67)"/></svg>