<svg xmlns="http://www.w3.org/2000/svg" width="193.51" height="45" viewBox="0 0 193.51 45"><defs><style>.cls-1{fill:#333;}.cls-2{fill:#25408f;}.cls-3{fill:#23317d;}.cls-4{fill:#27357f;}.cls-5{fill:#2b3981;}.cls-6{fill:#2f3d83;}.cls-7{fill:#334186;}.cls-8{fill:#374588;}.cls-9{fill:#3b498a;}.cls-10{fill:#3f4d8d;}.cls-11{fill:#44518f;}.cls-12{fill:#485591;}.cls-13{fill:#4d5a94;}.cls-14{fill:#515e97;}.cls-15{fill:#566399;}.cls-16{fill:#5a689c;}.cls-17{fill:#5f6d9f;}.cls-18{fill:#6473a2;}.cls-19{fill:#6978a5;}.cls-20{fill:#6d7ea8;}.cls-21{fill:#7284ab;}.cls-22{fill:#788baf;}.cls-23{fill:#7d91b2;}.cls-24{fill:#8398b5;}.cls-25{fill:#899fb9;}</style></defs><title>logo-galileo</title><g id="Layer_2" data-name="Layer 2"><path class="cls-1" d="M379,425.09a1.35,1.35,0,0,1,.55.54,1.46,1.46,0,0,1,0,1.46,1.37,1.37,0,0,1-.54.54,1.46,1.46,0,0,1-1.46,0,1.38,1.38,0,0,1-.54-.54,1.46,1.46,0,0,1,0-1.46,1.37,1.37,0,0,1,.55-.54,1.46,1.46,0,0,1,1.44,0Zm-1.58-.25a1.61,1.61,0,0,0-.66.65,1.75,1.75,0,0,0,0,1.75,1.63,1.63,0,0,0,.65.65,1.76,1.76,0,0,0,1.74,0,1.63,1.63,0,0,0,.65-.65,1.76,1.76,0,0,0,0-1.75,1.61,1.61,0,0,0-.65-.65,1.75,1.75,0,0,0-1.72,0Zm.41,2.5v-.81H378a.37.37,0,0,1,.24.06,1.67,1.67,0,0,1,.31.44l.17.3h.37l-.23-.37a2.18,2.18,0,0,0-.28-.38.52.52,0,0,0-.16-.1.58.58,0,0,0,.39-.17A.5.5,0,0,0,379,426a.48.48,0,0,0-.09-.28.47.47,0,0,0-.24-.18,1.59,1.59,0,0,0-.48-.05h-.65v1.89Zm0-1.63h.35a1,1,0,0,1,.3,0,.28.28,0,0,1,.13.1.27.27,0,0,1,0,.36.59.59,0,0,1-.36.08h-.37Z" transform="translate(-186.54 -395.47)"/><path class="cls-2" d="M298.63,412.18" transform="translate(-186.54 -395.47)"/><path class="cls-3" d="M298.63,412.18" transform="translate(-186.54 -395.47)"/><path class="cls-4" d="M298.63,412.18" transform="translate(-186.54 -395.47)"/><path class="cls-5" d="M298.63,412.18" transform="translate(-186.54 -395.47)"/><path class="cls-6" d="M298.63,412.18" transform="translate(-186.54 -395.47)"/><path class="cls-7" d="M298.63,412.18" transform="translate(-186.54 -395.47)"/><path class="cls-8" d="M298.63,412.18" transform="translate(-186.54 -395.47)"/><path class="cls-9" d="M298.63,412.18" transform="translate(-186.54 -395.47)"/><path class="cls-10" d="M298.63,412.18" transform="translate(-186.54 -395.47)"/><path class="cls-11" d="M298.63,412.18" transform="translate(-186.54 -395.47)"/><path class="cls-12" d="M298.63,412.18" transform="translate(-186.54 -395.47)"/><path class="cls-13" d="M298.63,412.18" transform="translate(-186.54 -395.47)"/><path class="cls-14" d="M298.63,412.18" transform="translate(-186.54 -395.47)"/><path class="cls-15" d="M298.63,412.18" transform="translate(-186.54 -395.47)"/><path class="cls-16" d="M298.63,412.18" transform="translate(-186.54 -395.47)"/><path class="cls-17" d="M298.63,412.18" transform="translate(-186.54 -395.47)"/><path class="cls-18" d="M298.63,412.18" transform="translate(-186.54 -395.47)"/><path class="cls-19" d="M298.63,412.18" transform="translate(-186.54 -395.47)"/><path class="cls-20" d="M298.63,412.18" transform="translate(-186.54 -395.47)"/><path class="cls-21" d="M298.63,412.18" transform="translate(-186.54 -395.47)"/><path class="cls-22" d="M298.63,412.18" transform="translate(-186.54 -395.47)"/><path class="cls-23" d="M298.63,412.18" transform="translate(-186.54 -395.47)"/><path class="cls-24" d="M298.63,412.18" transform="translate(-186.54 -395.47)"/><path class="cls-25" d="M298.63,412.18" transform="translate(-186.54 -395.47)"/><rect class="cls-1" x="0.02" y="34.32" width="193.28" height="0.62"/><path class="cls-2" d="M295.66,408.24" transform="translate(-186.54 -395.47)"/><path class="cls-3" d="M295.66,408.24" transform="translate(-186.54 -395.47)"/><path class="cls-4" d="M295.66,408.24" transform="translate(-186.54 -395.47)"/><path class="cls-5" d="M295.66,408.24" transform="translate(-186.54 -395.47)"/><path class="cls-6" d="M295.66,408.24" transform="translate(-186.54 -395.47)"/><path class="cls-7" d="M295.66,408.24" transform="translate(-186.54 -395.47)"/><path class="cls-8" d="M295.66,408.24" transform="translate(-186.54 -395.47)"/><path class="cls-9" d="M295.66,408.24" transform="translate(-186.54 -395.47)"/><path class="cls-10" d="M295.66,408.24" transform="translate(-186.54 -395.47)"/><path class="cls-11" d="M295.66,408.24" transform="translate(-186.54 -395.47)"/><path class="cls-12" d="M295.66,408.24" transform="translate(-186.54 -395.47)"/><path class="cls-13" d="M295.66,408.24" transform="translate(-186.54 -395.47)"/><path class="cls-14" d="M295.66,408.24" transform="translate(-186.54 -395.47)"/><path class="cls-15" d="M295.66,408.24" transform="translate(-186.54 -395.47)"/><path class="cls-16" d="M295.66,408.24" transform="translate(-186.54 -395.47)"/><path class="cls-17" d="M295.66,408.24" transform="translate(-186.54 -395.47)"/><path class="cls-18" d="M295.66,408.24" transform="translate(-186.54 -395.47)"/><path class="cls-19" d="M295.66,408.24" transform="translate(-186.54 -395.47)"/><path class="cls-20" d="M295.66,408.24" transform="translate(-186.54 -395.47)"/><path class="cls-21" d="M295.66,408.24" transform="translate(-186.54 -395.47)"/><path class="cls-22" d="M295.66,408.24" transform="translate(-186.54 -395.47)"/><path class="cls-23" d="M295.66,408.24" transform="translate(-186.54 -395.47)"/><path class="cls-24" d="M295.66,408.24" transform="translate(-186.54 -395.47)"/><path class="cls-25" d="M295.66,408.24" transform="translate(-186.54 -395.47)"/><path class="cls-1" d="M190,433.89l1,2.6H189Zm-1.94,4.89.66-1.66h2.55l.65,1.66h.91l-2.34-6h-.84l-2.38,6Z" transform="translate(-186.54 -395.47)"/><path class="cls-1" d="M193.77,438.78v-4.4h.8v.83a1.85,1.85,0,0,1,1.55-.92,1.19,1.19,0,0,1,.92.36,1.37,1.37,0,0,1,.34,1v3.16h-.8v-2.9a1.27,1.27,0,0,0-.14-.7A.54.54,0,0,0,196,435a1.77,1.77,0,0,0-1.39,1v2.85Z" transform="translate(-186.54 -395.47)"/><path class="cls-1" d="M201.52,438.78v-6h.85v6Z" transform="translate(-186.54 -395.47)"/><path class="cls-1" d="M203.93,438.78v-4.4h.8v.83a1.85,1.85,0,0,1,1.55-.92,1.19,1.19,0,0,1,.92.36,1.37,1.37,0,0,1,.34,1v3.16h-.8v-2.9a1.27,1.27,0,0,0-.14-.7.54.54,0,0,0-.48-.21,1.77,1.77,0,0,0-1.39,1v2.85Z" transform="translate(-186.54 -395.47)"/><path class="cls-1" d="M209.09,438.78v-4.4h.8v4.4Zm0-5.21v-.8h.8v.8Z" transform="translate(-186.54 -395.47)"/><path class="cls-1" d="M213.44,438.78a2.46,2.46,0,0,1-.64.1,1.27,1.27,0,0,1-.95-.35,1.33,1.33,0,0,1-.34-1V435H211v-.6h.55v-.8l.8-.08v.88h1.15v.6h-1.15v2.44q0,.86.75.86a1.74,1.74,0,0,0,.39-.05Z" transform="translate(-186.54 -395.47)"/><path class="cls-1" d="M214.59,438.78v-4.4h.8v4.4Zm0-5.21v-.8h.8v.8Z" transform="translate(-186.54 -395.47)"/><path class="cls-1" d="M218.11,438.23a.69.69,0,0,1-.5-.2.65.65,0,0,1-.2-.48.74.74,0,0,1,.41-.65,2.07,2.07,0,0,1,1.08-.25h.26v1.14A1.67,1.67,0,0,1,218.11,438.23Zm1.87.65a1.37,1.37,0,0,0,.6-.13l-.06-.44-.15,0q-.42,0-.42-.68v-2a1.36,1.36,0,0,0-.35-1,1.52,1.52,0,0,0-1.08-.33,4.1,4.1,0,0,0-1.52.32v.65a3,3,0,0,1,1.36-.37q.8,0,.8.77v.53H219a3.26,3.26,0,0,0-1.74.39,1.23,1.23,0,0,0-.61,1.11,1.14,1.14,0,0,0,.36.86,1.27,1.27,0,0,0,.91.34,2.1,2.1,0,0,0,1.38-.66Q219.42,438.88,220,438.88Z" transform="translate(-186.54 -395.47)"/><path class="cls-1" d="M223.53,438.78a2.46,2.46,0,0,1-.64.1,1.27,1.27,0,0,1-.95-.35,1.33,1.33,0,0,1-.34-1V435h-.55v-.6h.55v-.8l.8-.08v.88h1.15v.6H222.4v2.44q0,.86.75.86a1.74,1.74,0,0,0,.39-.05Z" transform="translate(-186.54 -395.47)"/><path class="cls-1" d="M224.68,438.78v-4.4h.8v4.4Zm0-5.21v-.8h.8v.8Z" transform="translate(-186.54 -395.47)"/><path class="cls-1" d="M228,438.78l-1.64-4.4h.8l1.27,3.41,1.35-3.41h.76l-1.74,4.4Z" transform="translate(-186.54 -395.47)"/><path class="cls-1" d="M232.91,434.89q.92,0,.92,1.22h-1.95Q232,434.89,232.91,434.89Zm1.7,3.11a3.55,3.55,0,0,1-1.22.28q-1.36,0-1.54-1.57h2.78v-.24a2.61,2.61,0,0,0-.44-1.61,1.47,1.47,0,0,0-1.24-.57,1.74,1.74,0,0,0-1.39.64,2.45,2.45,0,0,0-.54,1.64,2.33,2.33,0,0,0,.61,1.67,2.09,2.09,0,0,0,1.59.64,4.92,4.92,0,0,0,1.37-.24Z" transform="translate(-186.54 -395.47)"/><path class="cls-1" d="M239.46,437.83a2.57,2.57,0,0,1,0-2.5,1.18,1.18,0,0,1,1.84,0,2.56,2.56,0,0,1,0,2.5,1.17,1.17,0,0,1-1.84,0Zm2.45.43a2.78,2.78,0,0,0,0-3.36,2.21,2.21,0,0,0-3.07,0,2.78,2.78,0,0,0,0,3.36,2.21,2.21,0,0,0,3.07,0Z" transform="translate(-186.54 -395.47)"/><path class="cls-1" d="M243.87,438.78V435h-.62v-.6h.62v-.53q0-1.58,1.43-1.58a3.75,3.75,0,0,1,.91.13V433a3.11,3.11,0,0,0-.87-.17.64.64,0,0,0-.54.19,1.21,1.21,0,0,0-.14.7v.61h1.1v.6h-1.1v3.8Z" transform="translate(-186.54 -395.47)"/><path class="cls-1" d="M251.36,438.78a2.46,2.46,0,0,1-.64.1,1.27,1.27,0,0,1-.95-.35,1.33,1.33,0,0,1-.34-1V435h-.55v-.6h.55v-.8l.8-.08v.88h1.15v.6h-1.15v2.44q0,.86.75.86a1.74,1.74,0,0,0,.39-.05Z" transform="translate(-186.54 -395.47)"/><path class="cls-1" d="M252.5,438.78v-6.4h.8v2.83a1.85,1.85,0,0,1,1.55-.92,1.19,1.19,0,0,1,.92.36,1.37,1.37,0,0,1,.34,1v3.16h-.8v-2.9a1.27,1.27,0,0,0-.14-.7.54.54,0,0,0-.48-.21,1.77,1.77,0,0,0-1.39,1v2.85Z" transform="translate(-186.54 -395.47)"/><path class="cls-1" d="M259.19,434.89q.92,0,.92,1.22h-1.95Q258.27,434.89,259.19,434.89Zm1.7,3.11a3.55,3.55,0,0,1-1.22.28q-1.36,0-1.54-1.57h2.78v-.24a2.61,2.61,0,0,0-.44-1.61,1.47,1.47,0,0,0-1.24-.57,1.74,1.74,0,0,0-1.39.64,2.45,2.45,0,0,0-.54,1.64,2.33,2.33,0,0,0,.61,1.67,2.09,2.09,0,0,0,1.59.64,4.92,4.92,0,0,0,1.37-.24Z" transform="translate(-186.54 -395.47)"/><path class="cls-1" d="M264.83,432.78h.85v3.79a2.08,2.08,0,0,0,.33,1.31,1.29,1.29,0,0,0,1.06.41,1.2,1.2,0,0,0,1-.39,2.2,2.2,0,0,0,.3-1.31v-3.81h.75v3.8a3.68,3.68,0,0,1-.15,1.21,1.69,1.69,0,0,1-.56.74,2.68,2.68,0,0,1-3.06-.18,2.56,2.56,0,0,1-.54-1.8Z" transform="translate(-186.54 -395.47)"/><path class="cls-1" d="M270.66,438.78v-4.4h.8v.83a1.85,1.85,0,0,1,1.55-.92,1.19,1.19,0,0,1,.92.36,1.37,1.37,0,0,1,.34,1v3.16h-.8v-2.9a1.27,1.27,0,0,0-.14-.7.54.54,0,0,0-.48-.21,1.77,1.77,0,0,0-1.39,1v2.85Z" transform="translate(-186.54 -395.47)"/><path class="cls-1" d="M275.81,438.78v-4.4h.8v4.4Zm0-5.21v-.8h.8v.8Z" transform="translate(-186.54 -395.47)"/><path class="cls-1" d="M279.12,438.78l-1.64-4.4h.8l1.27,3.41,1.35-3.41h.76l-1.74,4.4Z" transform="translate(-186.54 -395.47)"/><path class="cls-1" d="M284,434.89q.92,0,.92,1.22H283Q283.12,434.89,284,434.89Zm1.7,3.11a3.55,3.55,0,0,1-1.22.28q-1.36,0-1.54-1.57h2.78v-.24a2.61,2.61,0,0,0-.44-1.61,1.47,1.47,0,0,0-1.24-.57,1.73,1.73,0,0,0-1.39.64,2.45,2.45,0,0,0-.54,1.64,2.33,2.33,0,0,0,.61,1.67,2.09,2.09,0,0,0,1.59.64,4.92,4.92,0,0,0,1.37-.24Z" transform="translate(-186.54 -395.47)"/><path class="cls-1" d="M287.13,438.78v-4.4h.8v.83a1.5,1.5,0,0,1,1.38-.92l.26,0v.75a1.19,1.19,0,0,0-.37-.07,1.48,1.48,0,0,0-1.27.9v2.89Z" transform="translate(-186.54 -395.47)"/><path class="cls-1" d="M290.37,438.62v-.73a3.15,3.15,0,0,0,1.36.39.87.87,0,0,0,.57-.19.58.58,0,0,0,.23-.46q0-.41-.63-.67l-.46-.2q-1-.43-1-1.23a1.1,1.1,0,0,1,.41-.9,1.72,1.72,0,0,1,1.11-.33,5.26,5.26,0,0,1,.91.1l.17,0v.67a4,4,0,0,0-1.06-.19.93.93,0,0,0-.56.15.48.48,0,0,0-.21.41q0,.36.58.61l.38.16a2.58,2.58,0,0,1,.92.58,1.11,1.11,0,0,1,.27.76,1.17,1.17,0,0,1-.46,1,1.79,1.79,0,0,1-1.17.37A4.34,4.34,0,0,1,290.37,438.62Z" transform="translate(-186.54 -395.47)"/><path class="cls-1" d="M294.75,438.78v-4.4h.8v4.4Zm0-5.21v-.8h.8v.8Z" transform="translate(-186.54 -395.47)"/><path class="cls-1" d="M299.11,438.78a2.46,2.46,0,0,1-.64.1,1.27,1.27,0,0,1-.95-.35,1.33,1.33,0,0,1-.34-1V435h-.55v-.6h.55v-.8l.8-.08v.88h1.15v.6H298v2.44q0,.86.75.86a1.74,1.74,0,0,0,.39-.05Z" transform="translate(-186.54 -395.47)"/><path class="cls-1" d="M300.51,440.38l.72-1.61-1.7-4.4h.85l1.26,3.32,1.35-3.32h.76l-2.4,6Z" transform="translate(-186.54 -395.47)"/><path class="cls-1" d="M306.83,438.67v-.84a4.24,4.24,0,0,0,1.67.46,1.19,1.19,0,0,0,.8-.27.87.87,0,0,0,.31-.69.92.92,0,0,0-.2-.6,2.64,2.64,0,0,0-.74-.55l-.41-.24a3.9,3.9,0,0,1-1.08-.82,1.39,1.39,0,0,1-.31-.9,1.47,1.47,0,0,1,.5-1.14,1.85,1.85,0,0,1,1.28-.45,5.06,5.06,0,0,1,1.46.23v.78a4.37,4.37,0,0,0-1.41-.37,1.11,1.11,0,0,0-.73.23.73.73,0,0,0-.29.59.76.76,0,0,0,.21.53,3.34,3.34,0,0,0,.77.55l.43.24a3.74,3.74,0,0,1,1.08.83,1.49,1.49,0,0,1,.31.94,1.55,1.55,0,0,1-.57,1.26,2.33,2.33,0,0,1-1.53.47A6.06,6.06,0,0,1,306.83,438.67Z" transform="translate(-186.54 -395.47)"/><path class="cls-1" d="M311.94,440.38l.72-1.61-1.7-4.4h.85l1.26,3.32,1.35-3.32h.76l-2.4,6Z" transform="translate(-186.54 -395.47)"/><path class="cls-1" d="M315.87,438.62v-.73a3.15,3.15,0,0,0,1.36.39.87.87,0,0,0,.57-.19.58.58,0,0,0,.23-.46q0-.41-.63-.67l-.46-.2q-1-.43-1-1.23a1.1,1.1,0,0,1,.41-.9,1.72,1.72,0,0,1,1.11-.33,5.26,5.26,0,0,1,.91.1l.17,0v.67a4,4,0,0,0-1.06-.19.92.92,0,0,0-.56.15.48.48,0,0,0-.21.41q0,.36.58.61l.38.16a2.58,2.58,0,0,1,.92.58,1.11,1.11,0,0,1,.27.76,1.18,1.18,0,0,1-.46,1,1.79,1.79,0,0,1-1.17.37A4.34,4.34,0,0,1,315.87,438.62Z" transform="translate(-186.54 -395.47)"/><path class="cls-1" d="M322.22,438.78a2.46,2.46,0,0,1-.64.1,1.27,1.27,0,0,1-.95-.35,1.33,1.33,0,0,1-.34-1V435h-.55v-.6h.55v-.8l.8-.08v.88h1.15v.6h-1.15v2.44q0,.86.75.86a1.74,1.74,0,0,0,.39-.05Z" transform="translate(-186.54 -395.47)"/><path class="cls-1" d="M324.9,434.89q.92,0,.92,1.22h-1.95Q324,434.89,324.9,434.89Zm1.7,3.11a3.55,3.55,0,0,1-1.22.28q-1.36,0-1.54-1.57h2.78v-.24a2.61,2.61,0,0,0-.44-1.61,1.47,1.47,0,0,0-1.24-.57,1.73,1.73,0,0,0-1.39.64,2.45,2.45,0,0,0-.54,1.64,2.33,2.33,0,0,0,.61,1.67,2.09,2.09,0,0,0,1.59.64,4.92,4.92,0,0,0,1.37-.24Z" transform="translate(-186.54 -395.47)"/><path class="cls-1" d="M328,438.78v-4.4h.8v.83a1.72,1.72,0,0,1,1.5-.92,1.2,1.2,0,0,1,1.2.92,1.69,1.69,0,0,1,1.47-.92,1.18,1.18,0,0,1,.9.34,1.34,1.34,0,0,1,.32,1v3.19h-.8v-3.06q0-.75-.6-.75a1.82,1.82,0,0,0-1.3.87v2.93h-.8v-3.07q0-.76-.61-.76t-1.29.88v2.94Z" transform="translate(-186.54 -395.47)"/><path class="cls-1" d="M339.2,437.83a2.57,2.57,0,0,1,0-2.5,1.18,1.18,0,0,1,1.84,0,2.56,2.56,0,0,1,0,2.5,1.17,1.17,0,0,1-1.84,0Zm2.45.43a2.78,2.78,0,0,0,0-3.36,2.21,2.21,0,0,0-3.07,0,2.78,2.78,0,0,0,0,3.36,2.21,2.21,0,0,0,3.07,0Z" transform="translate(-186.54 -395.47)"/><path class="cls-1" d="M343.61,438.78V435H343v-.6h.62v-.53q0-1.58,1.43-1.58a3.75,3.75,0,0,1,.91.13V433a3.11,3.11,0,0,0-.87-.17.64.64,0,0,0-.54.19,1.21,1.21,0,0,0-.14.7v.61h1.1v.6h-1.1v3.8Z" transform="translate(-186.54 -395.47)"/><path class="cls-1" d="M353.63,438.61a7.07,7.07,0,0,1-1.9.31,2.87,2.87,0,0,1-2.2-.81,3.91,3.91,0,0,1,0-4.66,2.85,2.85,0,0,1,2.18-.83,7.24,7.24,0,0,1,1.89.27v.79a6.54,6.54,0,0,0-1.9-.42,1.84,1.84,0,0,0-1.51.66,2.86,2.86,0,0,0-.54,1.86,2.72,2.72,0,0,0,.57,1.85,2,2,0,0,0,1.61.66,3.16,3.16,0,0,0,.92-.15v-2h.85Z" transform="translate(-186.54 -395.47)"/><path class="cls-1" d="M356.68,434.89q.92,0,.92,1.22h-1.95Q355.75,434.89,356.68,434.89Zm1.7,3.11a3.55,3.55,0,0,1-1.22.28q-1.36,0-1.54-1.57h2.78v-.24a2.61,2.61,0,0,0-.44-1.61,1.47,1.47,0,0,0-1.24-.57,1.73,1.73,0,0,0-1.39.64,2.45,2.45,0,0,0-.54,1.64,2.33,2.33,0,0,0,.61,1.67,2.09,2.09,0,0,0,1.59.64,4.92,4.92,0,0,0,1.37-.24Z" transform="translate(-186.54 -395.47)"/><path class="cls-1" d="M360.6,437.83a2.57,2.57,0,0,1,0-2.5,1.18,1.18,0,0,1,1.84,0,2.56,2.56,0,0,1,0,2.5,1.17,1.17,0,0,1-1.84,0Zm2.45.43a2.78,2.78,0,0,0,0-3.36,2.21,2.21,0,0,0-3.07,0,2.78,2.78,0,0,0,0,3.36,2.21,2.21,0,0,0,3.07,0Z" transform="translate(-186.54 -395.47)"/><path class="cls-1" d="M364.86,438.78v-4.4h.8v.83a1.5,1.5,0,0,1,1.38-.92l.26,0v.75a1.19,1.19,0,0,0-.37-.07,1.48,1.48,0,0,0-1.27.9v2.89Z" transform="translate(-186.54 -395.47)"/><path class="cls-1" d="M369.79,438q-1,0-1-1.43a2.08,2.08,0,0,1,.31-1.22,1,1,0,0,1,.86-.44,1.58,1.58,0,0,1,1.15.54v1.82A1.73,1.73,0,0,1,369.79,438Zm0,2.5a2.15,2.15,0,0,0,1.63-.55,1.67,1.67,0,0,0,.4-.81,7.87,7.87,0,0,0,.11-1.53v-3.2h-.8v.51a1.64,1.64,0,0,0-1.27-.6,1.71,1.71,0,0,0-1.38.63,2.45,2.45,0,0,0-.53,1.63,2.39,2.39,0,0,0,.47,1.55,1.55,1.55,0,0,0,1.27.57,1.57,1.57,0,0,0,.85-.24,1.59,1.59,0,0,0,.59-.68v.69q0,1.43-1.35,1.43a3.3,3.3,0,0,1-1.37-.31l-.09.69A4.67,4.67,0,0,0,369.74,440.47Z" transform="translate(-186.54 -395.47)"/><path class="cls-1" d="M373.43,438.78v-4.4h.8v4.4Zm0-5.21v-.8h.8v.8Z" transform="translate(-186.54 -395.47)"/><path class="cls-1" d="M376.95,438.23a.69.69,0,0,1-.5-.2.65.65,0,0,1-.2-.48.74.74,0,0,1,.41-.65,2.07,2.07,0,0,1,1.08-.25H378v1.14A1.67,1.67,0,0,1,376.95,438.23Zm1.87.65a1.37,1.37,0,0,0,.6-.13l-.06-.44-.15,0q-.42,0-.42-.68v-2a1.36,1.36,0,0,0-.35-1,1.52,1.52,0,0,0-1.08-.33,4.1,4.1,0,0,0-1.52.32v.65a3,3,0,0,1,1.36-.37q.8,0,.8.77v.53h-.19a3.26,3.26,0,0,0-1.74.39,1.23,1.23,0,0,0-.61,1.11,1.14,1.14,0,0,0,.36.86,1.27,1.27,0,0,0,.91.34,2.1,2.1,0,0,0,1.38-.66Q378.26,438.88,378.82,438.88Z" transform="translate(-186.54 -395.47)"/><path class="cls-1" d="M258,402.15a7.55,7.55,0,0,1-2,.33,3.07,3.07,0,0,1-2.35-.87,4.19,4.19,0,0,1,0-5,3.05,3.05,0,0,1,2.34-.88,7.77,7.77,0,0,1,2,.29v.84a7,7,0,0,0-2-.44,2,2,0,0,0-1.62.7,3.06,3.06,0,0,0-.57,2,2.91,2.91,0,0,0,.62,2,2.17,2.17,0,0,0,1.73.71,3.42,3.42,0,0,0,1-.16v-2.09H258Z" transform="translate(-186.54 -395.47)"/><path class="cls-1" d="M261.23,398.15q1,0,1,1.32h-2.08Q260.24,398.15,261.23,398.15Zm1.82,3.33a3.72,3.72,0,0,1-1.31.31q-1.46,0-1.64-1.69h3v-.26a2.79,2.79,0,0,0-.47-1.73,1.57,1.57,0,0,0-1.32-.61,1.85,1.85,0,0,0-1.48.68,2.62,2.62,0,0,0-.58,1.75,2.5,2.5,0,0,0,.65,1.79,2.24,2.24,0,0,0,1.7.69,5.22,5.22,0,0,0,1.47-.26Z" transform="translate(-186.54 -395.47)"/><path class="cls-1" d="M265.43,401.31a2.75,2.75,0,0,1,0-2.69,1.27,1.27,0,0,1,2,0,2.74,2.74,0,0,1,0,2.69,1.27,1.27,0,0,1-2,0Zm2.64.45a3,3,0,0,0,0-3.59,2.38,2.38,0,0,0-3.29,0,3,3,0,0,0,0,3.59,2.37,2.37,0,0,0,3.29,0Z" transform="translate(-186.54 -395.47)"/><path class="cls-1" d="M270,402.33v-4.72h.85v.89a1.6,1.6,0,0,1,1.48-1l.27,0v.8a1.26,1.26,0,0,0-.39-.07,1.58,1.58,0,0,0-1.36,1v3.1Z" transform="translate(-186.54 -395.47)"/><path class="cls-1" d="M275.28,401.47q-1.1,0-1.1-1.53a2.23,2.23,0,0,1,.34-1.31,1.08,1.08,0,0,1,.93-.47,1.7,1.7,0,0,1,1.24.59v2A1.86,1.86,0,0,1,275.28,401.47Zm0,2.68a2.31,2.31,0,0,0,1.75-.59,1.8,1.8,0,0,0,.43-.87,8.45,8.45,0,0,0,.12-1.64v-3.43h-.85v.54a1.76,1.76,0,0,0-1.36-.64,1.84,1.84,0,0,0-1.48.68,2.63,2.63,0,0,0-.57,1.75,2.56,2.56,0,0,0,.5,1.66,1.79,1.79,0,0,0,2.27.35,1.7,1.7,0,0,0,.63-.73V402q0,1.53-1.45,1.53a3.42,3.42,0,0,1-1.47-.35l-.1.74A5,5,0,0,0,275.24,404.14Z" transform="translate(-186.54 -395.47)"/><path class="cls-1" d="M279.19,402.33v-4.72H280v4.72Zm0-5.58v-.85H280v.85Z" transform="translate(-186.54 -395.47)"/><path class="cls-1" d="M283,401.74a.73.73,0,0,1-.53-.21.7.7,0,0,1-.22-.52.8.8,0,0,1,.44-.7,2.19,2.19,0,0,1,1.15-.27h.27v1.22A1.78,1.78,0,0,1,283,401.74Zm2,.69a1.46,1.46,0,0,0,.64-.14l-.06-.47-.16,0q-.45,0-.45-.73V399a1.47,1.47,0,0,0-.37-1.1,1.62,1.62,0,0,0-1.16-.36,4.32,4.32,0,0,0-1.63.35v.69a3.19,3.19,0,0,1,1.45-.41q.86,0,.86.82v.57h-.2A3.49,3.49,0,0,0,282,400a1.33,1.33,0,0,0-.65,1.19,1.22,1.22,0,0,0,.39.93,1.36,1.36,0,0,0,1,.37,2.25,2.25,0,0,0,1.48-.71Q284.36,402.43,285,402.43Z" transform="translate(-186.54 -395.47)"/><path class="cls-1" d="M286.52,397.84l-.21-2.36h1.07l-.21,2.36Z" transform="translate(-186.54 -395.47)"/><path class="cls-1" d="M288.54,402.15v-.79a3.33,3.33,0,0,0,1.46.43.93.93,0,0,0,.61-.2.62.62,0,0,0,.24-.5q0-.44-.68-.72l-.5-.21q-1.11-.46-1.11-1.32a1.18,1.18,0,0,1,.44-1,1.85,1.85,0,0,1,1.2-.35,5.67,5.67,0,0,1,1,.11l.18,0v.71a4.28,4.28,0,0,0-1.14-.21,1,1,0,0,0-.6.16.51.51,0,0,0-.22.44q0,.39.62.65l.41.17a2.77,2.77,0,0,1,1,.62,1.19,1.19,0,0,1,.29.82,1.26,1.26,0,0,1-.49,1,1.92,1.92,0,0,1-1.25.4A4.66,4.66,0,0,1,288.54,402.15Z" transform="translate(-186.54 -395.47)"/><path class="cls-1" d="M297.79,402.33l-2.43-6.43h.91l2,5.26,1.92-5.26h.8l-2.33,6.43Z" transform="translate(-186.54 -395.47)"/><path class="cls-1" d="M301.87,402.33v-4.72h.85v4.72Zm0-5.58v-.85h.85v.85Z" transform="translate(-186.54 -395.47)"/><path class="cls-1" d="M304.44,402.33v-4.72h.85v.89a1.6,1.6,0,0,1,1.48-1l.27,0v.8a1.26,1.26,0,0,0-.39-.07,1.58,1.58,0,0,0-1.36,1v3.1Z" transform="translate(-186.54 -395.47)"/><path class="cls-1" d="M310.18,402.32a2.66,2.66,0,0,1-.69.11,1.35,1.35,0,0,1-1-.37,1.42,1.42,0,0,1-.36-1v-2.77h-.59v-.64h.59v-.85l.85-.08v.94h1.23v.64H309v2.61q0,.92.8.92a1.89,1.89,0,0,0,.41-.06Z" transform="translate(-186.54 -395.47)"/><path class="cls-1" d="M314.36,402.33v-.89a2,2,0,0,1-1.65,1,1.28,1.28,0,0,1-1-.39,1.47,1.47,0,0,1-.36-1v-3.38h.85v3.1a1.37,1.37,0,0,0,.15.75.58.58,0,0,0,.52.22,1.89,1.89,0,0,0,1.48-1v-3h.85v4.72Z" transform="translate(-186.54 -395.47)"/><path class="cls-1" d="M318.12,401.74a.73.73,0,0,1-.53-.21.7.7,0,0,1-.22-.52.8.8,0,0,1,.44-.7A2.2,2.2,0,0,1,319,400h.27v1.22A1.78,1.78,0,0,1,318.12,401.74Zm2,.69a1.46,1.46,0,0,0,.64-.14l-.06-.47-.16,0q-.45,0-.45-.73V399a1.46,1.46,0,0,0-.37-1.1,1.62,1.62,0,0,0-1.16-.36,4.32,4.32,0,0,0-1.63.35v.69a3.19,3.19,0,0,1,1.45-.41q.86,0,.86.82v.57H319a3.49,3.49,0,0,0-1.87.41,1.33,1.33,0,0,0-.65,1.19,1.22,1.22,0,0,0,.39.93,1.36,1.36,0,0,0,1,.37,2.25,2.25,0,0,0,1.48-.71Q319.52,402.43,320.12,402.43Z" transform="translate(-186.54 -395.47)"/><path class="cls-1" d="M321.84,402.33v-6.86h.85v6.86Z" transform="translate(-186.54 -395.47)"/><path class="cls-1" d="M327.2,402.33V395.9h.91v5.74H331v.69Z" transform="translate(-186.54 -395.47)"/><path class="cls-1" d="M332,402.33v-4.72h.85v4.72Zm0-5.58v-.85h.85v.85Z" transform="translate(-186.54 -395.47)"/><path class="cls-1" d="M335.39,399a1.91,1.91,0,0,1,1.4-.78q1.1,0,1.1,1.65a2.51,2.51,0,0,1-.32,1.38,1,1,0,0,1-.91.49,2,2,0,0,1-1.26-.59Zm-.1,3.35.1-.59a1.84,1.84,0,0,0,2.85-.08,3,3,0,0,0,.55-1.89,2.66,2.66,0,0,0-.49-1.69,1.62,1.62,0,0,0-1.34-.62,1.69,1.69,0,0,0-1.58,1v-3h-.85v6.91Z" transform="translate(-186.54 -395.47)"/><path class="cls-1" d="M340.13,402.33v-4.72H341v.89a1.6,1.6,0,0,1,1.48-1l.27,0v.8a1.25,1.25,0,0,0-.39-.07,1.58,1.58,0,0,0-1.36,1v3.1Z" transform="translate(-186.54 -395.47)"/><path class="cls-1" d="M345,401.74a.73.73,0,0,1-.53-.21.7.7,0,0,1-.22-.52.8.8,0,0,1,.44-.7,2.2,2.2,0,0,1,1.15-.27h.27v1.22A1.78,1.78,0,0,1,345,401.74Zm2,.69a1.47,1.47,0,0,0,.64-.14l-.06-.47-.16,0q-.45,0-.45-.73V399a1.47,1.47,0,0,0-.37-1.1,1.63,1.63,0,0,0-1.16-.36,4.32,4.32,0,0,0-1.63.35v.69a3.18,3.18,0,0,1,1.45-.41q.85,0,.86.82v.57h-.2A3.49,3.49,0,0,0,344,400a1.33,1.33,0,0,0-.65,1.19,1.22,1.22,0,0,0,.39.93,1.36,1.36,0,0,0,1,.37,2.24,2.24,0,0,0,1.48-.71Q346.37,402.43,347,402.43Z" transform="translate(-186.54 -395.47)"/><path class="cls-1" d="M348.68,402.33v-4.72h.85v.89a1.6,1.6,0,0,1,1.48-1l.27,0v.8a1.26,1.26,0,0,0-.39-.07,1.58,1.58,0,0,0-1.36,1v3.1Z" transform="translate(-186.54 -395.47)"/><path class="cls-1" d="M352.6,404l.77-1.71-1.82-4.71h.91l1.35,3.56,1.45-3.56h.81L353.49,404Z" transform="translate(-186.54 -395.47)"/><path class="cls-1" d="M264.37,407.58a9.09,9.09,0,0,0-1.68-1.06,10.51,10.51,0,0,0-2.05-.74,9.75,9.75,0,0,0-2.41-.29,11.54,11.54,0,0,0-3.89.64,8.3,8.3,0,0,0-3.13,2,9.23,9.23,0,0,0-2.09,3.37,15.42,15.42,0,0,0-.08,9.28,9,9,0,0,0,2,3.35,8.74,8.74,0,0,0,3.16,2.11,11.37,11.37,0,0,0,4.22.74q.71,0,1.48-.07t1.5-.2a10.78,10.78,0,0,0,1.35-.34,4.89,4.89,0,0,0,1.06-.47q0-1,.06-2t0-2.05q0-1.18-.06-2.36t-.13-2.26a8.49,8.49,0,0,0,1.64.17q.38,0,.75,0a3.72,3.72,0,0,0,.72-.13q-.07.78-.11,2.45t0,4.4q0,.67,0,1.37t0,1.37q-.71.27-1.77.56a21.12,21.12,0,0,1-2.26.47q-1.2.18-2.39.34a17.49,17.49,0,0,1-2.17.15,18.77,18.77,0,0,1-5.41-.72,10.57,10.57,0,0,1-4.1-2.24,10.05,10.05,0,0,1-2.59-3.78,13.92,13.92,0,0,1-.91-5.23,13.08,13.08,0,0,1,.94-5.11,10.55,10.55,0,0,1,2.66-3.79,11.52,11.52,0,0,1,4.16-2.36,17.1,17.1,0,0,1,5.4-.81,22,22,0,0,1,3,.19,16.2,16.2,0,0,1,2.36.49,15.87,15.87,0,0,1,1.8.64q.77.34,1.38.64a5.79,5.79,0,0,0-.49,1.21,7.81,7.81,0,0,0-.29,1.38h-.4A8.82,8.82,0,0,0,264.37,407.58Z" transform="translate(-186.54 -395.47)"/><path class="cls-1" d="M291.17,427.84a5.73,5.73,0,0,0-.89-.07h-1.79a5.73,5.73,0,0,0-.89.07q-.24-.77-.64-1.87t-.89-2.29l-1-2.43q-.51-1.23-.94-2.34l-2.19-.06-2.23,0-2.06,0-2.06.06q-1.08,2.63-2,5t-1.31,3.93a10.54,10.54,0,0,0-2.5,0q2.73-5.9,5.33-11.73t5.23-11.87H281l1.75,4.23q.94,2.28,1.92,4.6t2,4.62q1,2.29,1.84,4.27t1.55,3.52Q290.73,427,291.17,427.84Zm-14.94-10.49q.88,0,1.82,0t1.82,0l1.89,0,1.89-.06-3.74-8.56Z" transform="translate(-186.54 -395.47)"/><path class="cls-1" d="M295,409q-.08-2.14-.18-4.37l.84.1a7.34,7.34,0,0,0,1.62,0l.84-.1q-.1,2.23-.18,4.37t-.08,4.37q0,4.25,0,7.37t.07,5.58q2.39,0,4.59-.05a43.18,43.18,0,0,0,4.72-.39,3.93,3.93,0,0,0-.17,1,3.16,3.16,0,0,0,.17.91q-1.55-.07-3.1-.07h-6.23q-1.5,0-3.13.07.1-2.09.18-4.25t.08-4.38v-5.8Q295.07,411.18,295,409Z" transform="translate(-186.54 -395.47)"/><path class="cls-1" d="M311.85,409q-.08-2.14-.18-4.37l.84.1a7.33,7.33,0,0,0,1.61,0l.84-.1q-.1,2.23-.18,4.37t-.08,4.37v5.8q0,2.23.08,4.38t.18,4.25q-.77-.07-1.65-.07t-1.65.07q.1-2.09.18-4.25t.08-4.38v-5.8Q311.94,411.18,311.85,409Z" transform="translate(-186.54 -395.47)"/><path class="cls-1" d="M321.23,409q-.08-2.14-.18-4.37l.84.1a7.33,7.33,0,0,0,1.61,0l.84-.1q-.1,2.23-.18,4.37t-.08,4.37q0,4.25,0,7.37t.07,5.58q2.39,0,4.59-.05a43.18,43.18,0,0,0,4.72-.39,3.92,3.92,0,0,0-.17,1,3.15,3.15,0,0,0,.17.91q-1.55-.07-3.1-.07h-6.22q-1.5,0-3.13.07.1-2.09.18-4.25t.08-4.38v-5.8Q321.31,411.18,321.23,409Z" transform="translate(-186.54 -395.47)"/><path class="cls-1" d="M338.1,409q-.08-2.16-.18-4.32l3,.1q1.5,0,3,0t3,0l3-.1a5.2,5.2,0,0,0,0,2l-2-.15-1.89-.15-2.17-.13q-1.18-.06-2.83-.06,0,1.08-.09,2.06t-.06,2.23q0,1.32,0,2.57t0,1.89q1.48,0,2.66,0l2.16-.08,1.8-.1,1.57-.12a5.34,5.34,0,0,0-.1,1,5.16,5.16,0,0,0,.1,1q-.88-.1-2-.17t-2.33-.08l-2.19,0-1.64,0c0,.2,0,.42,0,.66s0,.53,0,.89v3.34q0,1.92,0,3.17t.06,1.89h2.36q1.28,0,2.51-.05t2.33-.14a15.05,15.05,0,0,0,1.9-.25,2.43,2.43,0,0,0-.08.52c0,.19,0,.36,0,.52a3.14,3.14,0,0,0,.1.88q-1.52-.07-3-.07H341q-1.52,0-3.08.07.1-2.16.18-4.3t.08-4.37v-5.8Q338.18,411.15,338.1,409Z" transform="translate(-186.54 -395.47)"/><path class="cls-1" d="M354.09,411.2a10.66,10.66,0,0,1,2.6-3.79,11.18,11.18,0,0,1,4-2.36,16.55,16.55,0,0,1,10.22,0,11.19,11.19,0,0,1,4,2.36,10.66,10.66,0,0,1,2.6,3.79,14.54,14.54,0,0,1,0,10.22,10.41,10.41,0,0,1-6.6,6.11,17.6,17.6,0,0,1-10.22,0,10.41,10.41,0,0,1-6.6-6.11,14.54,14.54,0,0,1,0-10.22Zm20.34.28a9.21,9.21,0,0,0-2-3.37,7.87,7.87,0,0,0-3-2,10.9,10.9,0,0,0-7.36,0,7.87,7.87,0,0,0-3,2,9.19,9.19,0,0,0-2,3.37,16.83,16.83,0,0,0,0,9.67,9.19,9.19,0,0,0,2,3.37,7.86,7.86,0,0,0,3,2,10.9,10.9,0,0,0,7.36,0,7.86,7.86,0,0,0,3-2,9.21,9.21,0,0,0,2-3.37,16.86,16.86,0,0,0,0-9.67Z" transform="translate(-186.54 -395.47)"/><path class="cls-1" d="M264.37,407.58a9.09,9.09,0,0,0-1.68-1.06,10.51,10.51,0,0,0-2.05-.74,9.75,9.75,0,0,0-2.41-.29,11.54,11.54,0,0,0-3.89.64,8.3,8.3,0,0,0-3.13,2,9.23,9.23,0,0,0-2.09,3.37,15.42,15.42,0,0,0-.08,9.28,9,9,0,0,0,2,3.35,8.74,8.74,0,0,0,3.16,2.11,11.37,11.37,0,0,0,4.22.74q.71,0,1.48-.07t1.5-.2a10.78,10.78,0,0,0,1.35-.34,4.89,4.89,0,0,0,1.06-.47q0-1,.06-2t0-2.05q0-1.18-.06-2.36t-.13-2.26a8.49,8.49,0,0,0,1.64.17q.38,0,.75,0a3.72,3.72,0,0,0,.72-.13q-.07.78-.11,2.45t0,4.4q0,.67,0,1.37t0,1.37q-.71.27-1.77.56a21.12,21.12,0,0,1-2.26.47q-1.2.18-2.39.34a17.49,17.49,0,0,1-2.17.15,18.77,18.77,0,0,1-5.41-.72,10.57,10.57,0,0,1-4.1-2.24,10.05,10.05,0,0,1-2.59-3.78,13.92,13.92,0,0,1-.91-5.23,13.08,13.08,0,0,1,.94-5.11,10.55,10.55,0,0,1,2.66-3.79,11.52,11.52,0,0,1,4.16-2.36,17.1,17.1,0,0,1,5.4-.81,22,22,0,0,1,3,.19,16.2,16.2,0,0,1,2.36.49,15.87,15.87,0,0,1,1.8.64q.77.34,1.38.64a5.79,5.79,0,0,0-.49,1.21,7.81,7.81,0,0,0-.29,1.38h-.4A8.82,8.82,0,0,0,264.37,407.58Z" transform="translate(-186.54 -395.47)"/><path class="cls-1" d="M291.17,427.84a5.73,5.73,0,0,0-.89-.07h-1.79a5.73,5.73,0,0,0-.89.07q-.24-.77-.64-1.87t-.89-2.29l-1-2.43q-.51-1.23-.94-2.34l-2.19-.06-2.23,0-2.06,0-2.06.06q-1.08,2.63-2,5t-1.31,3.93a10.54,10.54,0,0,0-2.5,0q2.73-5.9,5.33-11.73t5.23-11.87H281l1.75,4.23q.94,2.28,1.92,4.6t2,4.62q1,2.29,1.84,4.27t1.55,3.52Q290.73,427,291.17,427.84Zm-14.94-10.49q.88,0,1.82,0t1.82,0l1.89,0,1.89-.06-3.74-8.56Z" transform="translate(-186.54 -395.47)"/><path class="cls-1" d="M295,409q-.08-2.14-.18-4.37l.84.1a7.34,7.34,0,0,0,1.62,0l.84-.1q-.1,2.23-.18,4.37t-.08,4.37q0,4.25,0,7.37t.07,5.58q2.39,0,4.59-.05a43.18,43.18,0,0,0,4.72-.39,3.93,3.93,0,0,0-.17,1,3.16,3.16,0,0,0,.17.91q-1.55-.07-3.1-.07h-6.23q-1.5,0-3.13.07.1-2.09.18-4.25t.08-4.38v-5.8Q295.07,411.18,295,409Z" transform="translate(-186.54 -395.47)"/><path class="cls-1" d="M311.85,409q-.08-2.14-.18-4.37l.84.1a7.33,7.33,0,0,0,1.61,0l.84-.1q-.1,2.23-.18,4.37t-.08,4.37v5.8q0,2.23.08,4.38t.18,4.25q-.77-.07-1.65-.07t-1.65.07q.1-2.09.18-4.25t.08-4.38v-5.8Q311.94,411.18,311.85,409Z" transform="translate(-186.54 -395.47)"/><path class="cls-1" d="M321.23,409q-.08-2.14-.18-4.37l.84.1a7.33,7.33,0,0,0,1.61,0l.84-.1q-.1,2.23-.18,4.37t-.08,4.37q0,4.25,0,7.37t.07,5.58q2.39,0,4.59-.05a43.18,43.18,0,0,0,4.72-.39,3.92,3.92,0,0,0-.17,1,3.15,3.15,0,0,0,.17.91q-1.55-.07-3.1-.07h-6.22q-1.5,0-3.13.07.1-2.09.18-4.25t.08-4.38v-5.8Q321.31,411.18,321.23,409Z" transform="translate(-186.54 -395.47)"/><path class="cls-1" d="M338.1,409q-.08-2.16-.18-4.32l3,.1q1.5,0,3,0t3,0l3-.1a5.2,5.2,0,0,0,0,2l-2-.15-1.89-.15-2.17-.13q-1.18-.06-2.83-.06,0,1.08-.09,2.06t-.06,2.23q0,1.32,0,2.57t0,1.89q1.48,0,2.66,0l2.16-.08,1.8-.1,1.57-.12a5.34,5.34,0,0,0-.1,1,5.16,5.16,0,0,0,.1,1q-.88-.1-2-.17t-2.33-.08l-2.19,0-1.64,0c0,.2,0,.42,0,.66s0,.53,0,.89v3.34q0,1.92,0,3.17t.06,1.89h2.36q1.28,0,2.51-.05t2.33-.14a15.05,15.05,0,0,0,1.9-.25,2.43,2.43,0,0,0-.08.52c0,.19,0,.36,0,.52a3.14,3.14,0,0,0,.1.88q-1.52-.07-3-.07H341q-1.52,0-3.08.07.1-2.16.18-4.3t.08-4.37v-5.8Q338.18,411.15,338.1,409Z" transform="translate(-186.54 -395.47)"/><path class="cls-1" d="M354.09,411.2a10.66,10.66,0,0,1,2.6-3.79,11.18,11.18,0,0,1,4-2.36,16.55,16.55,0,0,1,10.22,0,11.19,11.19,0,0,1,4,2.36,10.66,10.66,0,0,1,2.6,3.79,14.54,14.54,0,0,1,0,10.22,10.41,10.41,0,0,1-6.6,6.11,17.6,17.6,0,0,1-10.22,0,10.41,10.41,0,0,1-6.6-6.11,14.54,14.54,0,0,1,0-10.22Zm20.34.28a9.21,9.21,0,0,0-2-3.37,7.87,7.87,0,0,0-3-2,10.9,10.9,0,0,0-7.36,0,7.87,7.87,0,0,0-3,2,9.19,9.19,0,0,0-2,3.37,16.83,16.83,0,0,0,0,9.67,9.19,9.19,0,0,0,2,3.37,7.86,7.86,0,0,0,3,2,10.9,10.9,0,0,0,7.36,0,7.86,7.86,0,0,0,3-2,9.21,9.21,0,0,0,2-3.37,16.86,16.86,0,0,0,0-9.67Z" transform="translate(-186.54 -395.47)"/><polygon class="cls-1" points="41.84 33.02 41.8 33.05 42.3 33.05 42.27 33.01 41.84 33.02"/><path class="cls-1" d="M215.94,402.61a29.47,29.47,0,0,0-29.39,25.91H224.6l-.08,0-1.29-.15-.34-.27-.31-.47-.23-.46-.58-.29-.41.06-.23,0-.37-.3-.24-.31-.88-.34-.4,0h-.43l-.35.17-.38,0-.49-.12-.7-.23-.54-.23-.44-.07-.82-.38-.49.31-.64-.13-.49-.54-.31-.63-.48-.21-.53-.09-.28-.43-.58-.55-.33-.26-.3-.28-.77-1.11-.35-.58-.23-.27-.41-.28-.37-.31-.4-.15v.61l.16.53.16.32.07.16.26.31.19.38.26.29.4.6-.78-.12-.52-.66-.44-.69L207,420l-.22-.31-.4-.24-.47-.19-.6-.19-.49-.26-.34-.4-.14-.42-.43-.86-.12-.36,0-.28.26-.48-.08-.58-.26-.52.3-.28.35-.17v-.42l-.18-.33-.71-.72-.34-.54-.29-.28-.38-.74-.85-.56-.28-.42-.26-.1-1,.37-.33.22-.54.19-.52.1-.32.23-1.36.43.18-.36.28-.29.74-.55.37-1,.54-.38,0-.23.37-.1.5,0,1-.24.31-.37.23-.39.11-.06h.45l.57.14h.43l1.56-.32.89-.07.52,0,.4,0h.43l.46.06.52.17.35.26.54.23,1.12-.46.84.09.29.27.6.35.52,0,.43-.14.39-.05,1.16.16H215l.4-.06.92-.29.28-.26.7-.34,1,.35.38,0,1,.15.08.16-.06.31-.21.17-.89.08v.29l-.53.24h-.44l-.45.22L217,410l.06.39-.06.31-.32.65.05.4.23.42-.06.32.26.5.15.43.16.07.38-.11.26.07.29.29.68-.05.3-.27.26-.34.09,0,.36.59.28.15.59-.14.29.43.28.29.23.31.58.29.4-.05.37-.1.33-.37.17-.51,0-.92.15-.43.32-.21.32-.65,0-.2-.24-.45-.11-.37.06,0,.73.14.8.45.66.32h.43l.41,0,.32-.22.68-.06.23.32.28.29,1.18.91.52.32.49.12.91.4h.43l1,.35.23.6,0,.28-.34.16-.46-.05h-.86l-.46-.06-.49-.11-.4.19-.53.39-.23.39-.37.24-.18.23.07.17.21.11.4-.06.56-.18.92-.17.26.09-.13.2.35.11.41-.2.4.1-.17.37-.75.21-.41.06-.59.22-.41.05-.55.34-.84.48-.41.19-.23.39-.81,1.72-.23.53.2.82,0,.23L227,422l-.43-.42-.36-1-.67-.3h-.44l-.42,0h-.42l-.52-.17-.3.09-.68.53-.4-.1-.56-.28-.59.14-1.14.75-.4.05-.17-.06-.89.21-.23.39-.07.45.29.84.75,1.12.83.37.16.49.36.12.52-.11.29-.56.37-.74.37,0,.8,1.44.54.23.64.13.14.28-.09.54v.84l.27.31.47.21.6.06H226l.47.06.4-.06.72.11.27-.33.32-.22.35-.17h.29l.66.46h.43l.33-.07.28-.58.29-.14.32.54.41.22.44-.13.59-.84.63-.17.87,0,.39-.06.4-.2.31.06,1.22.55.34.26.5.26.28.27.61.76,0,0h7.14A29.47,29.47,0,0,0,215.94,402.61Zm-2.24,5.12-1.3-.2-.59-.25-.14-.11.12-.14.74-.19.85.23.53.48Zm.24-1.54-1-.22-.39,0-.24,0-.25-.36.06-.31.78-.3.85.29.58.28.1.38Zm2.09,2-.31.11-.18,0-.26-.24-.28-.1-.35-.24,0-.29.12-.12.32-.08h.37l.37.16.24.26.09.19V408Zm2.27-.92-.44.09-.43-.11-.69-.24-.57-.3-.23-.11-.17-.32.12-.17h.36l.37-.13,1.16.23.61.58Zm.23-1.31h-.38l-1-.31-.21-.63.23-.15.38-.06.83,0,.54.5Zm1.34-.17-.41.05-.18-.4.08-.25.54-.33,0-.07.4-.06.63.13.17.17-.26.63-.4.48-.44-.29Zm6,3.88-.52.26-.65-.32-.48-.06.31-.43-.12-.37-.46-.19-.48-.11-.55.05-1,0,.1-.53-.8-.32L220,407l0-.09.58.13.4-.05.55.1.46-.08.38,0,1.35.55h.64l.17,0,.37.6.11.36.3.29.54.09Zm6,.88-.42-.28-.49-.12h-.49l-.19-.67-.7-.93-.22-.55-.54-.27h-.44l-.45.09-.47-.06-.36-.32-.24-.31-.46-.2-.48-.11-.3-.29-1-.48-1.24-.75-.4-.27v-.26l.08-.11.49-.15.84-.41,1.31.41,2,.77,2.29,1.07,1.49.82.18.12,0,1.16.08.42.18.21.3.46L232,410l.19.54Z" transform="translate(-186.54 -395.47)"/></g></svg>