<svg xmlns="http://www.w3.org/2000/svg" width="478.18" height="544.61" viewBox="0 0 478.18 544.61"><defs><style>.cls-1{fill:#8dd3ce;}.cls-1,.cls-2,.cls-3,.cls-4,.cls-5,.cls-6,.cls-7{stroke:#fff;}.cls-2,.cls-3{fill:#cadbda;}.cls-2{stroke-miterlimit:10;}.cls-4{fill:#566061;}.cls-5{fill:#467e7f;}.cls-6{fill:#869393;}.cls-7{fill:#6b7777;}</style></defs><title>map</title><g id="Layer_1_copy" data-name="Layer 1 copy"><polygon class="cls-1" points="288.58 120.5 279.58 120.5 279.58 120.5 270.58 126.5 270.58 126.5 258.58 141.5 258.58 141.5 264.58 147.5 264.58 147.5 270.58 159.5 270.58 159.5 276.58 156.5 276.58 156.5 291.58 165.5 291.58 165.5 294.58 162.5 294.58 162.5 309.58 156.5 309.58 156.5 297.58 135.5 297.58 135.5 294.58 120.5 294.58 120.5 288.58 120.5 288.58 120.5"/><polygon class="cls-1" points="294.58 120.5 297.58 135.5 297.58 135.5 309.58 156.5 309.58 156.5 315.58 156.5 315.58 156.5 324.58 150.5 324.58 150.5 330.58 153.5 330.58 153.5 333.58 150.5 333.58 150.5 330.58 144.5 330.58 144.5 300.58 120.5 300.58 120.5 294.58 120.5 294.58 120.5"/><polygon class="cls-1" points="219.58 153.5 231.58 171.5 231.58 171.5 231.58 177.5 231.58 177.5 243.58 192.5 243.58 192.5 261.58 174.5 261.58 174.5 258.58 165.5 258.58 165.5 264.58 156.5 264.58 156.5 258.58 153.5 258.58 153.5 246.58 153.5 246.58 153.5 231.58 147.5 231.58 147.5 219.58 153.5 219.58 153.5"/><polygon class="cls-1" points="264.58 147.5 258.58 153.5 258.58 153.5 264.58 156.5 264.58 156.5 258.58 165.5 258.58 165.5 261.58 174.5 261.58 174.5 255.58 180.5 255.58 180.5 273.58 180.5 273.58 180.5 279.58 171.5 279.58 171.5 285.58 174.5 285.58 174.5 291.58 165.5 291.58 165.5 276.58 156.5 276.58 156.5 270.58 159.5 270.58 159.5 264.58 147.5 264.58 147.5"/><polygon class="cls-1" points="243.58 192.5 243.58 198.5 243.58 198.5 237.58 204.5 237.58 204.5 234.58 213.5 234.58 213.5 252.58 216.5 252.58 216.5 249.58 228.5 249.58 228.5 255.58 225.5 255.58 225.5 270.58 219.5 270.58 219.5 273.58 210.5 273.58 210.5 285.58 204.5 285.58 204.5 273.58 180.5 273.58 180.5 255.58 180.5 255.58 180.5 243.58 192.5 243.58 192.5"/><polygon class="cls-1" points="279.58 171.5 273.58 180.5 273.58 180.5 285.58 204.5 285.58 204.5 303.58 195.5 303.58 195.5 318.58 201.5 318.58 201.5 324.58 195.5 324.58 195.5 306.58 189.5 306.58 189.5 294.58 162.5 294.58 162.5 291.58 165.5 291.58 165.5 285.58 174.5 285.58 174.5 279.58 171.5 279.58 171.5"/><polygon class="cls-1" points="294.58 162.5 306.58 189.5 306.58 189.5 324.58 195.5 324.58 195.5 330.58 189.5 330.58 189.5 315.58 168.5 315.58 168.5 315.58 156.5 315.58 156.5 309.58 156.5 309.58 156.5 294.58 162.5 294.58 162.5 294.58 162.5 294.58 162.5"/><polygon class="cls-1" points="315.58 156.5 315.58 168.5 315.58 168.5 330.58 189.5 330.58 189.5 357.58 168.5 357.58 168.5 345.58 162.5 345.58 162.5 333.58 150.5 333.58 150.5 330.58 153.5 330.58 153.5 324.58 150.5 324.58 150.5 315.58 156.5 315.58 156.5"/><polygon class="cls-1" points="255.58 225.5 255.58 240.5 255.58 240.5 267.58 261.5 267.58 261.5 282.58 255.5 282.58 255.5 285.58 261.5 285.58 261.5 309.58 255.5 309.58 255.5 312.58 243.5 312.58 243.5 306.58 231.5 306.58 231.5 294.58 219.5 294.58 219.5 288.58 213.5 288.58 213.5 285.58 204.5 285.58 204.5 273.58 210.5 273.58 210.5 270.58 219.5 270.58 219.5 255.58 225.5 255.58 225.5"/><polygon class="cls-1" points="285.58 204.5 288.58 213.5 288.58 213.5 294.58 219.5 294.58 219.5 303.58 219.5 303.58 219.5 300.58 213.5 300.58 213.5 318.58 201.5 318.58 201.5 303.58 195.5 303.58 195.5 285.58 204.5 285.58 204.5"/><polygon class="cls-1" points="294.58 219.5 306.58 231.5 306.58 231.5 312.58 243.5 312.58 243.5 309.58 255.5 309.58 255.5 318.58 261.5 318.58 261.5 321.58 261.5 321.58 261.5 318.58 255.5 318.58 255.5 330.58 252.5 330.58 252.5 333.58 240.5 333.58 240.5 330.58 222.5 330.58 222.5 336.58 207.5 336.58 207.5 333.58 201.5 333.58 201.5 324.58 195.5 324.58 195.5 318.58 201.5 318.58 201.5 300.58 213.5 300.58 213.5 303.58 219.5 303.58 219.5 294.58 219.5 294.58 219.5"/><polygon class="cls-1" points="324.58 195.5 333.58 201.5 333.58 201.5 342.58 198.5 342.58 198.5 351.58 204.5 351.58 204.5 375.58 204.5 375.58 204.5 375.58 195.5 375.58 195.5 363.58 189.5 363.58 189.5 369.58 180.5 369.58 180.5 357.58 168.5 357.58 168.5 330.58 189.5 330.58 189.5 324.58 195.5 324.58 195.5"/><polygon class="cls-1" points="333.58 201.5 336.58 207.5 336.58 207.5 330.58 222.5 330.58 222.5 333.58 240.5 333.58 240.5 330.58 252.5 330.58 252.5 345.58 255.5 345.58 255.5 351.58 243.5 351.58 243.5 375.58 237.5 375.58 237.5 384.58 243.5 384.58 243.5 405.58 225.5 405.58 225.5 375.58 204.5 375.58 204.5 351.58 204.5 351.58 204.5 342.58 198.5 342.58 198.5 333.58 201.5 333.58 201.5"/><polygon class="cls-1" points="351.58 243.5 345.58 255.5 345.58 255.5 351.58 273.5 351.58 273.5 360.58 279.5 360.58 279.5 378.58 273.5 378.58 273.5 375.58 267.5 375.58 267.5 384.58 243.5 384.58 243.5 375.58 237.5 375.58 237.5 351.58 243.5 351.58 243.5"/><polygon class="cls-1" points="267.58 261.5 267.58 267.5 267.58 267.5 273.58 267.5 273.58 267.5 279.58 270.5 279.58 270.5 279.58 273.5 279.58 273.5 291.58 279.5 291.58 279.5 291.58 288.5 291.58 288.5 294.58 291.5 294.58 291.5 303.58 288.5 303.58 288.5 300.58 282.5 300.58 282.5 312.58 276.5 312.58 276.5 309.58 270.5 309.58 270.5 318.58 261.5 318.58 261.5 309.58 255.5 309.58 255.5 285.58 261.5 285.58 261.5 282.58 255.5 282.58 255.5 267.58 261.5 267.58 261.5"/><polygon class="cls-1" points="321.58 261.5 318.58 261.5 318.58 261.5 309.58 270.5 309.58 270.5 312.58 276.5 312.58 276.5 300.58 282.5 300.58 282.5 303.58 288.5 303.58 288.5 294.58 291.5 294.58 291.5 321.58 300.5 321.58 300.5 318.58 309.5 318.58 309.5 324.58 315.5 324.58 315.5 336.58 315.5 336.58 315.5 333.58 309.5 333.58 309.5 342.58 291.5 342.58 291.5 351.58 285.5 351.58 285.5 357.58 288.5 357.58 288.5 360.58 279.5 360.58 279.5 351.58 273.5 351.58 273.5 345.58 255.5 345.58 255.5 330.58 252.5 330.58 252.5 318.58 255.5 318.58 255.5 321.58 261.5 321.58 261.5"/></g><g id="Layer_1" data-name="Layer 1"><polygon class="cls-2" points="0.58 0.5 6.58 42.5 6.58 42.5 15.58 27.5 15.58 27.5 18.58 15.5 18.58 15.5 24.58 0.5 24.58 0.5 0.58 0.5 0.58 0.5"/><polygon class="cls-2" points="24.58 0.5 18.58 15.5 18.58 15.5 15.58 27.5 15.58 27.5 6.58 42.5 6.58 42.5 6.58 45.5 6.58 45.5 57.58 45.5 57.58 45.5 57.58 30.5 57.58 30.5 45.58 30.5 45.58 30.5 45.58 24.5 45.58 24.5 42.58 24.5 42.58 24.5 42.58 15.5 42.58 15.5 36.58 15.5 36.58 15.5 36.58 0.5 36.58 0.5 24.58 0.5 24.58 0.5"/><polygon class="cls-2" points="36.58 0.5 36.58 3.5 36.58 3.5 36.58 15.5 36.58 15.5 42.58 15.5 42.58 15.5 42.58 24.5 42.58 24.5 45.58 24.5 45.58 24.5 48.58 18.5 48.58 18.5 54.58 18.5 54.58 18.5 54.58 12.5 54.58 12.5 57.58 12.5 57.58 12.5 63.58 0.5 63.58 0.5 36.58 0.5 36.58 0.5"/><polygon class="cls-2" points="63.58 0.5 57.58 12.5 57.58 12.5 54.58 12.5 54.58 12.5 54.58 18.5 54.58 18.5 48.58 18.5 48.58 18.5 45.58 24.5 45.58 24.5 45.58 30.5 45.58 30.5 57.58 30.5 57.58 30.5 57.58 42.5 57.58 42.5 69.58 42.5 69.58 42.5 66.58 36.5 66.58 36.5 72.58 30.5 72.58 30.5 72.58 18.5 72.58 18.5 81.58 0.5 81.58 0.5 63.58 0.5 63.58 0.5"/><polygon class="cls-2" points="81.58 0.5 72.58 18.5 72.58 18.5 72.58 30.5 72.58 30.5 66.58 36.5 66.58 36.5 69.58 42.5 69.58 42.5 87.58 42.5 87.58 42.5 93.58 48.5 93.58 48.5 93.58 27.5 93.58 27.5 99.58 18.5 99.58 18.5 96.58 15.5 96.58 15.5 96.58 0.5 96.58 0.5 81.58 0.5 81.58 0.5"/><polygon class="cls-2" points="96.58 0.5 96.58 15.5 96.58 15.5 117.58 15.5 117.58 15.5 129.58 21.5 129.58 21.5 135.58 36.5 135.58 36.5 141.58 45.5 141.58 45.5 144.58 39.5 144.58 39.5 150.58 30.5 150.58 30.5 150.58 21.5 150.58 21.5 144.58 18.5 144.58 18.5 147.58 12.5 147.58 12.5 141.58 3.5 141.58 3.5 144.58 0.5 144.58 0.5 96.58 0.5 96.58 0.5"/><polygon class="cls-2" points="144.58 0.5 141.58 3.5 141.58 3.5 147.58 12.5 147.58 12.5 144.58 18.5 144.58 18.5 150.58 21.5 150.58 21.5 150.58 30.5 150.58 30.5 144.58 39.5 144.58 39.5 156.58 42.5 156.58 42.5 162.58 27.5 162.58 27.5 171.58 33.5 171.58 33.5 174.58 24.5 174.58 24.5 180.58 24.5 180.58 24.5 174.58 9.5 174.58 9.5 165.58 6.5 165.58 6.5 162.58 0.5 162.58 0.5 144.58 0.5 144.58 0.5"/><polygon class="cls-2" points="162.58 0.5 165.58 6.5 165.58 6.5 174.58 9.5 174.58 9.5 180.58 24.5 180.58 24.5 189.58 21.5 189.58 21.5 192.58 18.5 192.58 18.5 192.58 9.5 192.58 9.5 201.58 6.5 201.58 6.5 201.58 0.5 201.58 0.5 162.58 0.5 162.58 0.5"/><polygon class="cls-2" points="201.58 0.5 201.58 6.5 201.58 6.5 192.58 9.5 192.58 9.5 192.58 18.5 192.58 18.5 198.58 18.5 198.58 18.5 204.58 30.5 204.58 30.5 219.58 30.5 219.58 30.5 225.58 21.5 225.58 21.5 243.58 6.5 243.58 6.5 243.58 0.5 243.58 0.5 201.58 0.5 201.58 0.5"/><polygon class="cls-2" points="6.58 45.5 12.58 81.5 12.58 81.5 21.58 81.5 21.58 81.5 27.58 72.5 27.58 72.5 42.58 63.5 42.58 63.5 51.58 45.5 51.58 45.5 6.58 45.5 6.58 45.5"/><polygon class="cls-2" points="51.58 45.5 42.58 63.5 42.58 63.5 27.58 72.5 27.58 72.5 21.58 81.5 21.58 81.5 12.58 81.5 12.58 81.5 18.58 105.5 18.58 105.5 54.58 105.5 54.58 105.5 54.58 90.5 54.58 90.5 57.58 90.5 57.58 90.5 57.58 69.5 57.58 69.5 51.58 69.5 51.58 69.5 51.58 45.5 51.58 45.5"/><polygon class="cls-2" points="57.58 42.5 57.58 45.5 57.58 45.5 51.58 45.5 51.58 45.5 51.58 69.5 51.58 69.5 93.58 69.5 93.58 69.5 93.58 48.5 93.58 48.5 87.58 42.5 87.58 42.5 57.58 42.5 57.58 42.5"/><polygon class="cls-2" points="96.58 15.5 99.58 18.5 99.58 18.5 93.58 27.5 93.58 27.5 93.58 51.5 93.58 51.5 126.58 51.5 126.58 51.5 132.58 48.5 132.58 48.5 132.58 45.5 132.58 45.5 141.58 45.5 141.58 45.5 135.58 36.5 135.58 36.5 129.58 21.5 129.58 21.5 117.58 15.5 117.58 15.5 96.58 15.5 96.58 15.5"/><polygon class="cls-2" points="93.58 51.5 93.58 69.5 93.58 69.5 102.58 69.5 102.58 69.5 102.58 72.5 102.58 72.5 132.58 72.5 132.58 72.5 132.58 63.5 132.58 63.5 126.58 63.5 126.58 63.5 126.58 51.5 126.58 51.5 93.58 51.5 93.58 51.5"/><polygon class="cls-2" points="132.58 45.5 132.58 48.5 132.58 48.5 126.58 51.5 126.58 51.5 126.58 63.5 126.58 63.5 132.58 63.5 132.58 63.5 132.58 78.5 132.58 78.5 162.58 78.5 162.58 78.5 159.58 75.5 159.58 75.5 159.58 66.5 159.58 66.5 147.58 63.5 147.58 63.5 141.58 54.5 141.58 54.5 141.58 45.5 141.58 45.5 132.58 45.5 132.58 45.5"/><polygon class="cls-2" points="144.58 39.5 141.58 45.5 141.58 45.5 141.58 54.5 141.58 54.5 147.58 63.5 147.58 63.5 159.58 66.5 159.58 66.5 174.58 57.5 174.58 57.5 171.58 51.5 171.58 51.5 171.58 33.5 171.58 33.5 162.58 27.5 162.58 27.5 156.58 42.5 156.58 42.5 144.58 39.5 144.58 39.5"/><polygon class="cls-2" points="174.58 24.5 171.58 33.5 171.58 33.5 171.58 51.5 171.58 51.5 174.58 57.5 174.58 57.5 192.58 57.5 192.58 57.5 195.58 51.5 195.58 51.5 189.58 39.5 189.58 39.5 195.58 30.5 195.58 30.5 192.58 24.5 192.58 24.5 189.58 21.5 189.58 21.5 180.58 24.5 180.58 24.5 174.58 24.5 174.58 24.5"/><polygon class="cls-2" points="189.58 21.5 192.58 24.5 192.58 24.5 195.58 30.5 195.58 30.5 189.58 39.5 189.58 39.5 195.58 51.5 195.58 51.5 192.58 57.5 192.58 57.5 198.58 63.5 198.58 63.5 201.58 60.5 201.58 60.5 213.58 60.5 213.58 60.5 222.58 36.5 222.58 36.5 219.58 30.5 219.58 30.5 204.58 30.5 204.58 30.5 198.58 18.5 198.58 18.5 192.58 18.5 192.58 18.5 189.58 21.5 189.58 21.5"/><polygon class="cls-2" points="57.58 69.5 57.58 90.5 57.58 90.5 54.58 90.5 54.58 90.5 54.58 105.5 54.58 105.5 93.58 105.5 93.58 105.5 93.58 69.5 93.58 69.5 57.58 69.5 57.58 69.5"/><polygon class="cls-2" points="102.58 72.5 102.58 69.5 102.58 69.5 93.58 69.5 93.58 69.5 93.58 105.5 93.58 105.5 117.58 105.5 117.58 105.5 117.58 102.5 117.58 102.5 123.58 102.5 123.58 102.5 123.58 96.5 123.58 96.5 132.58 96.5 132.58 96.5 132.58 72.5 132.58 72.5 102.58 72.5 102.58 72.5"/><polygon class="cls-2" points="159.58 75.5 162.58 78.5 162.58 78.5 165.58 84.5 165.58 84.5 159.58 93.5 159.58 93.5 153.58 96.5 153.58 96.5 171.58 105.5 171.58 105.5 177.58 99.5 177.58 99.5 195.58 81.5 195.58 81.5 189.58 75.5 189.58 75.5 198.58 63.5 198.58 63.5 192.58 57.5 192.58 57.5 174.58 57.5 174.58 57.5 159.58 66.5 159.58 66.5 159.58 75.5 159.58 75.5"/><polygon class="cls-2" points="132.58 78.5 132.58 102.5 132.58 102.5 147.58 111.5 147.58 111.5 153.58 96.5 153.58 96.5 159.58 93.5 159.58 93.5 165.58 84.5 165.58 84.5 162.58 78.5 162.58 78.5 132.58 78.5 132.58 78.5"/><polygon class="cls-2" points="222.58 36.5 213.58 60.5 213.58 60.5 219.58 63.5 219.58 63.5 240.58 60.5 240.58 60.5 246.58 54.5 246.58 54.5 237.58 42.5 237.58 42.5 222.58 36.5 222.58 36.5"/><polygon class="cls-2" points="201.58 60.5 198.58 63.5 198.58 63.5 189.58 75.5 189.58 75.5 201.58 87.5 201.58 87.5 210.58 84.5 210.58 84.5 219.58 93.5 219.58 93.5 225.58 87.5 225.58 87.5 216.58 78.5 216.58 78.5 219.58 63.5 219.58 63.5 213.58 60.5 213.58 60.5 201.58 60.5 201.58 60.5"/><polygon class="cls-2" points="219.58 63.5 216.58 78.5 216.58 78.5 225.58 87.5 225.58 87.5 240.58 87.5 240.58 87.5 246.58 84.5 246.58 84.5 249.58 66.5 249.58 66.5 252.58 57.5 252.58 57.5 246.58 54.5 246.58 54.5 240.58 60.5 240.58 60.5 219.58 63.5 219.58 63.5"/><polygon class="cls-2" points="195.58 81.5 174.58 102.5 174.58 102.5 183.58 111.5 183.58 111.5 201.58 111.5 201.58 111.5 204.58 120.5 204.58 120.5 219.58 111.5 219.58 111.5 222.58 99.5 222.58 99.5 219.58 93.5 219.58 93.5 210.58 84.5 210.58 84.5 201.58 87.5 201.58 87.5 195.58 81.5 195.58 81.5"/><polygon class="cls-2" points="225.58 87.5 219.58 93.5 219.58 93.5 222.58 99.5 222.58 99.5 219.58 111.5 219.58 111.5 231.58 117.5 231.58 117.5 243.58 111.5 243.58 111.5 252.58 114.5 252.58 114.5 261.58 111.5 261.58 111.5 249.58 96.5 249.58 96.5 249.58 90.5 249.58 90.5 246.58 84.5 246.58 84.5 240.58 87.5 240.58 87.5 225.58 87.5 225.58 87.5"/><polygon class="cls-2" points="252.58 57.5 249.58 66.5 249.58 66.5 246.58 84.5 246.58 84.5 249.58 90.5 249.58 90.5 258.58 90.5 258.58 90.5 279.58 81.5 279.58 81.5 270.58 63.5 270.58 63.5 264.58 60.5 264.58 60.5 252.58 57.5 252.58 57.5"/><polygon class="cls-2" points="249.58 90.5 249.58 96.5 249.58 96.5 261.58 111.5 261.58 111.5 279.58 120.5 279.58 120.5 291.58 120.5 291.58 120.5 300.58 120.5 300.58 120.5 279.58 81.5 279.58 81.5 258.58 90.5 258.58 90.5 249.58 90.5 249.58 90.5"/><polygon class="cls-3" points="177.58 123.5 159.58 141.5 159.58 141.5 168.58 147.5 168.58 147.5 189.58 165.5 189.58 165.5 207.58 141.5 207.58 141.5 195.58 129.5 195.58 129.5 183.58 129.5 183.58 129.5 177.58 123.5 177.58 123.5"/><polygon class="cls-3" points="204.58 120.5 195.58 129.5 195.58 129.5 207.58 141.5 207.58 141.5 219.58 153.5 219.58 153.5 231.58 147.5 231.58 147.5 231.58 135.5 231.58 135.5 216.58 126.5 216.58 126.5 207.58 126.5 207.58 126.5 204.58 120.5 204.58 120.5"/><polygon class="cls-3" points="204.58 120.5 207.58 126.5 207.58 126.5 216.58 126.5 216.58 126.5 231.58 135.5 231.58 135.5 234.58 129.5 234.58 129.5 231.58 117.5 231.58 117.5 219.58 111.5 219.58 111.5 204.58 120.5 204.58 120.5"/><polygon class="cls-3" points="231.58 117.5 234.58 129.5 234.58 129.5 231.58 135.5 231.58 135.5 231.58 147.5 231.58 147.5 246.58 153.5 246.58 153.5 258.58 153.5 258.58 153.5 264.58 147.5 264.58 147.5 258.58 141.5 258.58 141.5 270.58 126.5 270.58 126.5 279.58 120.5 279.58 120.5 261.58 111.5 261.58 111.5 252.58 114.5 252.58 114.5 243.58 111.5 243.58 111.5 231.58 117.5 231.58 117.5"/><polygon class="cls-3" points="18.58 105.5 21.58 126.5 21.58 126.5 54.58 126.5 54.58 126.5 54.58 120.5 54.58 120.5 60.58 120.5 60.58 120.5 66.58 105.5 66.58 105.5 18.58 105.5 18.58 105.5"/><polygon class="cls-3" points="168.58 147.5 165.58 156.5 165.58 156.5 153.58 171.5 153.58 171.5 165.58 180.5 165.58 180.5 174.58 192.5 174.58 192.5 180.58 183.5 180.58 183.5 192.58 177.5 192.58 177.5 192.58 171.5 192.58 171.5 189.58 165.5 189.58 165.5 168.58 147.5 168.58 147.5"/><polygon class="cls-3" points="207.58 141.5 189.58 165.5 189.58 165.5 192.58 171.5 192.58 171.5 192.58 174.5 192.58 174.5 207.58 183.5 207.58 183.5 231.58 177.5 231.58 177.5 231.58 171.5 231.58 171.5 219.58 153.5 219.58 153.5 207.58 141.5 207.58 141.5"/><polygon class="cls-3" points="0.58 0.5 6.58 42.5 6.58 42.5 15.58 27.5 15.58 27.5 18.58 15.5 18.58 15.5 24.58 0.5 24.58 0.5 0.58 0.5 0.58 0.5"/><polygon class="cls-3" points="24.58 0.5 18.58 15.5 18.58 15.5 15.58 27.5 15.58 27.5 6.58 42.5 6.58 42.5 6.58 45.5 6.58 45.5 57.58 45.5 57.58 45.5 57.58 30.5 57.58 30.5 45.58 30.5 45.58 30.5 45.58 24.5 45.58 24.5 42.58 24.5 42.58 24.5 42.58 15.5 42.58 15.5 36.58 15.5 36.58 15.5 36.58 0.5 36.58 0.5 24.58 0.5 24.58 0.5"/><polygon class="cls-3" points="36.58 0.5 36.58 3.5 36.58 3.5 36.58 15.5 36.58 15.5 42.58 15.5 42.58 15.5 42.58 24.5 42.58 24.5 45.58 24.5 45.58 24.5 48.58 18.5 48.58 18.5 54.58 18.5 54.58 18.5 54.58 12.5 54.58 12.5 57.58 12.5 57.58 12.5 63.58 0.5 63.58 0.5 36.58 0.5 36.58 0.5"/><polygon class="cls-3" points="63.58 0.5 57.58 12.5 57.58 12.5 54.58 12.5 54.58 12.5 54.58 18.5 54.58 18.5 48.58 18.5 48.58 18.5 45.58 24.5 45.58 24.5 45.58 30.5 45.58 30.5 57.58 30.5 57.58 30.5 57.58 42.5 57.58 42.5 69.58 42.5 69.58 42.5 66.58 36.5 66.58 36.5 72.58 30.5 72.58 30.5 72.58 18.5 72.58 18.5 81.58 0.5 81.58 0.5 63.58 0.5 63.58 0.5"/><polygon class="cls-3" points="81.58 0.5 72.58 18.5 72.58 18.5 72.58 30.5 72.58 30.5 66.58 36.5 66.58 36.5 69.58 42.5 69.58 42.5 87.58 42.5 87.58 42.5 93.58 48.5 93.58 48.5 93.58 27.5 93.58 27.5 99.58 18.5 99.58 18.5 96.58 15.5 96.58 15.5 96.58 0.5 96.58 0.5 81.58 0.5 81.58 0.5"/><polygon class="cls-3" points="96.58 0.5 96.58 15.5 96.58 15.5 117.58 15.5 117.58 15.5 129.58 21.5 129.58 21.5 135.58 36.5 135.58 36.5 141.58 45.5 141.58 45.5 144.58 39.5 144.58 39.5 150.58 30.5 150.58 30.5 150.58 21.5 150.58 21.5 144.58 18.5 144.58 18.5 147.58 12.5 147.58 12.5 141.58 3.5 141.58 3.5 144.58 0.5 144.58 0.5 96.58 0.5 96.58 0.5"/><polygon class="cls-3" points="144.58 0.5 141.58 3.5 141.58 3.5 147.58 12.5 147.58 12.5 144.58 18.5 144.58 18.5 150.58 21.5 150.58 21.5 150.58 30.5 150.58 30.5 144.58 39.5 144.58 39.5 156.58 42.5 156.58 42.5 162.58 27.5 162.58 27.5 171.58 33.5 171.58 33.5 174.58 24.5 174.58 24.5 180.58 24.5 180.58 24.5 174.58 9.5 174.58 9.5 165.58 6.5 165.58 6.5 162.58 0.5 162.58 0.5 144.58 0.5 144.58 0.5"/><polygon class="cls-3" points="162.58 0.5 165.58 6.5 165.58 6.5 174.58 9.5 174.58 9.5 180.58 24.5 180.58 24.5 189.58 21.5 189.58 21.5 192.58 18.5 192.58 18.5 192.58 9.5 192.58 9.5 201.58 6.5 201.58 6.5 201.58 0.5 201.58 0.5 162.58 0.5 162.58 0.5"/><polygon class="cls-3" points="201.58 0.5 201.58 6.5 201.58 6.5 192.58 9.5 192.58 9.5 192.58 18.5 192.58 18.5 198.58 18.5 198.58 18.5 204.58 30.5 204.58 30.5 219.58 30.5 219.58 30.5 225.58 21.5 225.58 21.5 243.58 6.5 243.58 6.5 243.58 0.5 243.58 0.5 201.58 0.5 201.58 0.5"/><polygon class="cls-3" points="6.58 45.5 12.58 81.5 12.58 81.5 21.58 81.5 21.58 81.5 27.58 72.5 27.58 72.5 42.58 63.5 42.58 63.5 51.58 45.5 51.58 45.5 6.58 45.5 6.58 45.5"/><polygon class="cls-3" points="51.58 45.5 42.58 63.5 42.58 63.5 27.58 72.5 27.58 72.5 21.58 81.5 21.58 81.5 12.58 81.5 12.58 81.5 18.58 105.5 18.58 105.5 54.58 105.5 54.58 105.5 54.58 90.5 54.58 90.5 57.58 90.5 57.58 90.5 57.58 69.5 57.58 69.5 51.58 69.5 51.58 69.5 51.58 45.5 51.58 45.5"/><polygon class="cls-3" points="57.58 42.5 57.58 45.5 57.58 45.5 51.58 45.5 51.58 45.5 51.58 69.5 51.58 69.5 93.58 69.5 93.58 69.5 93.58 48.5 93.58 48.5 87.58 42.5 87.58 42.5 57.58 42.5 57.58 42.5"/><polygon class="cls-3" points="96.58 15.5 99.58 18.5 99.58 18.5 93.58 27.5 93.58 27.5 93.58 51.5 93.58 51.5 126.58 51.5 126.58 51.5 132.58 48.5 132.58 48.5 132.58 45.5 132.58 45.5 141.58 45.5 141.58 45.5 135.58 36.5 135.58 36.5 129.58 21.5 129.58 21.5 117.58 15.5 117.58 15.5 96.58 15.5 96.58 15.5"/><polygon class="cls-3" points="93.58 51.5 93.58 69.5 93.58 69.5 102.58 69.5 102.58 69.5 102.58 72.5 102.58 72.5 132.58 72.5 132.58 72.5 132.58 63.5 132.58 63.5 126.58 63.5 126.58 63.5 126.58 51.5 126.58 51.5 93.58 51.5 93.58 51.5"/><polygon class="cls-3" points="132.58 45.5 132.58 48.5 132.58 48.5 126.58 51.5 126.58 51.5 126.58 63.5 126.58 63.5 132.58 63.5 132.58 63.5 132.58 78.5 132.58 78.5 162.58 78.5 162.58 78.5 159.58 75.5 159.58 75.5 159.58 66.5 159.58 66.5 147.58 63.5 147.58 63.5 141.58 54.5 141.58 54.5 141.58 45.5 141.58 45.5 132.58 45.5 132.58 45.5"/><polygon class="cls-3" points="144.58 39.5 141.58 45.5 141.58 45.5 141.58 54.5 141.58 54.5 147.58 63.5 147.58 63.5 159.58 66.5 159.58 66.5 174.58 57.5 174.58 57.5 171.58 51.5 171.58 51.5 171.58 33.5 171.58 33.5 162.58 27.5 162.58 27.5 156.58 42.5 156.58 42.5 144.58 39.5 144.58 39.5"/><polygon class="cls-3" points="174.58 24.5 171.58 33.5 171.58 33.5 171.58 51.5 171.58 51.5 174.58 57.5 174.58 57.5 192.58 57.5 192.58 57.5 195.58 51.5 195.58 51.5 189.58 39.5 189.58 39.5 195.58 30.5 195.58 30.5 192.58 24.5 192.58 24.5 189.58 21.5 189.58 21.5 180.58 24.5 180.58 24.5 174.58 24.5 174.58 24.5"/><polygon class="cls-3" points="189.58 21.5 192.58 24.5 192.58 24.5 195.58 30.5 195.58 30.5 189.58 39.5 189.58 39.5 195.58 51.5 195.58 51.5 192.58 57.5 192.58 57.5 198.58 63.5 198.58 63.5 201.58 60.5 201.58 60.5 213.58 60.5 213.58 60.5 222.58 36.5 222.58 36.5 219.58 30.5 219.58 30.5 204.58 30.5 204.58 30.5 198.58 18.5 198.58 18.5 192.58 18.5 192.58 18.5 189.58 21.5 189.58 21.5"/><polygon class="cls-3" points="57.58 69.5 57.58 90.5 57.58 90.5 54.58 90.5 54.58 90.5 54.58 105.5 54.58 105.5 93.58 105.5 93.58 105.5 93.58 69.5 93.58 69.5 57.58 69.5 57.58 69.5"/><polygon class="cls-3" points="102.58 72.5 102.58 69.5 102.58 69.5 93.58 69.5 93.58 69.5 93.58 105.5 93.58 105.5 117.58 105.5 117.58 105.5 117.58 102.5 117.58 102.5 123.58 102.5 123.58 102.5 123.58 96.5 123.58 96.5 132.58 96.5 132.58 96.5 132.58 72.5 132.58 72.5 102.58 72.5 102.58 72.5"/><polygon class="cls-3" points="159.58 75.5 162.58 78.5 162.58 78.5 165.58 84.5 165.58 84.5 159.58 93.5 159.58 93.5 153.58 96.5 153.58 96.5 171.58 105.5 171.58 105.5 177.58 99.5 177.58 99.5 195.58 81.5 195.58 81.5 189.58 75.5 189.58 75.5 198.58 63.5 198.58 63.5 192.58 57.5 192.58 57.5 174.58 57.5 174.58 57.5 159.58 66.5 159.58 66.5 159.58 75.5 159.58 75.5"/><polygon class="cls-3" points="132.58 78.5 132.58 102.5 132.58 102.5 147.58 111.5 147.58 111.5 153.58 96.5 153.58 96.5 159.58 93.5 159.58 93.5 165.58 84.5 165.58 84.5 162.58 78.5 162.58 78.5 132.58 78.5 132.58 78.5"/><polygon class="cls-3" points="222.58 36.5 213.58 60.5 213.58 60.5 219.58 63.5 219.58 63.5 240.58 60.5 240.58 60.5 246.58 54.5 246.58 54.5 237.58 42.5 237.58 42.5 222.58 36.5 222.58 36.5"/><polygon class="cls-3" points="201.58 60.5 198.58 63.5 198.58 63.5 189.58 75.5 189.58 75.5 201.58 87.5 201.58 87.5 210.58 84.5 210.58 84.5 219.58 93.5 219.58 93.5 225.58 87.5 225.58 87.5 216.58 78.5 216.58 78.5 219.58 63.5 219.58 63.5 213.58 60.5 213.58 60.5 201.58 60.5 201.58 60.5"/><polygon class="cls-3" points="219.58 63.5 216.58 78.5 216.58 78.5 225.58 87.5 225.58 87.5 240.58 87.5 240.58 87.5 246.58 84.5 246.58 84.5 249.58 66.5 249.58 66.5 252.58 57.5 252.58 57.5 246.58 54.5 246.58 54.5 240.58 60.5 240.58 60.5 219.58 63.5 219.58 63.5"/><polygon class="cls-3" points="195.58 81.5 174.58 102.5 174.58 102.5 183.58 111.5 183.58 111.5 201.58 111.5 201.58 111.5 204.58 120.5 204.58 120.5 219.58 111.5 219.58 111.5 222.58 99.5 222.58 99.5 219.58 93.5 219.58 93.5 210.58 84.5 210.58 84.5 201.58 87.5 201.58 87.5 195.58 81.5 195.58 81.5"/><polygon class="cls-3" points="225.58 87.5 219.58 93.5 219.58 93.5 222.58 99.5 222.58 99.5 219.58 111.5 219.58 111.5 231.58 117.5 231.58 117.5 243.58 111.5 243.58 111.5 252.58 114.5 252.58 114.5 261.58 111.5 261.58 111.5 249.58 96.5 249.58 96.5 249.58 90.5 249.58 90.5 246.58 84.5 246.58 84.5 240.58 87.5 240.58 87.5 225.58 87.5 225.58 87.5"/><polygon class="cls-3" points="252.58 57.5 249.58 66.5 249.58 66.5 246.58 84.5 246.58 84.5 249.58 90.5 249.58 90.5 258.58 90.5 258.58 90.5 279.58 81.5 279.58 81.5 270.58 63.5 270.58 63.5 264.58 60.5 264.58 60.5 252.58 57.5 252.58 57.5"/><polygon class="cls-3" points="249.58 90.5 249.58 96.5 249.58 96.5 261.58 111.5 261.58 111.5 279.58 120.5 279.58 120.5 291.58 120.5 291.58 120.5 300.58 120.5 300.58 120.5 279.58 81.5 279.58 81.5 258.58 90.5 258.58 90.5 249.58 90.5 249.58 90.5"/><polygon class="cls-3" points="174.58 102.5 171.58 105.5 171.58 105.5 171.58 117.5 171.58 117.5 177.58 123.5 177.58 123.5 183.58 129.5 183.58 129.5 195.58 129.5 195.58 129.5 204.58 120.5 204.58 120.5 201.58 111.5 201.58 111.5 183.58 111.5 183.58 111.5 174.58 102.5 174.58 102.5"/><polygon class="cls-4" points="117.58 102.5 117.58 111.5 117.58 111.5 120.58 120.5 120.58 120.5 114.58 126.5 114.58 126.5 111.58 138.5 111.58 138.5 102.58 147.5 102.58 147.5 75.58 165.5 75.58 165.5 75.58 174.5 75.58 174.5 99.58 174.5 99.58 174.5 114.58 168.5 114.58 168.5 114.58 156.5 114.58 156.5 126.58 156.5 126.58 156.5 126.58 120.5 126.58 120.5 132.58 120.5 132.58 120.5 147.58 111.5 147.58 111.5 132.58 102.5 132.58 102.5 132.58 96.5 132.58 96.5 123.58 96.5 123.58 96.5 123.58 102.5 123.58 102.5 117.58 102.5 117.58 102.5"/><polygon class="cls-4" points="153.58 96.5 147.58 111.5 147.58 111.5 132.58 120.5 132.58 120.5 132.58 126.5 132.58 126.5 153.58 147.5 153.58 147.5 177.58 123.5 177.58 123.5 171.58 117.5 171.58 117.5 171.58 105.5 171.58 105.5 153.58 96.5 153.58 96.5"/><polygon class="cls-4" points="87.58 105.5 87.58 138.5 87.58 138.5 96.58 138.5 96.58 138.5 102.58 147.5 102.58 147.5 111.58 138.5 111.58 138.5 114.58 126.5 114.58 126.5 120.58 120.5 120.58 120.5 117.58 111.5 117.58 111.5 117.58 105.5 117.58 105.5 87.58 105.5 87.58 105.5"/><polygon class="cls-4" points="153.58 147.5 147.58 162.5 147.58 162.5 141.58 156.5 141.58 156.5 144.58 168.5 144.58 168.5 153.58 171.5 153.58 171.5 165.58 156.5 165.58 156.5 168.58 147.5 168.58 147.5 159.58 141.5 159.58 141.5 153.58 147.5 153.58 147.5"/><polygon class="cls-4" points="129.58 156.5 132.58 165.5 132.58 165.5 129.58 171.5 129.58 171.5 129.58 183.5 129.58 183.5 123.58 183.5 123.58 183.5 123.58 192.5 123.58 192.5 132.58 192.5 132.58 192.5 132.58 195.5 132.58 195.5 144.58 195.5 144.58 195.5 150.58 201.5 150.58 201.5 165.58 180.5 165.58 180.5 153.58 171.5 153.58 171.5 144.58 168.5 144.58 168.5 141.58 156.5 141.58 156.5 129.58 156.5 129.58 156.5"/><polygon class="cls-4" points="126.58 120.5 126.58 156.5 126.58 156.5 141.58 156.5 141.58 156.5 147.58 162.5 147.58 162.5 153.58 147.5 153.58 147.5 132.58 126.5 132.58 126.5 132.58 120.5 132.58 120.5 126.58 120.5 126.58 120.5"/><polygon class="cls-4" points="114.58 156.5 114.58 168.5 114.58 168.5 120.58 177.5 120.58 177.5 120.58 192.5 120.58 192.5 123.58 192.5 123.58 192.5 123.58 183.5 123.58 183.5 129.58 183.5 129.58 183.5 129.58 171.5 129.58 171.5 132.58 165.5 132.58 165.5 129.58 156.5 129.58 156.5 114.58 156.5 114.58 156.5"/><polygon class="cls-5" points="165.58 180.5 150.58 201.5 150.58 201.5 147.58 207.5 147.58 207.5 147.58 210.5 147.58 210.5 174.58 210.5 174.58 210.5 180.58 213.5 180.58 213.5 177.58 201.5 177.58 201.5 174.58 192.5 174.58 192.5 165.58 180.5 165.58 180.5"/><polygon class="cls-5" points="174.58 192.5 177.58 201.5 177.58 201.5 180.58 213.5 180.58 213.5 180.58 219.5 180.58 219.5 207.58 216.5 207.58 216.5 207.58 183.5 207.58 183.5 192.58 174.5 192.58 174.5 192.58 177.5 192.58 177.5 180.58 183.5 180.58 183.5 174.58 192.5 174.58 192.5"/><polygon class="cls-5" points="135.58 213.5 135.58 234.5 135.58 234.5 147.58 234.5 147.58 234.5 147.58 243.5 147.58 243.5 156.58 243.5 156.58 243.5 156.58 210.5 156.58 210.5 147.58 210.5 147.58 210.5 147.58 213.5 147.58 213.5 135.58 213.5 135.58 213.5"/><polygon class="cls-5" points="156.58 210.5 156.58 243.5 156.58 243.5 147.58 243.5 147.58 243.5 147.58 252.5 147.58 252.5 171.58 252.5 171.58 252.5 192.58 240.5 192.58 240.5 180.58 219.5 180.58 219.5 180.58 213.5 180.58 213.5 174.58 210.5 174.58 210.5 156.58 210.5 156.58 210.5"/><polygon class="cls-5" points="180.58 219.5 192.58 240.5 192.58 240.5 195.58 246.5 195.58 246.5 210.58 252.5 210.58 252.5 219.58 246.5 219.58 246.5 225.58 243.5 225.58 243.5 219.58 216.5 219.58 216.5 207.58 216.5 207.58 216.5 180.58 219.5 180.58 219.5"/><polygon class="cls-5" points="192.58 240.5 171.58 252.5 171.58 252.5 171.58 258.5 171.58 258.5 177.58 264.5 177.58 264.5 189.58 270.5 189.58 270.5 201.58 273.5 201.58 273.5 198.58 267.5 198.58 267.5 213.58 255.5 213.58 255.5 210.58 252.5 210.58 252.5 195.58 246.5 195.58 246.5 192.58 240.5 192.58 240.5"/><polygon class="cls-5" points="246.58 234.5 225.58 243.5 225.58 243.5 219.58 246.5 219.58 246.5 237.58 282.5 237.58 282.5 267.58 267.5 267.58 267.5 267.58 261.5 267.58 261.5 255.58 240.5 255.58 240.5 246.58 234.5 246.58 234.5"/><polygon class="cls-5" points="147.58 252.5 147.58 258.5 147.58 258.5 141.58 270.5 141.58 270.5 147.58 273.5 147.58 273.5 153.58 282.5 153.58 282.5 159.58 288.5 159.58 288.5 183.58 267.5 183.58 267.5 177.58 264.5 177.58 264.5 171.58 258.5 171.58 258.5 171.58 252.5 171.58 252.5 147.58 252.5 147.58 252.5"/><polygon class="cls-5" points="183.58 267.5 159.58 288.5 159.58 288.5 159.58 291.5 159.58 291.5 168.58 291.5 168.58 291.5 177.58 300.5 177.58 300.5 180.58 300.5 180.58 300.5 180.58 291.5 180.58 291.5 186.58 288.5 186.58 288.5 186.58 276.5 186.58 276.5 189.58 270.5 189.58 270.5 183.58 267.5 183.58 267.5"/><polygon class="cls-5" points="189.58 270.5 186.58 276.5 186.58 276.5 186.58 288.5 186.58 288.5 180.58 291.5 180.58 291.5 180.58 300.5 180.58 300.5 177.58 300.5 177.58 300.5 177.58 318.5 177.58 318.5 195.58 318.5 195.58 318.5 210.58 303.5 210.58 303.5 210.58 300.5 210.58 300.5 204.58 285.5 204.58 285.5 201.58 273.5 201.58 273.5 189.58 270.5 189.58 270.5"/><polygon class="cls-5" points="210.58 252.5 213.58 255.5 213.58 255.5 198.58 267.5 198.58 267.5 201.58 273.5 201.58 273.5 204.58 285.5 204.58 285.5 210.58 300.5 210.58 300.5 237.58 282.5 237.58 282.5 219.58 246.5 219.58 246.5 210.58 252.5 210.58 252.5"/><polygon class="cls-5" points="237.58 282.5 243.58 297.5 243.58 297.5 261.58 333.5 261.58 333.5 273.58 327.5 273.58 327.5 288.58 315.5 288.58 315.5 285.58 312.5 285.58 312.5 291.58 297.5 291.58 297.5 294.58 291.5 294.58 291.5 291.58 288.5 291.58 288.5 291.58 279.5 291.58 279.5 279.58 273.5 279.58 273.5 279.58 270.5 279.58 270.5 273.58 267.5 273.58 267.5 267.58 267.5 267.58 267.5 237.58 282.5 237.58 282.5"/><polygon class="cls-5" points="210.58 303.5 195.58 318.5 195.58 318.5 198.58 318.5 198.58 318.5 198.58 336.5 198.58 336.5 222.58 336.5 222.58 336.5 228.58 339.5 228.58 339.5 231.58 336.5 231.58 336.5 228.58 333.5 228.58 333.5 231.58 330.5 231.58 330.5 222.58 321.5 222.58 321.5 225.58 318.5 225.58 318.5 210.58 303.5 210.58 303.5"/><polygon class="cls-5" points="228.58 309.5 231.58 312.5 231.58 312.5 222.58 321.5 222.58 321.5 231.58 330.5 231.58 330.5 228.58 333.5 228.58 333.5 231.58 336.5 231.58 336.5 228.58 339.5 228.58 339.5 231.58 354.5 231.58 354.5 240.58 363.5 240.58 363.5 270.58 333.5 270.58 333.5 273.58 327.5 273.58 327.5 261.58 333.5 261.58 333.5 243.58 297.5 243.58 297.5 228.58 309.5 228.58 309.5"/><polygon class="cls-5" points="156.58 330.5 162.58 348.5 162.58 348.5 198.58 348.5 198.58 348.5 198.58 318.5 198.58 318.5 168.58 318.5 168.58 318.5 156.58 330.5 156.58 330.5"/><polygon class="cls-5" points="207.58 183.5 207.58 216.5 207.58 216.5 228.58 216.5 228.58 216.5 234.58 213.5 234.58 213.5 237.58 204.5 237.58 204.5 243.58 198.5 243.58 198.5 243.58 192.5 243.58 192.5 231.58 177.5 231.58 177.5 207.58 183.5 207.58 183.5"/><polygon class="cls-5" points="219.58 216.5 225.58 243.5 225.58 243.5 246.58 234.5 246.58 234.5 255.58 240.5 255.58 240.5 255.58 225.5 255.58 225.5 249.58 228.5 249.58 228.5 252.58 216.5 252.58 216.5 234.58 213.5 234.58 213.5 228.58 216.5 228.58 216.5 219.58 216.5 219.58 216.5"/><polygon class="cls-5" points="210.58 300.5 210.58 303.5 210.58 303.5 225.58 318.5 225.58 318.5 231.58 312.5 231.58 312.5 228.58 309.5 228.58 309.5 243.58 297.5 243.58 297.5 237.58 282.5 237.58 282.5 210.58 300.5 210.58 300.5"/><polygon class="cls-6" points="66.58 105.5 60.58 120.5 60.58 120.5 54.58 120.5 54.58 120.5 54.58 138.5 54.58 138.5 69.58 141.5 69.58 141.5 87.58 141.5 87.58 141.5 87.58 105.5 87.58 105.5 66.58 105.5 66.58 105.5"/><polygon class="cls-6" points="21.58 126.5 27.58 156.5 27.58 156.5 54.58 150.5 54.58 150.5 54.58 126.5 54.58 126.5 21.58 126.5 21.58 126.5"/><polygon class="cls-6" points="54.58 138.5 54.58 150.5 54.58 150.5 27.58 156.5 27.58 156.5 30.58 186.5 30.58 186.5 57.58 186.5 57.58 186.5 60.58 180.5 60.58 180.5 66.58 183.5 66.58 183.5 75.58 174.5 75.58 174.5 75.58 165.5 75.58 165.5 69.58 165.5 69.58 165.5 69.58 141.5 69.58 141.5 54.58 138.5 54.58 138.5"/><polygon class="cls-6" points="57.58 186.5 30.58 186.5 30.58 186.5 36.58 219.5 36.58 219.5 66.58 207.5 66.58 207.5 57.58 186.5 57.58 186.5"/><polygon class="cls-6" points="60.58 180.5 57.58 186.5 57.58 186.5 66.58 207.5 66.58 207.5 108.58 207.5 108.58 207.5 108.58 201.5 108.58 201.5 105.58 195.5 105.58 195.5 99.58 186.5 99.58 186.5 99.58 174.5 99.58 174.5 75.58 174.5 75.58 174.5 66.58 183.5 66.58 183.5 60.58 180.5 60.58 180.5"/><polygon class="cls-6" points="99.58 174.5 99.58 186.5 99.58 186.5 105.58 195.5 105.58 195.5 108.58 201.5 108.58 201.5 117.58 201.5 117.58 201.5 120.58 192.5 120.58 192.5 120.58 177.5 120.58 177.5 114.58 168.5 114.58 168.5 114.58 168.5 114.58 168.5 99.58 174.5 99.58 174.5"/><polygon class="cls-6" points="36.58 219.5 42.58 249.5 42.58 249.5 72.58 249.5 72.58 249.5 72.58 207.5 72.58 207.5 66.58 207.5 66.58 207.5 36.58 219.5 36.58 219.5"/><polygon class="cls-6" points="72.58 207.5 72.58 249.5 72.58 249.5 81.58 249.5 81.58 249.5 90.58 252.5 90.58 252.5 102.58 252.5 102.58 252.5 111.58 246.5 111.58 246.5 108.58 237.5 108.58 237.5 108.58 216.5 108.58 216.5 111.58 210.5 111.58 210.5 108.58 207.5 108.58 207.5 72.58 207.5 72.58 207.5"/><polygon class="cls-6" points="108.58 207.5 111.58 210.5 111.58 210.5 123.58 210.5 123.58 210.5 123.58 213.5 123.58 213.5 147.58 213.5 147.58 213.5 147.58 207.5 147.58 207.5 150.58 201.5 150.58 201.5 144.58 195.5 144.58 195.5 132.58 195.5 132.58 195.5 132.58 192.5 132.58 192.5 120.58 192.5 120.58 192.5 117.58 201.5 117.58 201.5 108.58 201.5 108.58 201.5 108.58 207.5 108.58 207.5"/><polygon class="cls-6" points="111.58 210.5 108.58 216.5 108.58 216.5 108.58 237.5 108.58 237.5 111.58 234.5 111.58 234.5 135.58 234.5 135.58 234.5 135.58 213.5 135.58 213.5 123.58 213.5 123.58 213.5 123.58 210.5 123.58 210.5 111.58 210.5 111.58 210.5"/><polygon class="cls-6" points="42.58 249.5 51.58 279.5 51.58 279.5 69.58 279.5 69.58 279.5 69.58 282.5 69.58 282.5 87.58 282.5 87.58 282.5 90.58 252.5 90.58 252.5 81.58 249.5 81.58 249.5 42.58 249.5 42.58 249.5"/><polygon class="cls-6" points="111.58 234.5 108.58 237.5 108.58 237.5 111.58 246.5 111.58 246.5 129.58 264.5 129.58 264.5 141.58 270.5 141.58 270.5 147.58 258.5 147.58 258.5 147.58 234.5 147.58 234.5 111.58 234.5 111.58 234.5"/><polygon class="cls-6" points="90.58 252.5 87.58 282.5 87.58 282.5 90.58 288.5 90.58 288.5 102.58 288.5 102.58 288.5 102.58 285.5 102.58 285.5 117.58 285.5 117.58 285.5 117.58 279.5 117.58 279.5 129.58 264.5 129.58 264.5 111.58 246.5 111.58 246.5 102.58 252.5 102.58 252.5 90.58 252.5 90.58 252.5"/><polygon class="cls-6" points="60.58 306.5 57.58 309.5 57.58 309.5 66.58 321.5 66.58 321.5 63.58 324.5 63.58 324.5 93.58 324.5 93.58 324.5 93.58 288.5 93.58 288.5 90.58 288.5 90.58 288.5 81.58 303.5 81.58 303.5 60.58 306.5 60.58 306.5"/><polygon class="cls-6" points="93.58 288.5 93.58 324.5 93.58 324.5 96.58 324.5 96.58 324.5 108.58 336.5 108.58 336.5 114.58 336.5 114.58 336.5 114.58 324.5 114.58 324.5 117.58 324.5 117.58 324.5 117.58 303.5 117.58 303.5 114.58 285.5 114.58 285.5 102.58 285.5 102.58 285.5 102.58 288.5 102.58 288.5 93.58 288.5 93.58 288.5"/><polygon class="cls-6" points="126.58 306.5 120.58 303.5 120.58 303.5 117.58 303.5 117.58 303.5 117.58 324.5 117.58 324.5 114.58 324.5 114.58 324.5 114.58 333.5 114.58 333.5 141.58 333.5 141.58 333.5 141.58 324.5 141.58 324.5 138.58 324.5 138.58 324.5 138.58 318.5 138.58 318.5 132.58 318.5 132.58 318.5 132.58 306.5 132.58 306.5 126.58 306.5 126.58 306.5"/><polygon class="cls-6" points="117.58 285.5 114.58 285.5 114.58 285.5 117.58 303.5 117.58 303.5 120.58 303.5 120.58 303.5 126.58 306.5 126.58 306.5 132.58 306.5 132.58 306.5 132.58 303.5 132.58 303.5 138.58 303.5 138.58 303.5 147.58 291.5 147.58 291.5 159.58 291.5 159.58 291.5 159.58 288.5 159.58 288.5 153.58 282.5 153.58 282.5 147.58 273.5 147.58 273.5 141.58 270.5 141.58 270.5 129.58 264.5 129.58 264.5 117.58 279.5 117.58 279.5 117.58 285.5 117.58 285.5"/><polygon class="cls-6" points="96.58 324.5 93.58 324.5 93.58 324.5 93.58 360.5 93.58 360.5 114.58 360.5 114.58 360.5 114.58 336.5 114.58 336.5 108.58 336.5 108.58 336.5 96.58 324.5 96.58 324.5"/><polygon class="cls-6" points="69.58 141.5 69.58 165.5 69.58 165.5 75.58 165.5 75.58 165.5 102.58 147.5 102.58 147.5 96.58 138.5 96.58 138.5 87.58 138.5 87.58 138.5 87.58 141.5 87.58 141.5 69.58 141.5 69.58 141.5"/><polygon class="cls-6" points="51.58 279.5 60.58 297.5 60.58 297.5 60.58 306.5 60.58 306.5 81.58 303.5 81.58 303.5 90.58 288.5 90.58 288.5 87.58 282.5 87.58 282.5 69.58 282.5 69.58 282.5 69.58 279.5 69.58 279.5 51.58 279.5 51.58 279.5"/><polygon class="cls-6" points="147.58 291.5 138.58 303.5 138.58 303.5 132.58 303.5 132.58 303.5 132.58 318.5 132.58 318.5 138.58 318.5 138.58 318.5 138.58 324.5 138.58 324.5 147.58 324.5 147.58 324.5 147.58 330.5 147.58 330.5 156.58 330.5 156.58 330.5 168.58 318.5 168.58 318.5 177.58 318.5 177.58 318.5 177.58 300.5 177.58 300.5 168.58 291.5 168.58 291.5 147.58 291.5 147.58 291.5"/><polygon class="cls-6" points="63.58 324.5 51.58 333.5 51.58 333.5 51.58 351.5 51.58 351.5 60.58 351.5 60.58 351.5 66.58 360.5 66.58 360.5 93.58 360.5 93.58 360.5 93.58 324.5 93.58 324.5 63.58 324.5 63.58 324.5"/><polygon class="cls-6" points="114.58 333.5 114.58 357.5 114.58 357.5 126.58 366.5 126.58 366.5 126.58 360.5 126.58 360.5 165.58 360.5 165.58 360.5 162.58 348.5 162.58 348.5 156.58 330.5 156.58 330.5 147.58 330.5 147.58 330.5 147.58 324.5 147.58 324.5 141.58 324.5 141.58 324.5 141.58 333.5 141.58 333.5 114.58 333.5 114.58 333.5"/><polygon class="cls-7" points="294.58 315.5 300.58 348.5 300.58 348.5 306.58 357.5 306.58 357.5 312.58 354.5 312.58 354.5 318.58 309.5 318.58 309.5 294.58 315.5 294.58 315.5"/><polygon class="cls-7" points="162.58 348.5 165.58 360.5 165.58 360.5 165.58 369.5 165.58 369.5 180.58 375.5 180.58 375.5 198.58 375.5 198.58 375.5 198.58 348.5 198.58 348.5 162.58 348.5 162.58 348.5"/><polygon class="cls-7" points="198.58 336.5 198.58 369.5 198.58 369.5 243.58 369.5 243.58 369.5 240.58 363.5 240.58 363.5 231.58 354.5 231.58 354.5 228.58 339.5 228.58 339.5 222.58 336.5 222.58 336.5 198.58 336.5 198.58 336.5"/><polygon class="cls-7" points="240.58 363.5 243.58 369.5 243.58 369.5 261.58 378.5 261.58 378.5 279.58 375.5 279.58 375.5 294.58 360.5 294.58 360.5 279.58 345.5 279.58 345.5 267.58 336.5 267.58 336.5 240.58 363.5 240.58 363.5"/><polygon class="cls-7" points="270.58 333.5 267.58 336.5 267.58 336.5 279.58 345.5 279.58 345.5 294.58 360.5 294.58 360.5 306.58 357.5 306.58 357.5 300.58 348.5 300.58 348.5 294.58 315.5 294.58 315.5 288.58 315.5 288.58 315.5 273.58 327.5 273.58 327.5 270.58 333.5 270.58 333.5"/><polygon class="cls-7" points="285.58 312.5 288.58 315.5 288.58 315.5 294.58 315.5 294.58 315.5 318.58 309.5 318.58 309.5 321.58 300.5 321.58 300.5 294.58 291.5 294.58 291.5 291.58 297.5 291.58 297.5 285.58 312.5 285.58 312.5"/><polygon class="cls-7" points="357.58 288.5 351.58 285.5 351.58 285.5 342.58 291.5 342.58 291.5 333.58 309.5 333.58 309.5 336.58 315.5 336.58 315.5 357.58 315.5 357.58 315.5 363.58 318.5 363.58 318.5 369.58 300.5 369.58 300.5 363.58 291.5 363.58 291.5 357.58 288.5 357.58 288.5"/><polygon class="cls-7" points="360.58 279.5 357.58 288.5 357.58 288.5 363.58 291.5 363.58 291.5 369.58 300.5 369.58 300.5 363.58 318.5 363.58 318.5 372.58 318.5 372.58 318.5 381.58 324.5 381.58 324.5 384.58 333.5 384.58 333.5 417.58 321.5 417.58 321.5 414.58 309.5 414.58 309.5 405.58 300.5 405.58 300.5 405.58 291.5 405.58 291.5 378.58 273.5 378.58 273.5 360.58 279.5 360.58 279.5"/><polygon class="cls-7" points="336.58 315.5 342.58 330.5 342.58 330.5 339.58 360.5 339.58 360.5 351.58 363.5 351.58 363.5 357.58 372.5 357.58 372.5 366.58 375.5 366.58 375.5 372.58 354.5 372.58 354.5 378.58 348.5 378.58 348.5 384.58 345.5 384.58 345.5 372.58 345.5 372.58 345.5 363.58 339.5 363.58 339.5 357.58 315.5 357.58 315.5 336.58 315.5 336.58 315.5"/><polygon class="cls-7" points="51.58 351.5 45.58 363.5 45.58 363.5 42.58 375.5 42.58 375.5 66.58 375.5 66.58 375.5 66.58 360.5 66.58 360.5 60.58 351.5 60.58 351.5 51.58 351.5 51.58 351.5"/><polygon class="cls-7" points="66.58 360.5 66.58 375.5 66.58 375.5 63.58 375.5 63.58 375.5 63.58 396.5 63.58 396.5 105.58 396.5 105.58 396.5 102.58 378.5 102.58 378.5 96.58 378.5 96.58 378.5 96.58 360.5 96.58 360.5 66.58 360.5 66.58 360.5"/><polygon class="cls-7" points="114.58 333.5 114.58 357.5 114.58 357.5 126.58 366.5 126.58 366.5 126.58 360.5 126.58 360.5 165.58 360.5 165.58 360.5 162.58 348.5 162.58 348.5 156.58 330.5 156.58 330.5 147.58 330.5 147.58 330.5 147.58 324.5 147.58 324.5 141.58 324.5 141.58 324.5 141.58 333.5 141.58 333.5 114.58 333.5 114.58 333.5"/><polygon class="cls-7" points="96.58 360.5 96.58 378.5 96.58 378.5 102.58 378.5 102.58 378.5 105.58 396.5 105.58 396.5 129.58 396.5 129.58 396.5 129.58 375.5 129.58 375.5 132.58 375.5 132.58 375.5 132.58 372.5 132.58 372.5 126.58 366.5 126.58 366.5 126.58 366.5 126.58 366.5 114.58 357.5 114.58 357.5 114.58 360.5 114.58 360.5 96.58 360.5 96.58 360.5"/><polygon class="cls-7" points="132.58 375.5 129.58 375.5 129.58 375.5 129.58 396.5 129.58 396.5 153.58 396.5 153.58 396.5 159.58 393.5 159.58 393.5 156.58 384.5 156.58 384.5 159.58 375.5 159.58 375.5 165.58 369.5 165.58 369.5 165.58 360.5 165.58 360.5 126.58 360.5 126.58 360.5 126.58 366.5 126.58 366.5 132.58 372.5 132.58 372.5 132.58 375.5 132.58 375.5"/><polygon class="cls-7" points="165.58 369.5 159.58 375.5 159.58 375.5 156.58 384.5 156.58 384.5 159.58 393.5 159.58 393.5 159.58 429.5 159.58 429.5 195.58 429.5 195.58 429.5 195.58 402.5 195.58 402.5 189.58 396.5 189.58 396.5 180.58 396.5 180.58 396.5 180.58 375.5 180.58 375.5 165.58 369.5 165.58 369.5"/><polygon class="cls-7" points="180.58 375.5 180.58 396.5 180.58 396.5 189.58 396.5 189.58 396.5 195.58 402.5 195.58 402.5 195.58 399.5 195.58 399.5 213.58 399.5 213.58 399.5 213.58 387.5 213.58 387.5 216.58 387.5 216.58 387.5 216.58 378.5 216.58 378.5 213.58 369.5 213.58 369.5 198.58 369.5 198.58 369.5 198.58 375.5 198.58 375.5 180.58 375.5 180.58 375.5"/><polygon class="cls-7" points="213.58 369.5 216.58 378.5 216.58 378.5 228.58 378.5 228.58 378.5 228.58 390.5 228.58 390.5 234.58 390.5 234.58 390.5 234.58 393.5 234.58 393.5 246.58 393.5 246.58 393.5 246.58 390.5 246.58 390.5 261.58 390.5 261.58 390.5 261.58 378.5 261.58 378.5 243.58 369.5 243.58 369.5 213.58 369.5 213.58 369.5"/><polygon class="cls-7" points="216.58 387.5 213.58 387.5 213.58 387.5 213.58 402.5 213.58 402.5 219.58 405.5 219.58 405.5 225.58 414.5 225.58 414.5 249.58 414.5 249.58 414.5 255.58 405.5 255.58 405.5 261.58 390.5 261.58 390.5 246.58 390.5 246.58 390.5 246.58 393.5 246.58 393.5 234.58 393.5 234.58 393.5 234.58 390.5 234.58 390.5 228.58 390.5 228.58 390.5 228.58 378.5 228.58 378.5 216.58 378.5 216.58 378.5 216.58 387.5 216.58 387.5"/><polygon class="cls-7" points="261.58 378.5 261.58 390.5 261.58 390.5 255.58 405.5 255.58 405.5 249.58 414.5 249.58 414.5 246.58 414.5 246.58 414.5 249.58 420.5 249.58 420.5 267.58 420.5 267.58 420.5 267.58 423.5 267.58 423.5 279.58 423.5 279.58 423.5 282.58 426.5 282.58 426.5 300.58 426.5 300.58 426.5 300.58 414.5 300.58 414.5 303.58 414.5 303.58 414.5 303.58 405.5 303.58 405.5 300.58 405.5 300.58 405.5 300.58 390.5 300.58 390.5 279.58 390.5 279.58 390.5 279.58 375.5 279.58 375.5 261.58 378.5 261.58 378.5"/><polygon class="cls-7" points="279.58 375.5 279.58 390.5 279.58 390.5 309.58 390.5 309.58 390.5 309.58 372.5 309.58 372.5 318.58 372.5 318.58 372.5 318.58 357.5 318.58 357.5 312.58 354.5 312.58 354.5 306.58 357.5 306.58 357.5 294.58 360.5 294.58 360.5 279.58 375.5 279.58 375.5"/><polygon class="cls-7" points="318.58 357.5 318.58 372.5 318.58 372.5 309.58 372.5 309.58 372.5 309.58 384.5 309.58 384.5 339.58 405.5 339.58 405.5 351.58 411.5 351.58 411.5 351.58 378.5 351.58 378.5 357.58 372.5 357.58 372.5 351.58 363.5 351.58 363.5 339.58 360.5 339.58 360.5 318.58 357.5 318.58 357.5"/><polygon class="cls-7" points="357.58 372.5 351.58 378.5 351.58 378.5 351.58 411.5 351.58 411.5 357.58 411.5 357.58 411.5 360.58 426.5 360.58 426.5 384.58 423.5 384.58 423.5 393.58 429.5 393.58 429.5 402.58 414.5 402.58 414.5 399.58 402.5 399.58 402.5 366.58 375.5 366.58 375.5 357.58 372.5 357.58 372.5"/><polygon class="cls-7" points="300.58 405.5 303.58 405.5 303.58 405.5 303.58 414.5 303.58 414.5 312.58 414.5 312.58 414.5 312.58 420.5 312.58 420.5 321.58 420.5 321.58 420.5 321.58 417.5 321.58 417.5 327.58 417.5 327.58 417.5 339.58 405.5 339.58 405.5 339.58 405.5 339.58 405.5 309.58 384.5 309.58 384.5 309.58 390.5 309.58 390.5 300.58 390.5 300.58 390.5 300.58 405.5 300.58 405.5"/><polygon class="cls-7" points="339.58 405.5 327.58 417.5 327.58 417.5 321.58 417.5 321.58 417.5 321.58 426.5 321.58 426.5 324.58 426.5 324.58 426.5 324.58 435.5 324.58 435.5 336.58 444.5 336.58 444.5 345.58 444.5 345.58 444.5 354.58 435.5 354.58 435.5 366.58 435.5 366.58 435.5 360.58 426.5 360.58 426.5 357.58 411.5 357.58 411.5 351.58 411.5 351.58 411.5 339.58 405.5 339.58 405.5"/><polygon class="cls-7" points="42.58 375.5 45.58 387.5 45.58 387.5 51.58 396.5 51.58 396.5 51.58 408.5 51.58 408.5 54.58 408.5 54.58 408.5 54.58 411.5 54.58 411.5 63.58 411.5 63.58 411.5 75.58 408.5 75.58 408.5 75.58 396.5 75.58 396.5 63.58 396.5 63.58 396.5 63.58 375.5 63.58 375.5 42.58 375.5 42.58 375.5"/><polygon class="cls-7" points="75.58 396.5 75.58 408.5 75.58 408.5 78.58 417.5 78.58 417.5 114.58 417.5 114.58 417.5 117.58 414.5 117.58 414.5 111.58 402.5 111.58 402.5 114.58 396.5 114.58 396.5 75.58 396.5 75.58 396.5"/><polygon class="cls-7" points="114.58 396.5 111.58 402.5 111.58 402.5 117.58 414.5 117.58 414.5 114.58 417.5 114.58 417.5 159.58 417.5 159.58 417.5 159.58 393.5 159.58 393.5 153.58 396.5 153.58 396.5 114.58 396.5 114.58 396.5"/><polygon class="cls-7" points="195.58 399.5 195.58 429.5 195.58 429.5 210.58 429.5 210.58 429.5 219.58 426.5 219.58 426.5 225.58 423.5 225.58 423.5 225.58 414.5 225.58 414.5 219.58 405.5 219.58 405.5 213.58 402.5 213.58 402.5 213.58 399.5 213.58 399.5 195.58 399.5 195.58 399.5"/><polygon class="cls-7" points="225.58 414.5 225.58 423.5 225.58 423.5 219.58 426.5 219.58 426.5 219.58 432.5 219.58 432.5 228.58 441.5 228.58 441.5 231.58 450.5 231.58 450.5 231.58 459.5 231.58 459.5 231.58 465.5 231.58 465.5 243.58 465.5 243.58 465.5 243.58 459.5 243.58 459.5 246.58 459.5 246.58 459.5 246.58 450.5 246.58 450.5 258.58 450.5 258.58 450.5 258.58 435.5 258.58 435.5 249.58 420.5 249.58 420.5 246.58 414.5 246.58 414.5 225.58 414.5 225.58 414.5"/><polygon class="cls-7" points="249.58 420.5 258.58 435.5 258.58 435.5 258.58 447.5 258.58 447.5 294.58 447.5 294.58 447.5 291.58 441.5 291.58 441.5 291.58 435.5 291.58 435.5 300.58 435.5 300.58 435.5 300.58 426.5 300.58 426.5 282.58 426.5 282.58 426.5 279.58 423.5 279.58 423.5 267.58 423.5 267.58 423.5 267.58 420.5 267.58 420.5 249.58 420.5 249.58 420.5"/><polygon class="cls-7" points="324.58 426.5 321.58 426.5 321.58 426.5 321.58 420.5 321.58 420.5 312.58 420.5 312.58 420.5 312.58 414.5 312.58 414.5 300.58 414.5 300.58 414.5 300.58 435.5 300.58 435.5 291.58 435.5 291.58 435.5 291.58 441.5 291.58 441.5 294.58 447.5 294.58 447.5 303.58 468.5 303.58 468.5 309.58 471.5 309.58 471.5 312.58 471.5 312.58 471.5 312.58 489.5 312.58 489.5 321.58 489.5 321.58 489.5 321.58 516.5 321.58 516.5 342.58 516.5 342.58 516.5 351.58 492.5 351.58 492.5 324.58 492.5 324.58 492.5 324.58 465.5 324.58 465.5 351.58 465.5 351.58 465.5 342.58 456.5 342.58 456.5 342.58 450.5 342.58 450.5 336.58 447.5 336.58 447.5 336.58 444.5 336.58 444.5 324.58 435.5 324.58 435.5 324.58 426.5 324.58 426.5"/><polygon class="cls-7" points="54.58 408.5 51.58 408.5 51.58 408.5 48.58 432.5 48.58 432.5 45.58 447.5 45.58 447.5 54.58 459.5 54.58 459.5 66.58 459.5 66.58 459.5 66.58 438.5 66.58 438.5 93.58 438.5 93.58 438.5 93.58 417.5 93.58 417.5 78.58 417.5 78.58 417.5 75.58 408.5 75.58 408.5 63.58 411.5 63.58 411.5 54.58 411.5 54.58 411.5 54.58 408.5 54.58 408.5"/><polygon class="cls-7" points="93.58 417.5 93.58 438.5 93.58 438.5 105.58 438.5 105.58 438.5 105.58 459.5 105.58 459.5 108.58 459.5 108.58 459.5 108.58 453.5 108.58 453.5 129.58 432.5 129.58 432.5 138.58 426.5 138.58 426.5 144.58 417.5 144.58 417.5 93.58 417.5 93.58 417.5"/><polygon class="cls-7" points="144.58 417.5 138.58 426.5 138.58 426.5 129.58 432.5 129.58 432.5 108.58 453.5 108.58 453.5 108.58 459.5 108.58 459.5 159.58 459.5 159.58 459.5 159.58 417.5 159.58 417.5 144.58 417.5 144.58 417.5"/><polygon class="cls-7" points="66.58 438.5 66.58 459.5 66.58 459.5 105.58 459.5 105.58 459.5 105.58 438.5 105.58 438.5 66.58 438.5 66.58 438.5"/><polygon class="cls-7" points="159.58 429.5 159.58 465.5 159.58 465.5 201.58 465.5 201.58 465.5 201.58 462.5 201.58 462.5 210.58 444.5 210.58 444.5 210.58 429.5 210.58 429.5 159.58 429.5 159.58 429.5"/><polygon class="cls-7" points="219.58 426.5 210.58 429.5 210.58 429.5 210.58 444.5 210.58 444.5 201.58 462.5 201.58 462.5 213.58 465.5 213.58 465.5 231.58 465.5 231.58 465.5 231.58 450.5 231.58 450.5 228.58 441.5 228.58 441.5 219.58 432.5 219.58 432.5 219.58 426.5 219.58 426.5"/><polygon class="cls-7" points="258.58 447.5 258.58 450.5 258.58 450.5 246.58 450.5 246.58 450.5 246.58 459.5 246.58 459.5 243.58 459.5 243.58 459.5 243.58 465.5 243.58 465.5 246.58 465.5 246.58 465.5 246.58 474.5 246.58 474.5 258.58 474.5 258.58 474.5 258.58 486.5 258.58 486.5 264.58 483.5 264.58 483.5 264.58 447.5 264.58 447.5 258.58 447.5 258.58 447.5"/><polygon class="cls-7" points="264.58 447.5 264.58 483.5 264.58 483.5 279.58 489.5 279.58 489.5 285.58 501.5 285.58 501.5 303.58 504.5 303.58 504.5 303.58 516.5 303.58 516.5 321.58 516.5 321.58 516.5 321.58 489.5 321.58 489.5 312.58 489.5 312.58 489.5 312.58 471.5 312.58 471.5 309.58 471.5 309.58 471.5 303.58 468.5 303.58 468.5 294.58 447.5 294.58 447.5 264.58 447.5 264.58 447.5"/><polygon class="cls-7" points="54.58 459.5 66.58 498.5 66.58 498.5 72.58 504.5 72.58 504.5 75.58 492.5 75.58 492.5 81.58 480.5 81.58 480.5 81.58 465.5 81.58 465.5 84.58 459.5 84.58 459.5 54.58 459.5 54.58 459.5"/><polygon class="cls-7" points="84.58 459.5 81.58 465.5 81.58 465.5 81.58 480.5 81.58 480.5 75.58 492.5 75.58 492.5 72.58 504.5 72.58 504.5 123.58 507.5 123.58 507.5 123.58 459.5 123.58 459.5 84.58 459.5 84.58 459.5"/><polygon class="cls-7" points="123.58 459.5 123.58 507.5 123.58 507.5 150.58 507.5 150.58 507.5 153.58 477.5 153.58 477.5 147.58 471.5 147.58 471.5 147.58 459.5 147.58 459.5 123.58 459.5 123.58 459.5"/><polygon class="cls-7" points="147.58 459.5 147.58 471.5 147.58 471.5 153.58 477.5 153.58 477.5 150.58 507.5 150.58 507.5 186.58 510.5 186.58 510.5 186.58 465.5 186.58 465.5 159.58 465.5 159.58 465.5 159.58 459.5 159.58 459.5 147.58 459.5 147.58 459.5"/><polygon class="cls-7" points="186.58 465.5 186.58 510.5 186.58 510.5 225.58 513.5 225.58 513.5 216.58 504.5 216.58 504.5 216.58 492.5 216.58 492.5 225.58 489.5 225.58 489.5 216.58 483.5 216.58 483.5 213.58 465.5 213.58 465.5 201.58 462.5 201.58 462.5 201.58 465.5 201.58 465.5 186.58 465.5 186.58 465.5"/><polygon class="cls-7" points="213.58 465.5 216.58 483.5 216.58 483.5 225.58 489.5 225.58 489.5 216.58 492.5 216.58 492.5 216.58 504.5 216.58 504.5 225.58 513.5 225.58 513.5 249.58 513.5 249.58 513.5 249.58 495.5 249.58 495.5 252.58 495.5 252.58 495.5 252.58 489.5 252.58 489.5 258.58 486.5 258.58 486.5 258.58 474.5 258.58 474.5 246.58 474.5 246.58 474.5 246.58 465.5 246.58 465.5 213.58 465.5 213.58 465.5"/><polygon class="cls-7" points="252.58 495.5 249.58 495.5 249.58 495.5 249.58 513.5 249.58 513.5 303.58 516.5 303.58 516.5 303.58 504.5 303.58 504.5 285.58 501.5 285.58 501.5 279.58 489.5 279.58 489.5 264.58 483.5 264.58 483.5 258.58 486.5 258.58 486.5 252.58 489.5 252.58 489.5 252.58 495.5 252.58 495.5"/><polygon class="cls-7" points="336.58 444.5 336.58 447.5 336.58 447.5 342.58 450.5 342.58 450.5 342.58 456.5 342.58 456.5 351.58 465.5 351.58 465.5 357.58 465.5 357.58 465.5 360.58 459.5 360.58 459.5 372.58 462.5 372.58 462.5 375.58 456.5 375.58 456.5 381.58 456.5 381.58 456.5 387.58 447.5 387.58 447.5 393.58 429.5 393.58 429.5 384.58 423.5 384.58 423.5 360.58 426.5 360.58 426.5 366.58 435.5 366.58 435.5 354.58 435.5 354.58 435.5 345.58 444.5 345.58 444.5 336.58 444.5 336.58 444.5"/><polygon class="cls-7" points="360.09 460.01 357.09 466.01 357.09 466.01 324.09 466.01 324.09 466.01 324.09 493.01 324.09 493.01 351.09 493.01 351.09 493.01 342.09 517.01 342.09 517.01 351.09 544.01 351.09 544.01 363.09 541.01 363.09 541.01 363.09 517.01 363.09 517.01 360.09 508.01 360.09 508.01 363.09 493.01 363.09 493.01 375.09 490.01 375.09 490.01 375.09 463.01 375.09 463.01 372.09 463.01 372.09 463.01 360.09 460.01 360.09 460.01"/><polygon class="cls-7" points="372.58 462.5 375.58 462.5 375.58 462.5 375.58 489.5 375.58 489.5 411.58 504.5 411.58 504.5 423.58 501.5 423.58 501.5 426.58 468.5 426.58 468.5 414.58 462.5 414.58 462.5 408.58 453.5 408.58 453.5 399.58 456.5 399.58 456.5 387.58 447.5 387.58 447.5 381.58 456.5 381.58 456.5 375.58 456.5 375.58 456.5 372.58 462.5 372.58 462.5"/><polygon class="cls-7" points="393.58 429.5 387.58 447.5 387.58 447.5 399.58 456.5 399.58 456.5 408.58 453.5 408.58 453.5 414.58 462.5 414.58 462.5 426.58 468.5 426.58 468.5 429.58 450.5 429.58 450.5 438.58 432.5 438.58 432.5 423.58 429.5 423.58 429.5 408.58 423.5 408.58 423.5 402.58 414.5 402.58 414.5 393.58 429.5 393.58 429.5"/><polygon class="cls-7" points="384.58 345.5 378.58 348.5 378.58 348.5 387.58 354.5 387.58 354.5 387.58 366.5 387.58 366.5 399.58 378.5 399.58 378.5 414.58 387.5 414.58 387.5 420.58 390.5 420.58 390.5 441.58 393.5 441.58 393.5 447.58 399.5 447.58 399.5 447.58 381.5 447.58 381.5 438.58 375.5 438.58 375.5 426.58 369.5 426.58 369.5 420.58 354.5 420.58 354.5 402.58 351.5 402.58 351.5 396.58 342.5 396.58 342.5 390.58 339.5 390.58 339.5 384.58 345.5 384.58 345.5"/><polygon class="cls-7" points="378.58 348.5 372.58 354.5 372.58 354.5 366.58 375.5 366.58 375.5 399.58 402.5 399.58 402.5 408.58 399.5 408.58 399.5 414.58 387.5 414.58 387.5 399.58 378.5 399.58 378.5 387.58 366.5 387.58 366.5 387.58 354.5 387.58 354.5 378.58 348.5 378.58 348.5"/><polygon class="cls-7" points="414.58 387.5 408.58 399.5 408.58 399.5 399.58 402.5 399.58 402.5 402.58 414.5 402.58 414.5 408.58 423.5 408.58 423.5 423.58 429.5 423.58 429.5 438.58 432.5 438.58 432.5 438.58 420.5 438.58 420.5 447.58 399.5 447.58 399.5 441.58 393.5 441.58 393.5 420.58 390.5 420.58 390.5 414.58 387.5 414.58 387.5"/><polygon class="cls-7" points="417.58 321.5 384.58 333.5 384.58 333.5 390.58 339.5 390.58 339.5 396.58 342.5 396.58 342.5 402.58 351.5 402.58 351.5 420.58 354.5 420.58 354.5 426.58 369.5 426.58 369.5 438.58 375.5 438.58 375.5 447.58 381.5 447.58 381.5 459.58 375.5 459.58 375.5 459.58 369.5 459.58 369.5 444.58 357.5 444.58 357.5 438.58 357.5 438.58 357.5 432.58 345.5 432.58 345.5 423.58 333.5 423.58 333.5 417.58 321.5 417.58 321.5"/><polygon class="cls-7" points="423.58 333.5 432.58 345.5 432.58 345.5 438.58 357.5 438.58 357.5 444.58 357.5 444.58 357.5 459.58 369.5 459.58 369.5 471.58 357.5 471.58 357.5 477.58 345.5 477.58 345.5 471.58 339.5 471.58 339.5 453.58 333.5 453.58 333.5 450.58 324.5 450.58 324.5 447.58 318.5 447.58 318.5 441.58 318.5 441.58 318.5 423.58 333.5 423.58 333.5"/><polygon class="cls-7" points="405.58 225.5 384.58 243.5 384.58 243.5 375.58 267.5 375.58 267.5 378.58 273.5 378.58 273.5 405.58 291.5 405.58 291.5 420.58 279.5 420.58 279.5 417.58 252.5 417.58 252.5 405.58 225.5 405.58 225.5"/><polygon class="cls-7" points="162.58 348.5 165.58 360.5 165.58 360.5 165.58 369.5 165.58 369.5 180.58 375.5 180.58 375.5 198.58 375.5 198.58 375.5 198.58 348.5 198.58 348.5 162.58 348.5 162.58 348.5"/><polygon class="cls-7" points="198.58 336.5 198.58 369.5 198.58 369.5 243.58 369.5 243.58 369.5 240.58 363.5 240.58 363.5 231.58 354.5 231.58 354.5 228.58 339.5 228.58 339.5 222.58 336.5 222.58 336.5 198.58 336.5 198.58 336.5"/><polygon class="cls-7" points="240.58 363.5 243.58 369.5 243.58 369.5 261.58 378.5 261.58 378.5 279.58 375.5 279.58 375.5 294.58 360.5 294.58 360.5 279.58 345.5 279.58 345.5 267.58 336.5 267.58 336.5 240.58 363.5 240.58 363.5"/><polygon class="cls-7" points="318.58 309.5 312.58 354.5 312.58 354.5 318.58 357.5 318.58 357.5 339.58 360.5 339.58 360.5 342.58 330.5 342.58 330.5 336.58 315.5 336.58 315.5 324.58 315.5 324.58 315.5 318.58 309.5 318.58 309.5"/><polygon class="cls-7" points="336.58 315.5 342.58 330.5 342.58 330.5 339.58 360.5 339.58 360.5 351.58 363.5 351.58 363.5 357.58 372.5 357.58 372.5 366.58 375.5 366.58 375.5 372.58 354.5 372.58 354.5 378.58 348.5 378.58 348.5 384.58 345.5 384.58 345.5 372.58 345.5 372.58 345.5 363.58 339.5 363.58 339.5 357.58 315.5 357.58 315.5 336.58 315.5 336.58 315.5"/><polygon class="cls-7" points="363.58 318.5 357.58 315.5 357.58 315.5 363.58 339.5 363.58 339.5 372.58 345.5 372.58 345.5 384.58 345.5 384.58 345.5 390.58 339.5 390.58 339.5 384.58 333.5 384.58 333.5 381.58 324.5 381.58 324.5 372.58 318.5 372.58 318.5 363.58 318.5 363.58 318.5"/><polygon class="cls-7" points="51.58 351.5 45.58 363.5 45.58 363.5 42.58 375.5 42.58 375.5 66.58 375.5 66.58 375.5 66.58 360.5 66.58 360.5 60.58 351.5 60.58 351.5 51.58 351.5 51.58 351.5"/><polygon class="cls-7" points="66.58 360.5 66.58 375.5 66.58 375.5 63.58 375.5 63.58 375.5 63.58 396.5 63.58 396.5 105.58 396.5 105.58 396.5 102.58 378.5 102.58 378.5 96.58 378.5 96.58 378.5 96.58 360.5 96.58 360.5 66.58 360.5 66.58 360.5"/><polygon class="cls-7" points="96.58 360.5 96.58 378.5 96.58 378.5 102.58 378.5 102.58 378.5 105.58 396.5 105.58 396.5 129.58 396.5 129.58 396.5 129.58 375.5 129.58 375.5 132.58 375.5 132.58 375.5 132.58 372.5 132.58 372.5 126.58 366.5 126.58 366.5 126.58 366.5 126.58 366.5 114.58 357.5 114.58 357.5 114.58 360.5 114.58 360.5 96.58 360.5 96.58 360.5"/><polygon class="cls-7" points="132.58 375.5 129.58 375.5 129.58 375.5 129.58 396.5 129.58 396.5 153.58 396.5 153.58 396.5 159.58 393.5 159.58 393.5 156.58 384.5 156.58 384.5 159.58 375.5 159.58 375.5 165.58 369.5 165.58 369.5 165.58 360.5 165.58 360.5 126.58 360.5 126.58 360.5 126.58 366.5 126.58 366.5 132.58 372.5 132.58 372.5 132.58 375.5 132.58 375.5"/><polygon class="cls-7" points="165.58 369.5 159.58 375.5 159.58 375.5 156.58 384.5 156.58 384.5 159.58 393.5 159.58 393.5 159.58 429.5 159.58 429.5 195.58 429.5 195.58 429.5 195.58 402.5 195.58 402.5 189.58 396.5 189.58 396.5 180.58 396.5 180.58 396.5 180.58 375.5 180.58 375.5 165.58 369.5 165.58 369.5"/><polygon class="cls-7" points="180.58 375.5 180.58 396.5 180.58 396.5 189.58 396.5 189.58 396.5 195.58 402.5 195.58 402.5 195.58 399.5 195.58 399.5 213.58 399.5 213.58 399.5 213.58 387.5 213.58 387.5 216.58 387.5 216.58 387.5 216.58 378.5 216.58 378.5 213.58 369.5 213.58 369.5 198.58 369.5 198.58 369.5 198.58 375.5 198.58 375.5 180.58 375.5 180.58 375.5"/><polygon class="cls-7" points="213.58 369.5 216.58 378.5 216.58 378.5 228.58 378.5 228.58 378.5 228.58 390.5 228.58 390.5 234.58 390.5 234.58 390.5 234.58 393.5 234.58 393.5 246.58 393.5 246.58 393.5 246.58 390.5 246.58 390.5 261.58 390.5 261.58 390.5 261.58 378.5 261.58 378.5 243.58 369.5 243.58 369.5 213.58 369.5 213.58 369.5"/><polygon class="cls-7" points="216.58 387.5 213.58 387.5 213.58 387.5 213.58 402.5 213.58 402.5 219.58 405.5 219.58 405.5 225.58 414.5 225.58 414.5 249.58 414.5 249.58 414.5 255.58 405.5 255.58 405.5 261.58 390.5 261.58 390.5 246.58 390.5 246.58 390.5 246.58 393.5 246.58 393.5 234.58 393.5 234.58 393.5 234.58 390.5 234.58 390.5 228.58 390.5 228.58 390.5 228.58 378.5 228.58 378.5 216.58 378.5 216.58 378.5 216.58 387.5 216.58 387.5"/><polygon class="cls-7" points="261.58 378.5 261.58 390.5 261.58 390.5 255.58 405.5 255.58 405.5 249.58 414.5 249.58 414.5 246.58 414.5 246.58 414.5 249.58 420.5 249.58 420.5 267.58 420.5 267.58 420.5 267.58 423.5 267.58 423.5 279.58 423.5 279.58 423.5 282.58 426.5 282.58 426.5 300.58 426.5 300.58 426.5 300.58 414.5 300.58 414.5 303.58 414.5 303.58 414.5 303.58 405.5 303.58 405.5 300.58 405.5 300.58 405.5 300.58 390.5 300.58 390.5 279.58 390.5 279.58 390.5 279.58 375.5 279.58 375.5 261.58 378.5 261.58 378.5"/><polygon class="cls-7" points="279.58 375.5 279.58 390.5 279.58 390.5 309.58 390.5 309.58 390.5 309.58 372.5 309.58 372.5 318.58 372.5 318.58 372.5 318.58 357.5 318.58 357.5 312.58 354.5 312.58 354.5 306.58 357.5 306.58 357.5 294.58 360.5 294.58 360.5 279.58 375.5 279.58 375.5"/><polygon class="cls-7" points="318.58 357.5 318.58 372.5 318.58 372.5 309.58 372.5 309.58 372.5 309.58 384.5 309.58 384.5 339.58 405.5 339.58 405.5 351.58 411.5 351.58 411.5 351.58 378.5 351.58 378.5 357.58 372.5 357.58 372.5 351.58 363.5 351.58 363.5 339.58 360.5 339.58 360.5 318.58 357.5 318.58 357.5"/><polygon class="cls-7" points="357.58 372.5 351.58 378.5 351.58 378.5 351.58 411.5 351.58 411.5 357.58 411.5 357.58 411.5 360.58 426.5 360.58 426.5 384.58 423.5 384.58 423.5 393.58 429.5 393.58 429.5 402.58 414.5 402.58 414.5 399.58 402.5 399.58 402.5 366.58 375.5 366.58 375.5 357.58 372.5 357.58 372.5"/><polygon class="cls-7" points="300.58 405.5 303.58 405.5 303.58 405.5 303.58 414.5 303.58 414.5 312.58 414.5 312.58 414.5 312.58 420.5 312.58 420.5 321.58 420.5 321.58 420.5 321.58 417.5 321.58 417.5 327.58 417.5 327.58 417.5 339.58 405.5 339.58 405.5 339.58 405.5 339.58 405.5 309.58 384.5 309.58 384.5 309.58 390.5 309.58 390.5 300.58 390.5 300.58 390.5 300.58 405.5 300.58 405.5"/><polygon class="cls-7" points="339.58 405.5 327.58 417.5 327.58 417.5 321.58 417.5 321.58 417.5 321.58 426.5 321.58 426.5 324.58 426.5 324.58 426.5 324.58 435.5 324.58 435.5 336.58 444.5 336.58 444.5 345.58 444.5 345.58 444.5 354.58 435.5 354.58 435.5 366.58 435.5 366.58 435.5 360.58 426.5 360.58 426.5 357.58 411.5 357.58 411.5 351.58 411.5 351.58 411.5 339.58 405.5 339.58 405.5"/><polygon class="cls-7" points="42.58 375.5 45.58 387.5 45.58 387.5 51.58 396.5 51.58 396.5 51.58 408.5 51.58 408.5 54.58 408.5 54.58 408.5 54.58 411.5 54.58 411.5 63.58 411.5 63.58 411.5 75.58 408.5 75.58 408.5 75.58 396.5 75.58 396.5 63.58 396.5 63.58 396.5 63.58 375.5 63.58 375.5 42.58 375.5 42.58 375.5"/><polygon class="cls-7" points="75.58 396.5 75.58 408.5 75.58 408.5 78.58 417.5 78.58 417.5 114.58 417.5 114.58 417.5 117.58 414.5 117.58 414.5 111.58 402.5 111.58 402.5 114.58 396.5 114.58 396.5 75.58 396.5 75.58 396.5"/><polygon class="cls-7" points="114.58 396.5 111.58 402.5 111.58 402.5 117.58 414.5 117.58 414.5 114.58 417.5 114.58 417.5 159.58 417.5 159.58 417.5 159.58 393.5 159.58 393.5 153.58 396.5 153.58 396.5 114.58 396.5 114.58 396.5"/><polygon class="cls-7" points="195.58 399.5 195.58 429.5 195.58 429.5 210.58 429.5 210.58 429.5 219.58 426.5 219.58 426.5 225.58 423.5 225.58 423.5 225.58 414.5 225.58 414.5 219.58 405.5 219.58 405.5 213.58 402.5 213.58 402.5 213.58 399.5 213.58 399.5 195.58 399.5 195.58 399.5"/><polygon class="cls-7" points="225.58 414.5 225.58 423.5 225.58 423.5 219.58 426.5 219.58 426.5 219.58 432.5 219.58 432.5 228.58 441.5 228.58 441.5 231.58 450.5 231.58 450.5 231.58 459.5 231.58 459.5 231.58 465.5 231.58 465.5 243.58 465.5 243.58 465.5 243.58 459.5 243.58 459.5 246.58 459.5 246.58 459.5 246.58 450.5 246.58 450.5 258.58 450.5 258.58 450.5 258.58 435.5 258.58 435.5 249.58 420.5 249.58 420.5 246.58 414.5 246.58 414.5 225.58 414.5 225.58 414.5"/><polygon class="cls-7" points="249.58 420.5 258.58 435.5 258.58 435.5 258.58 447.5 258.58 447.5 294.58 447.5 294.58 447.5 291.58 441.5 291.58 441.5 291.58 435.5 291.58 435.5 300.58 435.5 300.58 435.5 300.58 426.5 300.58 426.5 282.58 426.5 282.58 426.5 279.58 423.5 279.58 423.5 267.58 423.5 267.58 423.5 267.58 420.5 267.58 420.5 249.58 420.5 249.58 420.5"/><polygon class="cls-7" points="324.58 426.5 321.58 426.5 321.58 426.5 321.58 420.5 321.58 420.5 312.58 420.5 312.58 420.5 312.58 414.5 312.58 414.5 300.58 414.5 300.58 414.5 300.58 435.5 300.58 435.5 291.58 435.5 291.58 435.5 291.58 441.5 291.58 441.5 294.58 447.5 294.58 447.5 303.58 468.5 303.58 468.5 309.58 471.5 309.58 471.5 312.58 471.5 312.58 471.5 312.58 489.5 312.58 489.5 321.58 489.5 321.58 489.5 321.58 516.5 321.58 516.5 342.58 516.5 342.58 516.5 351.58 492.5 351.58 492.5 324.58 492.5 324.58 492.5 324.58 465.5 324.58 465.5 351.58 465.5 351.58 465.5 342.58 456.5 342.58 456.5 342.58 450.5 342.58 450.5 336.58 447.5 336.58 447.5 336.58 444.5 336.58 444.5 324.58 435.5 324.58 435.5 324.58 426.5 324.58 426.5"/><polygon class="cls-7" points="54.58 408.5 51.58 408.5 51.58 408.5 48.58 432.5 48.58 432.5 45.58 447.5 45.58 447.5 54.58 459.5 54.58 459.5 66.58 459.5 66.58 459.5 66.58 438.5 66.58 438.5 93.58 438.5 93.58 438.5 93.58 417.5 93.58 417.5 78.58 417.5 78.58 417.5 75.58 408.5 75.58 408.5 63.58 411.5 63.58 411.5 54.58 411.5 54.58 411.5 54.58 408.5 54.58 408.5"/><polygon class="cls-7" points="93.58 417.5 93.58 438.5 93.58 438.5 105.58 438.5 105.58 438.5 105.58 459.5 105.58 459.5 108.58 459.5 108.58 459.5 108.58 453.5 108.58 453.5 129.58 432.5 129.58 432.5 138.58 426.5 138.58 426.5 144.58 417.5 144.58 417.5 93.58 417.5 93.58 417.5"/><polygon class="cls-7" points="144.58 417.5 138.58 426.5 138.58 426.5 129.58 432.5 129.58 432.5 108.58 453.5 108.58 453.5 108.58 459.5 108.58 459.5 159.58 459.5 159.58 459.5 159.58 417.5 159.58 417.5 144.58 417.5 144.58 417.5"/><polygon class="cls-7" points="66.58 438.5 66.58 459.5 66.58 459.5 105.58 459.5 105.58 459.5 105.58 438.5 105.58 438.5 66.58 438.5 66.58 438.5"/><polygon class="cls-7" points="159.58 429.5 159.58 465.5 159.58 465.5 201.58 465.5 201.58 465.5 201.58 462.5 201.58 462.5 210.58 444.5 210.58 444.5 210.58 429.5 210.58 429.5 159.58 429.5 159.58 429.5"/><polygon class="cls-7" points="219.58 426.5 210.58 429.5 210.58 429.5 210.58 444.5 210.58 444.5 201.58 462.5 201.58 462.5 213.58 465.5 213.58 465.5 231.58 465.5 231.58 465.5 231.58 450.5 231.58 450.5 228.58 441.5 228.58 441.5 219.58 432.5 219.58 432.5 219.58 426.5 219.58 426.5"/><polygon class="cls-7" points="258.58 447.5 258.58 450.5 258.58 450.5 246.58 450.5 246.58 450.5 246.58 459.5 246.58 459.5 243.58 459.5 243.58 459.5 243.58 465.5 243.58 465.5 246.58 465.5 246.58 465.5 246.58 474.5 246.58 474.5 258.58 474.5 258.58 474.5 258.58 486.5 258.58 486.5 264.58 483.5 264.58 483.5 264.58 447.5 264.58 447.5 258.58 447.5 258.58 447.5"/><polygon class="cls-7" points="264.58 447.5 264.58 483.5 264.58 483.5 279.58 489.5 279.58 489.5 285.58 501.5 285.58 501.5 303.58 504.5 303.58 504.5 303.58 516.5 303.58 516.5 321.58 516.5 321.58 516.5 321.58 489.5 321.58 489.5 312.58 489.5 312.58 489.5 312.58 471.5 312.58 471.5 309.58 471.5 309.58 471.5 303.58 468.5 303.58 468.5 294.58 447.5 294.58 447.5 264.58 447.5 264.58 447.5"/><polygon class="cls-7" points="54.58 459.5 66.58 498.5 66.58 498.5 72.58 504.5 72.58 504.5 75.58 492.5 75.58 492.5 81.58 480.5 81.58 480.5 81.58 465.5 81.58 465.5 84.58 459.5 84.58 459.5 54.58 459.5 54.58 459.5"/><polygon class="cls-7" points="84.58 459.5 81.58 465.5 81.58 465.5 81.58 480.5 81.58 480.5 75.58 492.5 75.58 492.5 72.58 504.5 72.58 504.5 123.58 507.5 123.58 507.5 123.58 459.5 123.58 459.5 84.58 459.5 84.58 459.5"/><polygon class="cls-7" points="123.58 459.5 123.58 507.5 123.58 507.5 150.58 507.5 150.58 507.5 153.58 477.5 153.58 477.5 147.58 471.5 147.58 471.5 147.58 459.5 147.58 459.5 123.58 459.5 123.58 459.5"/><polygon class="cls-7" points="147.58 459.5 147.58 471.5 147.58 471.5 153.58 477.5 153.58 477.5 150.58 507.5 150.58 507.5 186.58 510.5 186.58 510.5 186.58 465.5 186.58 465.5 159.58 465.5 159.58 465.5 159.58 459.5 159.58 459.5 147.58 459.5 147.58 459.5"/><polygon class="cls-7" points="186.58 465.5 186.58 510.5 186.58 510.5 225.58 513.5 225.58 513.5 216.58 504.5 216.58 504.5 216.58 492.5 216.58 492.5 225.58 489.5 225.58 489.5 216.58 483.5 216.58 483.5 213.58 465.5 213.58 465.5 201.58 462.5 201.58 462.5 201.58 465.5 201.58 465.5 186.58 465.5 186.58 465.5"/><polygon class="cls-7" points="213.58 465.5 216.58 483.5 216.58 483.5 225.58 489.5 225.58 489.5 216.58 492.5 216.58 492.5 216.58 504.5 216.58 504.5 225.58 513.5 225.58 513.5 249.58 513.5 249.58 513.5 249.58 495.5 249.58 495.5 252.58 495.5 252.58 495.5 252.58 489.5 252.58 489.5 258.58 486.5 258.58 486.5 258.58 474.5 258.58 474.5 246.58 474.5 246.58 474.5 246.58 465.5 246.58 465.5 213.58 465.5 213.58 465.5"/><polygon class="cls-7" points="252.58 495.5 249.58 495.5 249.58 495.5 249.58 513.5 249.58 513.5 303.58 516.5 303.58 516.5 303.58 504.5 303.58 504.5 285.58 501.5 285.58 501.5 279.58 489.5 279.58 489.5 264.58 483.5 264.58 483.5 258.58 486.5 258.58 486.5 252.58 489.5 252.58 489.5 252.58 495.5 252.58 495.5"/><polygon class="cls-7" points="336.58 444.5 336.58 447.5 336.58 447.5 342.58 450.5 342.58 450.5 342.58 456.5 342.58 456.5 351.58 465.5 351.58 465.5 357.58 465.5 357.58 465.5 360.58 459.5 360.58 459.5 372.58 462.5 372.58 462.5 375.58 456.5 375.58 456.5 381.58 456.5 381.58 456.5 387.58 447.5 387.58 447.5 393.58 429.5 393.58 429.5 384.58 423.5 384.58 423.5 360.58 426.5 360.58 426.5 366.58 435.5 366.58 435.5 354.58 435.5 354.58 435.5 345.58 444.5 345.58 444.5 336.58 444.5 336.58 444.5"/><polygon class="cls-7" points="360.09 460.01 357.09 466.01 357.09 466.01 324.09 466.01 324.09 466.01 324.09 493.01 324.09 493.01 351.09 493.01 351.09 493.01 342.09 517.01 342.09 517.01 351.09 544.01 351.09 544.01 363.09 541.01 363.09 541.01 363.09 517.01 363.09 517.01 360.09 508.01 360.09 508.01 363.09 493.01 363.09 493.01 375.09 490.01 375.09 490.01 375.09 463.01 375.09 463.01 372.09 463.01 372.09 463.01 360.09 460.01 360.09 460.01"/><polygon class="cls-7" points="372.58 462.5 375.58 462.5 375.58 462.5 375.58 489.5 375.58 489.5 411.58 504.5 411.58 504.5 423.58 501.5 423.58 501.5 426.58 468.5 426.58 468.5 414.58 462.5 414.58 462.5 408.58 453.5 408.58 453.5 399.58 456.5 399.58 456.5 387.58 447.5 387.58 447.5 381.58 456.5 381.58 456.5 375.58 456.5 375.58 456.5 372.58 462.5 372.58 462.5"/><polygon class="cls-7" points="393.58 429.5 387.58 447.5 387.58 447.5 399.58 456.5 399.58 456.5 408.58 453.5 408.58 453.5 414.58 462.5 414.58 462.5 426.58 468.5 426.58 468.5 429.58 450.5 429.58 450.5 438.58 432.5 438.58 432.5 423.58 429.5 423.58 429.5 408.58 423.5 408.58 423.5 402.58 414.5 402.58 414.5 393.58 429.5 393.58 429.5"/><polygon class="cls-7" points="384.58 345.5 378.58 348.5 378.58 348.5 387.58 354.5 387.58 354.5 387.58 366.5 387.58 366.5 399.58 378.5 399.58 378.5 414.58 387.5 414.58 387.5 420.58 390.5 420.58 390.5 441.58 393.5 441.58 393.5 447.58 399.5 447.58 399.5 447.58 381.5 447.58 381.5 438.58 375.5 438.58 375.5 426.58 369.5 426.58 369.5 420.58 354.5 420.58 354.5 402.58 351.5 402.58 351.5 396.58 342.5 396.58 342.5 390.58 339.5 390.58 339.5 384.58 345.5 384.58 345.5"/><polygon class="cls-7" points="378.58 348.5 372.58 354.5 372.58 354.5 366.58 375.5 366.58 375.5 399.58 402.5 399.58 402.5 408.58 399.5 408.58 399.5 414.58 387.5 414.58 387.5 399.58 378.5 399.58 378.5 387.58 366.5 387.58 366.5 387.58 354.5 387.58 354.5 378.58 348.5 378.58 348.5"/><polygon class="cls-7" points="414.58 387.5 408.58 399.5 408.58 399.5 399.58 402.5 399.58 402.5 402.58 414.5 402.58 414.5 408.58 423.5 408.58 423.5 423.58 429.5 423.58 429.5 438.58 432.5 438.58 432.5 438.58 420.5 438.58 420.5 447.58 399.5 447.58 399.5 441.58 393.5 441.58 393.5 420.58 390.5 420.58 390.5 414.58 387.5 414.58 387.5"/><polygon class="cls-7" points="417.58 321.5 384.58 333.5 384.58 333.5 390.58 339.5 390.58 339.5 396.58 342.5 396.58 342.5 402.58 351.5 402.58 351.5 420.58 354.5 420.58 354.5 426.58 369.5 426.58 369.5 438.58 375.5 438.58 375.5 447.58 381.5 447.58 381.5 459.58 375.5 459.58 375.5 459.58 369.5 459.58 369.5 444.58 357.5 444.58 357.5 438.58 357.5 438.58 357.5 432.58 345.5 432.58 345.5 423.58 333.5 423.58 333.5 417.58 321.5 417.58 321.5"/><polygon class="cls-7" points="423.58 333.5 432.58 345.5 432.58 345.5 438.58 357.5 438.58 357.5 444.58 357.5 444.58 357.5 459.58 369.5 459.58 369.5 471.58 357.5 471.58 357.5 477.58 345.5 477.58 345.5 471.58 339.5 471.58 339.5 453.58 333.5 453.58 333.5 450.58 324.5 450.58 324.5 447.58 318.5 447.58 318.5 441.58 318.5 441.58 318.5 423.58 333.5 423.58 333.5"/><polygon class="cls-7" points="420.58 279.5 405.58 291.5 405.58 291.5 405.58 300.5 405.58 300.5 414.58 309.5 414.58 309.5 417.58 321.5 417.58 321.5 423.58 333.5 423.58 333.5 441.58 318.5 441.58 318.5 447.58 318.5 447.58 318.5 447.58 306.5 447.58 306.5 429.58 282.5 429.58 282.5 420.58 279.5 420.58 279.5"/></g></svg>